<?xml version="1.0" encoding="UTF-8" standalone="no"?>
<!DOCTYPE svg PUBLIC "-//W3C//DTD SVG 1.1//EN" "http://www.w3.org/Graphics/SVG/1.1/DTD/svg11.dtd">
<svg width="100%" height="100%" viewBox="0 0 1314 1353" version="1.1" xmlns="http://www.w3.org/2000/svg" xmlns:xlink="http://www.w3.org/1999/xlink" xml:space="preserve" xmlns:serif="http://www.serif.com/" style="fill-rule:evenodd;clip-rule:evenodd;stroke-linejoin:round;stroke-miterlimit:2;">
    <g transform="matrix(1,0,0,1,-2584.91,-4.75152)">
        <g id="Слой-6" serif:id="Слой 6">
        </g>
        <g id="Режим-изоляции" serif:id="Режим изоляции">
        </g>
        <g id="Режим-изоляции1" serif:id="Режим изоляции">
        </g>
        <g id="Page-6" serif:id="Page 6" transform="matrix(1.17554,0,0,1.61447,2584.91,4.75152)">
            <rect x="0" y="0" width="1117.09" height="837.818" style="fill:none;"/>
            <clipPath id="_clip1">
                <rect x="0" y="0" width="1117.09" height="837.818"/>
            </clipPath>
            <g clip-path="url(#_clip1)">
                <g id="Режим-изоляции2" serif:id="Режим изоляции">
                </g>
                <g id="Режим-изоляции3" serif:id="Режим изоляции">
                </g>
                <g id="Режим-изоляции4" serif:id="Режим изоляции" transform="matrix(1.70135,0,0,1.23879,787.102,142.012)">
                    <g transform="matrix(1,0,0,1,-120.924,266.668)">
                        <path d="M0,172.41C5.806,169.538 10.47,167.458 13.216,161.079C7.846,164.042 1.301,163.169 0,172.41M130.799,-99.848C135.998,-102.204 141.252,-104.483 145.441,-110.086C137.367,-109.968 133.941,-105.109 130.799,-99.848M285.297,41.031C290.497,38.977 297.397,40.157 300.288,32.27C292.676,32.198 288.749,36.457 285.297,41.031M88.214,-106.515C87.497,-107.212 86.779,-107.909 86.062,-108.607C81.208,-103.325 76.354,-98.044 72.343,-93.679C77.012,-97.455 82.613,-101.985 88.214,-106.515M14.923,217.131C7.863,217.818 5.173,221.262 0.815,220.693C-4.068,220.055 -2.221,224.292 -1.728,226.269C-1.021,229.104 1.062,228.009 2.743,226.68C6.081,224.039 9.441,221.425 14.923,217.131M278.715,164.418C283.936,161.408 291.764,164.633 294.998,157.423C295.243,156.878 294.564,155.286 294.444,155.3C288.003,156.043 282.941,159.484 278.715,164.418M196.663,255.285C185.305,257.743 178.187,262.323 171.827,268.29C180.086,265.794 188.026,262.717 196.663,255.285M285.867,-79.809C302.138,-83.076 302.138,-83.076 299.358,-90.973C295.62,-87.88 291.171,-84.199 285.867,-79.809M42.932,256.38C51.013,255.329 57.071,250.89 64.179,246.485C52.272,241.564 49.025,252.065 42.932,256.38M32.518,-105.657C18.389,-104.486 15.199,-95.773 11.396,-87.693C17.673,-93.031 23.95,-98.37 32.518,-105.657M193.136,269.352C203.642,267.96 212.916,263.602 220.24,255.526C211.205,260.135 202.171,264.744 193.136,269.352M277.74,25.861C278.252,26.483 278.763,27.105 279.275,27.727C285.386,25.129 291.475,22.478 297.618,19.957C300.029,18.966 300.435,17.024 299.564,15.178C298.303,12.504 296.379,14.031 294.733,15.074C289.066,18.666 283.404,22.265 277.74,25.861M14.624,-43.875C21.168,-47.415 30.572,-48.021 31.766,-61.262C23.324,-55.458 18.247,-50.413 14.624,-43.875M38.813,23.922C47.901,21.172 58.41,20.203 67.98,10.029C55.337,12.373 48.013,19.681 38.813,23.922M1.783,191.145C7.188,186.739 14.626,185.35 19.034,177.137C10.94,181 1.319,179.608 1.783,191.145M21.795,193.254C12.914,198.311 7.029,201.503 1.329,204.996C-0.606,206.181 -0.767,208.413 0.754,210.177C2.133,211.776 3.765,210.709 4.89,209.699C9.892,205.211 16.707,202.785 21.795,193.254M16.904,-62.838C26.511,-69.881 32.706,-75.973 40.71,-79.122C43.128,-80.073 43.751,-81.873 42.965,-83.753C41.757,-86.644 39.545,-84.975 38.285,-83.809C31.83,-77.838 23.461,-73.859 16.904,-62.838M114.644,21.007C122.574,17.888 129.264,16.745 133.887,11.316C127.529,13.738 115.994,4.153 114.644,21.007M7.645,87.769C15.622,85.96 22.031,84.24 28.543,83.119C33.293,82.301 33.286,79.165 32.271,76.077C30.892,71.881 28.287,75.373 26.776,76.085C20.503,79.041 13.645,81.164 7.645,87.769M99.269,249.042C85.552,243.284 81.02,244.443 65.559,258.151C78.107,253.556 86.964,244.56 99.269,249.042M296.964,63.391C277.905,71.007 273.852,74.195 272.909,81.649C281.104,75.205 291.144,72.125 296.964,63.391M51.361,31.326C38.483,35.94 29.209,40.659 21.61,48.39C31.96,45.818 42.855,44.324 51.361,31.326M28.543,223.974C16.76,225.914 8.726,232.348 0.588,238.45C-0.314,239.126 -0.756,241.474 -0.329,242.655C0.71,245.526 2.963,244.184 4.44,243.077C12.273,237.207 21.881,233.563 28.543,223.974M246.53,258.923C234.102,261.43 223.692,267.606 212.936,275.49C231.543,281.887 237.382,267.395 246.53,258.923M182.43,249.068C160.487,244.034 148.257,256.842 135.458,268.368C150.887,262.759 166.902,258.47 182.43,249.068M121.01,-1.199C147.667,0.764 173.842,-2.371 200.006,0.135C215.202,1.591 230.636,0.93 245.953,0.667C262.031,0.391 266.603,-4.632 266.467,-20.37C266.369,-31.659 266.314,-42.95 266.267,-54.24C266.204,-69.153 262.039,-72.711 247.224,-74.066C185.353,-79.726 123.479,-72.175 61.612,-74.496C49.069,-74.966 41.64,-66.759 41.406,-54.044C41.183,-41.951 40.919,-29.843 41.256,-17.758C41.584,-5.954 47.984,-0.947 59.872,-1.117C80.431,-1.411 100.996,-1.199 121.01,-1.199M153.828,39.876C153.828,39.755 153.828,39.634 153.827,39.512C128.427,39.512 103.025,39.674 77.626,39.465C54.28,39.272 43.905,49.294 43.811,72.742C43.685,104.187 43.421,135.633 43.482,167.077C43.515,184.199 40.855,201.196 47.266,218.346C51.174,228.801 57.045,233.407 66.799,234.777C72.353,235.557 78.059,235.398 83.697,235.413C128.452,235.534 173.207,235.584 217.962,235.69C224.409,235.705 230.944,235.271 237.286,236.147C252.333,238.224 259.567,231.997 259.489,216.553C259.269,172.617 259.12,128.681 259.067,84.744C259.063,80.783 259.535,76.713 260.509,72.877C265.112,54.744 253.864,39.997 234.882,39.908C207.865,39.781 180.846,39.876 153.828,39.876M312.628,-41.483C308.528,17.694 311.989,77.017 309.439,136.185C307.76,175.135 308.74,214.275 303.026,253.038C301.051,266.433 294.579,276.711 282.444,282.027C270.034,287.464 256.892,290.926 243.083,291.793C175.863,296.01 108.839,288.293 41.676,288.521C30.065,288.561 17.52,287.449 6.889,280.603C-9.109,270.302 -10.753,253.392 -12.109,237.04C-17.242,175.163 -9.604,113.494 -8.249,51.715C-7.374,11.853 -4.922,-28.011 -5.348,-67.851C-5.675,-98.444 15.568,-116.193 40.297,-118.108C107.055,-123.28 173.915,-123.6 240.777,-121.995C252.77,-121.708 264.845,-120.583 276.917,-120.27C294.297,-119.819 308.202,-106.887 310.148,-89.658C311.05,-81.675 312.128,-73.692 312.538,-65.679C312.949,-57.633 312.628,-49.55 312.628,-41.483" style="fill:rgb(16,46,108);fill-rule:nonzero;"/>
                    </g>
                    <g transform="matrix(1,0,0,1,-204.649,-73.654)">
                        <path d="M0,489.504C2.926,486.022 10.799,488.741 10.572,481.776C10.548,481.025 9.071,479.708 8.247,479.692C1.916,479.566 2.116,485.559 0,489.504M309.504,129.355C303.574,131.598 295.816,130.683 291.595,139.761C299.74,137.769 304.817,133.9 309.504,129.355M71.157,-6.521C78.564,-8.905 83.108,-14.574 89.869,-23.149C79.465,-18.757 75.921,-11.939 71.157,-6.521M-237.784,26.671C-238.346,32.557 -240.192,36.761 -236.242,39.629C-235.375,40.259 -231.454,38.828 -231.227,37.827C-230.223,33.397 -233.93,31.121 -237.784,26.671M-164.41,502.479C-161.447,494.067 -154.526,492.021 -154.875,485.236C-154.891,484.938 -156.432,484.277 -156.884,484.512C-162.78,487.581 -163.256,493.371 -164.41,502.479M307.397,100.047C301.77,101.881 293.86,100.421 291.846,110.525C299.228,108.17 303.669,104.623 307.397,100.047M-220.346,478.298C-211.777,480.738 -206.702,477.98 -199.388,471.465C-208.403,472.944 -214.097,473.584 -220.346,478.298M-71.794,-0.85C-63.492,-4.202 -56.576,-9.055 -51.197,-15.827C-60.104,-13.464 -65.917,-6.96 -71.794,-0.85M-221.986,237.905C-219.246,243.486 -216.983,249.631 -210.059,252.264C-207.889,242.016 -217.381,241.946 -221.986,237.905M-201.432,488.086C-206.582,491.958 -218.919,493.717 -207.727,503.211C-205.564,498.014 -203.498,493.05 -201.432,488.086M-226.284,334.938C-223.131,344.642 -218.417,348.789 -212.436,353.715C-212.247,343.98 -218.07,340.572 -226.284,334.938M218.454,-10.124C208.326,-6.849 204.663,-1.074 198.688,4.109C209.535,5.439 212.376,-1.732 218.454,-10.124M-181.155,503.692C-176.283,498.215 -171.12,492.839 -169.021,483.81C-179.113,488.054 -178.479,496.888 -181.155,503.692M-217.412,487.127C-223.101,486.454 -227.453,485.94 -233.305,485.248C-229.445,489.972 -226.537,493.53 -223.1,497.735C-221.067,493.944 -219.617,491.24 -217.412,487.127M19.785,-20.055C9.294,-20.451 6.56,-11.906 0.161,-7.578C0.828,-6.811 1.497,-6.044 2.165,-5.276C8.038,-10.203 13.912,-15.129 19.785,-20.055M310.001,144.93C309.686,144.363 309.371,143.796 309.056,143.229C304.212,144.753 299.348,146.219 294.532,147.824C292.127,148.626 291.817,150.817 292.509,152.709C293.424,155.212 295.655,154.834 297.406,153.683C301.677,150.876 305.811,147.861 310.001,144.93M96.475,4.049C106.474,1.493 109.666,-1.215 116.807,-13.583C108.887,-7.301 101.729,-3.532 96.475,4.049M311.896,114.527C303.61,113.034 299.854,117.762 294.904,118.773C292.518,119.261 291.719,121.569 292.581,123.453C294.17,126.929 296.435,124.733 298.338,123.504C302.289,120.954 306.185,118.317 311.896,114.527M159.503,-15.034C152.704,-8.547 143.006,-5.309 139.029,4.139C146.682,-1.365 155.315,-5.713 159.503,-15.034M-5.102,478.804C-15.807,486.412 -19.231,495.152 -23.485,503.329C-17.096,496.796 -9.934,490.9 -5.102,478.804M-117.732,508.555C-106.756,501.087 -102.794,491.383 -97.62,482.609C-104.713,489.911 -112.906,496.369 -117.732,508.555M-215.264,402.614C-212.506,388.956 -221.225,387.242 -226.141,382.453C-227.057,383.173 -227.974,383.894 -228.891,384.615C-224.949,389.821 -221.008,395.028 -215.264,402.614M-207.87,116.464C-212.947,108.562 -217.923,100.421 -228.083,93.387C-223.107,104.804 -215.971,110.994 -207.87,116.464M-70.502,-15.904C-79.901,-13.628 -87.116,-8.406 -94.898,0.562C-82.297,-1.231 -77.652,-10.675 -70.502,-15.904M-226.612,27.898C-219.94,35.205 -216.96,46.341 -204.88,48.038C-211.925,41.118 -216.515,31.653 -226.612,27.898M-243.876,349.298C-247.777,365.913 -247.777,365.913 -233.341,365.89C-236.812,360.423 -240.048,355.327 -243.876,349.298M-209.206,272.946C-209.948,258.835 -220.091,257.427 -227.046,252.838C-222.291,259.483 -218.643,267.089 -209.206,272.946M317.322,76.325C307.829,80.011 301.634,82.44 295.419,84.817C292.549,85.915 291.789,88.415 292.9,90.616C294.341,93.471 297.065,92.111 299.034,90.887C304.754,87.33 310.749,84.088 317.322,76.325M-227.62,134.688C-223.448,144.453 -216.636,152.082 -208.045,158.271C-211.359,147.813 -219.058,140.902 -227.62,134.688M-245.698,418.404C-251.095,440.133 -249.644,443.419 -235.606,440.882C-247.638,436.621 -243.683,426.426 -245.698,418.404M-233.694,398.443C-228.42,405.969 -223.475,413.79 -213.829,420.218C-214.762,406.012 -226.687,404.423 -233.694,398.443M-90.002,-18.571C-99.557,-14.094 -109.943,-10.947 -115.318,-0.782C-105.7,-5.067 -96.199,-9.477 -90.002,-18.571M-209.699,182.726C-206.28,166.519 -218.605,163.356 -225.14,156.328C-222.618,165.686 -216.11,172.577 -209.699,182.726M289.589,172.63C301.275,167.573 309.349,163.753 313.94,155.112C305.335,158.276 295.317,159.288 289.589,172.63M-232.403,52.899C-226.762,63.276 -217.966,70.134 -206.114,77.572C-212.15,63.942 -221.627,57.714 -232.403,52.899M115.756,4.392C132.1,5.349 133.992,-8.971 141.965,-15.757C132.856,-10.38 122.575,-6.456 115.756,4.392M-228.356,71.349C-224.334,86.76 -217.923,94.361 -205.658,97.123C-213.224,88.532 -220.79,79.941 -228.356,71.349M-137.635,-0.254C-128.988,-6.448 -117.552,-9.259 -112.124,-22.022C-125.899,-19.214 -131.253,-8.96 -137.635,-0.254M-229.092,113.037C-225.865,123.716 -219.379,128.82 -214.887,135.23C-213.298,137.498 -211.402,142.164 -207.963,138.903C-205.348,136.424 -206.229,131.984 -209.416,129.265C-215.196,124.334 -221.13,119.583 -229.092,113.037M-232.691,352.631C-228.87,361.919 -223.381,370.008 -214.804,377.392C-211.234,360.879 -225.239,359.239 -232.691,352.631M-62.033,510.493C-51.496,504.483 -46.088,496.571 -41.675,487.782C-40.838,486.115 -39.004,484.327 -41.226,482.591C-43.224,481.03 -45.301,482.223 -46.256,483.932C-50.967,492.36 -58.143,499.387 -62.033,510.493M306.641,0.115C297.944,5.796 292.24,9.954 286.12,13.366C282.204,15.548 283.785,17.533 285.238,19.933C286.951,22.762 289.033,24.056 291.722,21.101C296.704,15.628 303.204,11.32 306.641,0.115M-241.907,227.603C-246.035,251.142 -244.784,263.522 -236.561,267.39C-243.446,259.274 -241.151,250.81 -237.725,244.998C-232.761,236.579 -237.412,233.227 -241.907,227.603M-113.18,482.765C-123.165,482.94 -134.004,496.15 -138.002,512.742C-127.308,504.177 -120.176,493.863 -113.18,482.765M-232.646,188.11C-226.445,198.447 -220.026,208.512 -209.47,218.164C-208.531,199.239 -223.534,195.921 -232.646,188.11M-246.135,375.971C-246.817,384.247 -247.265,392.551 -248.241,400.792C-249.414,410.696 -244.866,411.208 -237.081,407.772C-239.381,403.873 -241.565,400.112 -243.808,396.386C-245.344,393.835 -246.747,390.273 -243.648,389.041C-230.01,383.617 -242.062,380.054 -246.135,375.971M-21.252,-19.547C-33.827,-15.549 -44.071,-8.033 -55.935,0.648C-36.165,4.724 -32.922,-14.405 -21.252,-19.547M295.718,75.417C304.649,67.572 315.375,63.107 321.801,51.561C303.792,54.658 294.247,63.212 295.718,75.417M-210.261,235.904C-210.913,224.281 -225.549,208.983 -238.435,205.917C-230.306,217.272 -222.016,227.622 -210.261,235.904M-105.899,518.06C-94.1,508.074 -84.715,496.296 -78.956,481.71C-88.36,493.534 -101.46,502.379 -105.899,518.06M296.574,-14.738C288.708,-9.984 280.729,-5.403 273.031,-0.392C269.785,1.721 263.347,3.742 267.299,8.874C270.898,13.545 275.659,10.357 279.697,6.994C286.825,1.057 292.573,-5.988 296.574,-14.738M180.477,4.087C194.841,-1.269 204.493,-11.928 214.516,-26.723C194.992,-17.988 193.705,-16.84 180.477,4.087M-86.711,516.11C-72.95,509.223 -65.506,499.95 -59.924,488.893C-58.851,486.768 -55.144,484.364 -59.202,482.114C-61.533,480.822 -65.454,480.54 -66.924,483.117C-72.755,493.337 -82.469,501.166 -86.711,516.11M-231.779,339.633C-247.241,331.95 -232.941,317.107 -242.579,308.3C-235.751,301.922 -239.338,295.672 -242.57,289.25C-242.844,288.705 -241.045,286.343 -239.863,285.992C-236.881,285.107 -233.808,284.699 -237.234,280.88C-238.786,279.15 -240.779,276.569 -242.583,276.56C-246.732,276.541 -245.644,280.499 -245.668,283.011C-245.822,299.459 -245.288,315.933 -246.017,332.352C-246.472,342.606 -241.579,342.23 -231.779,339.633M159.814,14.399C75.928,14.535 -7.906,10.802 -91.804,11.069C-110.188,11.127 -128.75,9.367 -147.253,9.231C-183.043,8.969 -195.68,25.616 -196.921,57.763C-200.379,147.307 -202.225,236.916 -203.389,326.543C-203.787,357.226 -203.388,388.054 -205.41,418.834C-206.457,434.782 -201.292,451.361 -190.195,464.584C-179.759,477.019 -164.906,476.132 -151.128,475.897C-119.345,475.357 -87.584,473.514 -55.815,472.196C-36.493,471.395 -17.177,470.22 2.153,469.903C16.789,469.664 18.123,471.438 18.172,485.576C18.205,495.26 17.507,505.004 18.35,514.615C19.42,526.802 13.61,530.257 2.676,530.026C-13.459,529.684 -29.608,529.993 -45.751,530.009C-89.307,530.05 -132.873,530.711 -176.414,529.921C-211.62,529.283 -259.34,483.961 -257.955,444.527C-254.79,354.422 -253.444,264.254 -251.144,174.116C-249.993,129.016 -251.12,83.885 -248.251,38.797C-246.104,5.053 -232.814,-20.525 -200.906,-34.811C-189.942,-39.72 -178.208,-41.207 -166.779,-40.957C-38.906,-38.16 88.984,-39.044 216.866,-38.399C237.688,-38.294 258.736,-37.891 279.346,-33.922C307.265,-28.546 330.557,-0.143 330.612,28.269C330.699,74.085 330.682,119.901 330.611,165.718C330.586,181.963 327.521,185.012 311.128,185.98C282.315,187.681 279.533,185.572 280.226,156.894C281.131,119.492 282.735,82.1 284.591,44.731C285.47,27.04 272.833,14.806 250.595,14.502C220.339,14.088 190.075,14.399 159.814,14.399" style="fill:rgb(242,113,45);fill-rule:nonzero;"/>
                    </g>
                    <g transform="matrix(1,0,0,1,-114.602,57.1134)">
                        <path d="M0,-7.287C-7.411,-3.993 -11.223,0.617 -14.133,6.217C-8.122,4.002 -1.894,2.08 0,-7.287M13.726,0.242C17.945,-3.708 22.262,-7.561 26.323,-11.668C27.503,-12.862 29.839,-14.763 27.698,-16.51C25.803,-18.057 22.253,-18.047 21.373,-15.639C19.367,-10.148 14.96,-6.549 13.726,0.242M39.004,6.028C51.243,0.694 57.029,-4.845 62.682,-16.673C54.034,-7.446 44.436,-2.979 39.004,6.028M81.784,13.492C89.592,16.549 94.637,12.706 98.905,7.072C100.417,5.076 101.099,2.373 98.994,0.682C97.279,-0.696 95.388,1.095 93.932,2.416C89.923,6.052 85.932,9.708 81.784,13.492M-94.71,6.033C-83.852,1.758 -78.203,-7.94 -71.165,-16.253C-79.73,-9.585 -90.107,-4.941 -94.71,6.033M-29.02,-16.404C-38.791,-10.727 -46.739,-3.035 -53.039,6.317C-42.043,1.953 -34.764,-6.337 -29.02,-16.404M-178.662,-1.081C-168.79,-4.517 -164.02,-12.411 -158.316,-22.948C-171.727,-19.516 -172.962,-8.172 -178.662,-1.081M-8.162,-16.298C-19.964,-12.609 -26.236,-2.674 -33.547,6.087C-22.049,2.054 -14.99,-6.991 -8.162,-16.298M-177.984,-21.403C-188.25,-16.857 -194.132,-8.437 -198.095,1.635C-189.285,-4.122 -180.369,-9.74 -177.984,-21.403M-79.926,10.71C-64.284,6.965 -55.593,-5.536 -46.009,-16.912C-59.803,-10.838 -69.762,0.065 -79.926,10.71M-87.293,-19.013C-96.951,-16.52 -117.583,1.503 -120.248,8.894C-106.417,3.606 -99.47,-2.166 -87.293,-19.013M86.767,24.312C59.963,21.488 35.863,23.389 11.794,23.728C-36.951,24.414 -85.576,22.467 -134.211,19.432C-153.888,18.204 -173.697,19.136 -193.445,19.001C-208.996,18.896 -217.638,8.524 -215.172,-6.917C-212.615,-22.939 -202.759,-31.529 -186.611,-31.457C-112.926,-31.128 -39.382,-25.283 34.369,-26.183C53.064,-26.412 71.488,-22.46 90.277,-28.387C100.785,-31.701 112.117,-19.277 114.394,-4.898C116.453,8.102 107.983,21.492 96.045,23.661C92.132,24.372 88.063,24.232 86.767,24.312" style="fill:rgb(242,113,45);fill-rule:nonzero;"/>
                    </g>
                    <g transform="matrix(1,0,0,1,-260.447,306.971)">
                        <path d="M0,-35.149C-10.319,-36.725 -10.319,-36.725 -9.392,-26.158C-5.022,-27.934 -2.408,-31.362 0,-35.149M-53.145,-12.023C-46.907,-18.33 -40.718,-24.667 -39.957,-34.237C-48.542,-29.329 -50.386,-20.404 -53.145,-12.023M-37.65,-11.084C-32.942,-16.502 -28.103,-21.815 -23.601,-27.398C-22.113,-29.243 -17.594,-31.162 -20.676,-33.739C-23.196,-35.846 -27.823,-35.674 -29.945,-31.49C-33.147,-25.172 -37.877,-19.557 -37.65,-11.084M-38.555,10.828C-62.103,11.519 -74.593,1.916 -75.796,-11.709C-77.025,-25.623 -64.665,-40.623 -49.682,-41.834C-24.857,-43.839 0.023,-45.377 24.91,-46.272C35.931,-46.668 43.076,-38.631 47.887,-29.992C52.678,-21.387 50.882,-11.884 45.872,-3.555C43.343,0.648 38.918,3.347 33.926,3.849C7.247,6.533 -19.453,9.006 -38.555,10.828" style="fill:rgb(242,113,45);fill-rule:nonzero;"/>
                    </g>
                    <g transform="matrix(1,0,0,1,-283.251,166.742)">
                        <path d="M0,3.884C7.298,-0.434 9.692,-6.141 11.755,-12.095C5.964,-8.923 2.029,-4.367 0,3.884M49.285,-12.459C40.642,-13.583 39.479,-7.775 36.681,-1.223C43.342,-3.629 46.9,-6.866 49.285,-12.459M16.62,0.806C22.605,-2.07 27.015,-6.401 32.165,-13.922C21.296,-12.043 19.153,-5.382 16.62,0.806M-0.688,-14.3C-12.325,-10.994 -14.545,-2.919 -17.459,4.525C-11.886,-0.503 -5.084,-4.413 -0.688,-14.3M-32.671,7C-25.683,2.296 -21.372,-4.327 -19.191,-12.319C-27.803,-8.756 -30.3,-1.025 -32.671,7M-30.427,-14.25C-42.318,-8.643 -45.009,-2.202 -42.058,9.946C-37.915,1.326 -34.947,-4.848 -30.427,-14.25M13.94,-22.488C31.326,-22.488 45.099,-21.577 58.69,-22.766C70.242,-23.777 79.506,-15.504 81.264,-2.486C82.665,7.884 73.714,17.998 63.191,20.971C39.52,27.661 15.332,24.625 -8.637,25.621C-15.875,25.922 -23.172,25.319 -30.371,25.944C-44.328,27.157 -51.528,21.744 -53.014,8.13C-54.847,-8.668 -47.796,-19.703 -34.258,-21.413C-16.996,-23.594 0.342,-21.86 13.94,-22.488" style="fill:rgb(242,113,45);fill-rule:nonzero;"/>
                    </g>
                    <g transform="matrix(1,0,0,1,111.752,446.129)">
                        <path d="M0,2.91C0.551,32.633 -3.965,37.515 -36.113,37.392C-45.211,37.358 -54.401,39.648 -61.834,31.228C-71.371,20.424 -71.593,-18.902 -61.449,-29.144C-57.676,-32.953 -53.13,-35.303 -47.643,-35.77C-36.267,-36.738 -25.128,-34.246 -14.071,-32.628C-5.482,-31.372 -0.627,-24.198 -0.071,-15.232C0.303,-9.206 0,-3.139 0,2.91" style="fill:rgb(16,46,108);fill-rule:nonzero;"/>
                    </g>
                    <g transform="matrix(1,0,0,1,11.7183,372.442)">
                        <path d="M0,-2.126C1.421,3.491 -0.357,9.647 -1.364,16.004C-2.439,22.787 -6.968,27.039 -12.105,27.531C-23.64,28.636 -35.217,31.229 -46.909,29.609C-52.74,28.801 -57.326,25.709 -60.862,20.883C-75.142,1.392 -65.474,-26.047 -42.304,-31.418C-33.95,-33.355 -25.35,-32.97 -17.041,-31.987C-5.779,-30.654 -1.703,-22.859 0,-2.126" style="fill:rgb(16,46,108);fill-rule:nonzero;"/>
                    </g>
                    <g transform="matrix(1,0,0,1,76.4625,398.73)">
                        <path d="M0,-61.456C20.758,-61.173 28.695,-57.366 30.138,-45.14C31.069,-37.252 30.808,-29.045 29.788,-21.147C28.237,-9.142 23.943,0 8.468,-1.661C2.952,-2.253 -3.33,-0.252 -9.345,-0.211C-28.736,-0.08 -33.023,-3.87 -35.287,-23.157C-37.785,-44.432 -32.998,-56.029 -19.086,-59.798C-13.02,-61.441 -6.379,-60.968 0,-61.456" style="fill:rgb(16,46,108);fill-rule:nonzero;"/>
                    </g>
                    <g transform="matrix(1,0,0,1,-13.5376,436.596)">
                        <path d="M0,26.669C7.415,26.599 10.358,21.96 13.092,17.036C8.642,19.61 3.276,20.931 0,26.669M16.588,2.145C16.004,1.323 15.42,0.501 14.836,-0.321C5.31,6.096 -3.695,13.086 -9.577,23.537C-0.855,16.406 7.866,9.275 16.588,2.145M-13.294,10.729C-4.518,6.658 0.934,-0.875 6.926,-7.884C-3.237,-5.364 -8.141,2.774 -13.294,10.729M24.285,13.134C23.937,21.051 24.161,25.945 23.414,30.686C22.171,38.58 18.132,43.876 9.253,44.365C-0.376,44.896 -9.964,46.331 -19.593,46.627C-33.201,47.045 -39.306,41.796 -41.598,28.364C-43.439,17.567 -41.482,6.76 -40.262,-3.877C-39.259,-12.636 -32.229,-16.458 -23.624,-16.523C-15.158,-16.588 -6.823,-17.139 1.591,-18.533C12.711,-20.376 21.382,-12.467 23.499,0.585C24.33,5.706 24.166,10.988 24.285,13.134" style="fill:rgb(16,46,108);fill-rule:nonzero;"/>
                    </g>
                </g>
            </g>
        </g>
        <g id="Режим-изоляции5" serif:id="Режим изоляции">
        </g>
        <g id="Режим-изоляции6" serif:id="Режим изоляции">
        </g>
        <g id="Слой-2" serif:id="Слой 2">
        </g>
        <g id="Слой-3" serif:id="Слой 3">
        </g>
        <g id="Слой-4" serif:id="Слой 4">
        </g>
        <g id="Слой-5" serif:id="Слой 5">
        </g>
        <g id="Режим-изоляции7" serif:id="Режим изоляции">
        </g>
    </g>
</svg>
