<?xml version="1.0" encoding="UTF-8" standalone="no"?>
<!DOCTYPE svg PUBLIC "-//W3C//DTD SVG 1.1//EN" "http://www.w3.org/Graphics/SVG/1.1/DTD/svg11.dtd">
<svg width="100%" height="100%" viewBox="0 0 1165 1155" version="1.1" xmlns="http://www.w3.org/2000/svg" xmlns:xlink="http://www.w3.org/1999/xlink" xml:space="preserve" xmlns:serif="http://www.serif.com/" style="fill-rule:evenodd;clip-rule:evenodd;stroke-linejoin:round;stroke-miterlimit:2;">
    <g transform="matrix(1,0,0,1,-5448.09,-4.75152)">
        <g id="Слой-6" serif:id="Слой 6">
        </g>
        <g id="Режим-изоляции" serif:id="Режим изоляции">
        </g>
        <g id="Режим-изоляции1" serif:id="Режим изоляции">
        </g>
        <g id="Режим-изоляции2" serif:id="Режим изоляции">
        </g>
        <g id="Режим-изоляции3" serif:id="Режим изоляции">
        </g>
        <g id="Page-6" serif:id="Page 6" transform="matrix(1.04216,0,0,1.37815,5448.09,4.75152)">
            <rect x="0" y="0" width="1117.09" height="837.818" style="fill:none;"/>
            <g id="Режим-изоляции4" serif:id="Режим изоляции">
            </g>
            <g id="Режим-изоляции5" serif:id="Режим изоляции">
            </g>
            <g id="Режим-изоляции6" serif:id="Режим изоляции">
            </g>
            <g id="Режим-изоляции7" serif:id="Режим изоляции" transform="matrix(1.9191,0,0,1.45122,515.544,190.642)">
                <g transform="matrix(1,0,0,1,-252.003,269.599)">
                    <path d="M0,-223.97C-1.469,-222.929 -2.885,-221.792 -2.654,-219.76C-2.565,-218.982 -2.756,-216.977 -1.13,-218.199C0.149,-219.161 0.957,-220.916 1.632,-222.468C2.249,-223.887 1.249,-224.226 0,-223.97M489.354,51.722C489.201,51.121 489.065,50.054 488.906,50.05C486.312,49.994 484.357,51.484 482.361,52.895C481.441,53.544 481.457,54.013 482.609,54.161C485.25,54.499 487.23,52.888 489.354,51.722M2.545,-201.39C2.85,-202.847 3.246,-204.213 1.693,-204.154C-0.315,-204.079 -2.793,-204.067 -2.729,-200.991C-2.709,-199.989 -2.286,-198.995 -2.047,-197.998C-0.429,-199.193 1.189,-200.388 2.545,-201.39M76.157,29.765C76.331,29.558 74.652,31.299 73.357,33.29C73.014,33.818 74.171,34.404 74.863,33.693C76.553,31.961 78.277,30.237 79.722,28.311C80.03,27.901 78.979,27.399 76.157,29.765M109.679,-389.561C107.978,-389.927 106.59,-390.6 106.223,-390.238C104.758,-388.792 103.49,-387.101 102.391,-385.348C101.723,-384.281 101.963,-382.986 103.541,-384.108C105.56,-385.543 107.283,-387.395 109.679,-389.561M364.882,147.492C365.171,146.066 364.639,145.558 363.239,146.07C361.285,146.785 359.22,147.548 358.689,149.776C358.526,150.459 359.729,152.215 360.12,152.16C362.726,151.792 363.556,149.359 364.882,147.492M18.193,-378.923C16.296,-376.062 10.904,-375.826 11.546,-370.788C14.85,-372.437 17.019,-375.192 18.193,-378.923M130.769,115.765C132.232,114.151 135.028,113.182 134.794,110.248C134.745,109.636 132.994,108.591 132.163,108.709C128.764,109.189 130.018,112.658 128.846,114.631C128.313,115.528 129.101,116.659 130.769,115.765M3.443,-316.313C3.61,-317.933 2.509,-318.139 1.433,-317.808C-0.727,-317.142 -0.873,-315.185 -0.82,-313.374C-0.796,-312.547 -0.147,-311.738 0.218,-310.921C2.162,-312.199 2.987,-314.146 3.443,-316.313M20.855,-57.873C20.383,-59.046 21.295,-61.344 19.303,-61.009C17.19,-60.655 15.639,-58.625 15.479,-56.435C15.357,-54.76 17.365,-54.489 18.608,-54.335C21.643,-53.958 20.214,-56.615 20.855,-57.873M544.897,-100.256C539.064,-100.741 536.719,-97.047 534.133,-93.807C533.987,-93.625 534.572,-92.862 534.816,-92.369C537.285,-94.315 539.753,-96.264 542.224,-98.207C542.921,-98.755 543.631,-99.286 544.897,-100.256M385.753,-356.461C389.867,-356.51 393.595,-354.156 396.025,-358.456C396.281,-358.907 395.847,-360.357 395.611,-360.387C392.366,-360.8 389.368,-360.199 385.753,-356.461M536.563,-139.003C540.825,-140.881 544.218,-143.96 545.568,-149.011C542.566,-145.675 539.565,-142.339 536.563,-139.003M335.581,66.7C338.064,63.985 340.208,61.806 342.142,59.454C343.083,58.309 341.991,57.27 341.074,57.837C338.515,59.418 334.71,59.587 333.944,63.333C333.796,64.054 334.714,64.993 335.581,66.7M537.267,16.389C541.376,14.036 541.164,11.24 542.064,9.101C542.5,8.067 541.21,6.892 540.151,7.48C538.053,8.647 535.575,9.915 535.719,12.818C535.785,14.15 536.828,15.433 537.267,16.389M375.815,153.207C373.236,152.449 372.212,155.068 370.259,155.733C368.646,156.281 366.095,156.651 365.968,159.24C365.946,159.698 366.813,160.381 367.41,160.655C370.102,161.896 371.288,159.613 372.596,158.108C373.855,156.659 376.19,155.796 375.815,153.207M362.159,65.485C362.28,65.55 362.402,65.615 362.523,65.679C358.984,69.257 355.444,72.835 351.904,76.413C351.678,76.137 351.452,75.86 351.226,75.584C354.87,72.218 358.514,68.851 362.159,65.485M535.493,-151.145C538.986,-154.742 542.479,-158.34 545.972,-161.937C545.471,-162.271 544.68,-163.003 544.51,-162.88C540.466,-159.942 536.594,-156.812 535.493,-151.145M7.659,2.521C3.347,5.836 -0.08,9.034 -1.961,13.656C-2.02,13.799 -1.378,14.444 -1.285,14.399C2.752,12.442 4.331,8.098 7.483,5.256C7.81,4.961 7.584,4.052 7.659,2.521M6.581,-75.077C2.08,-70.698 -2.421,-68.661 -4.621,-64.08C-4.732,-63.85 -3.628,-62.769 -3.609,-62.782C0.293,-65.688 4.05,-68.744 6.581,-75.077M535,-51.524C537.85,-54.664 544.064,-53.271 544.725,-59.294C544.792,-59.908 544.256,-60.589 544,-61.239C539.826,-59.2 536.489,-56.33 535,-51.524M549.109,-191.665C548.736,-192.12 549.877,-194.672 547.955,-194.317C544.615,-193.7 542.214,-190.892 540.87,-188.035C539.624,-185.388 542.287,-186.207 542.999,-187.013C544.759,-189.009 550.609,-184.481 549.109,-191.665M367.265,92.657C370.426,90.283 373.552,87.861 376.767,85.562C378.006,84.675 379.414,83.598 378.568,82.191C377.266,80.024 376.095,82.341 375.2,82.955C371.678,85.374 368.335,88.045 367.265,92.657M29.499,-315.052C28.957,-316.076 29.112,-318.108 27.633,-316.818C24.142,-313.776 20.891,-310.442 17.726,-307.055C17.018,-306.297 17.903,-304.522 18.883,-305.239C22.796,-308.102 27.601,-310.156 29.499,-315.052M322.655,20.549C323.44,20.531 325.983,23.079 326.387,19.382C326.644,17.029 323.678,18.004 322.166,17.955C318.636,17.84 315.081,17.889 311.567,18.21C309.975,18.355 309.263,20.091 309.636,21.458C310.311,23.935 311.813,22.048 312.728,21.592C315.604,20.16 318.35,18.394 322.655,20.549M529.23,-291.966C534.822,-296.503 539.943,-298.205 541.808,-303.454C541.86,-303.599 540.657,-304.523 540.409,-304.391C535.951,-302.015 532.08,-299.005 529.23,-291.966M531.409,-65.553C537.414,-63.806 538.893,-68.749 542.526,-67.507C545.377,-66.533 544.855,-69.324 544.863,-70.799C544.869,-72.022 544.175,-73.249 543.791,-74.474C542.628,-73.697 541.437,-72.958 540.306,-72.136C537.735,-70.268 535.194,-68.359 531.409,-65.553M533.665,-197.182C540.524,-198.306 542.397,-202.828 546.822,-202.576C550.194,-202.384 549.635,-205.414 548.987,-207.089C547.587,-210.709 545.536,-207.979 544.221,-206.909C541.225,-204.47 538.506,-201.694 533.665,-197.182M-1.175,-339.683C0.639,-338.929 -2.473,-334.706 1.176,-335.844C3.359,-336.525 5.31,-339.953 6.116,-342.536C7.092,-345.666 3.084,-345.613 1.796,-345.757C-3.536,-346.353 0.531,-341.808 -1.175,-339.683M170.29,105.424C167.549,107.833 162.979,108.636 160.993,112.784C163.219,113.796 166.859,115.687 167.55,115.418C171.338,113.942 170.885,109.314 172.639,106.154C173.295,104.973 171.757,104.864 170.29,105.424M8.27,-43.633C7.809,-44.038 7.349,-44.444 6.888,-44.849C3.227,-41.943 -0.512,-39.127 -4.05,-36.078C-5.188,-35.097 -5.284,-33.265 -4.212,-32.137C-2.837,-30.692 -1.509,-32.083 -0.666,-33.032C2.402,-36.486 5.305,-40.087 8.27,-43.633M532.675,-210.873C533.149,-210.433 533.623,-209.993 534.097,-209.554C538.878,-213.23 543.687,-216.871 548.42,-220.607C549.592,-221.532 550.371,-223.188 549.336,-224.333C548.021,-225.789 546.788,-224.121 545.869,-223.279C541.419,-219.201 537.064,-215.018 532.675,-210.873M387.191,104.307C385.868,100.878 384.791,97.863 383.54,94.922C382.675,92.889 381.202,93.667 380.255,94.743C379.701,95.371 379.497,97.352 379.669,97.423C387.789,100.754 382.803,104.322 379.998,107.955C379.365,108.776 378.174,111.505 380.645,110.107C383.019,108.764 386.933,107.871 387.191,104.307M10.706,-287.592C11.6,-286.791 12.495,-285.991 13.389,-285.19C17.784,-288.826 22.204,-292.432 26.556,-296.118C27.768,-297.145 30.245,-298.257 28.14,-300.133C26.365,-301.714 25.081,-299.383 23.814,-298.359C19.417,-294.804 15.071,-291.186 10.706,-287.592M508.304,-361.652C508.47,-361.209 508.635,-360.766 508.8,-360.324C513.955,-362.663 519.122,-364.975 524.256,-367.358C526.037,-368.185 527.435,-369.343 525.658,-371.411C524.146,-373.172 523.111,-372.645 521.345,-371.153C517.247,-367.692 512.681,-364.784 508.304,-361.652M422.093,54.305C418.506,52.322 415.46,52.031 413.24,49.242C411,46.427 408.399,50.102 406.104,51.224C405.428,51.554 405.287,52.981 404.901,53.906C406.667,54.039 408.432,54.257 410.199,54.287C413.786,54.347 417.375,54.305 422.093,54.305M139.527,-386.761C131.482,-384.666 126.228,-379.503 120.765,-374.58C121.286,-373.963 121.807,-373.347 122.328,-372.73C128.061,-377.407 133.794,-382.084 139.527,-386.761M166.342,86.377C171.421,84.23 176.413,82.209 181.289,79.938C181.863,79.671 182.151,77.956 181.953,77.046C181.54,75.146 180.145,75.226 178.73,76.076C174.431,78.66 170.124,81.23 165.879,83.898C165.352,84.23 165.177,85.121 164.839,85.752C165.396,85.984 165.952,86.215 166.342,86.377M6.933,-185.935C7.211,-188.119 6.43,-189.02 4.714,-188.056C-0.157,-185.319 -4.144,-181.98 -2.904,-175.45C-2.503,-173.337 -1.526,-172.971 -0.377,-174.613C2.252,-178.371 4.617,-182.312 6.933,-185.935M461.914,-363.677C469.067,-367.368 476.403,-371.136 483.693,-374.99C483.945,-375.123 483.744,-376.115 483.755,-376.707C483.108,-376.633 482.377,-376.728 481.826,-376.458C475.061,-373.142 468.313,-369.791 461.593,-366.383C461.028,-366.096 460.703,-365.336 460.266,-364.796C460.698,-364.503 461.13,-364.21 461.914,-363.677M440.357,-366.324C448.797,-368.214 456.051,-372.229 464.516,-379.895C453.887,-376.104 446.897,-371.617 440.357,-366.324M15.027,-319.215C15.694,-318.62 16.361,-318.025 17.028,-317.431C22.253,-322.948 27.44,-328.503 32.738,-333.949C33.669,-334.906 35.699,-335.502 34.729,-337.024C33.63,-338.749 32.157,-337.275 31.173,-336.348C25.448,-330.953 19.525,-325.73 15.027,-319.215M504.183,27.558C511.369,21.418 518.554,15.278 525.739,9.138C516.469,12.889 509.197,18.929 504.183,27.558M140.39,74.849C143.891,70.775 146.936,67.362 149.82,63.818C151.208,62.114 152.339,59.852 149.893,58.355C147.813,57.082 145.43,58.718 144.351,60.176C141.369,64.205 140.809,69.121 140.39,74.849M155.318,17.36C154.955,14.94 153.262,15.887 152.202,15.718C148.933,15.197 147.07,17.637 144.801,19.314C141.107,22.044 136.85,24.114 134.621,28.463C139.665,28.972 142.4,24.692 146.271,22.776C149.412,21.222 152.312,19.183 155.318,17.36M531.528,-253.54C539.155,-258.471 543.18,-264.768 549.948,-267.167C551.552,-267.736 551.681,-269.637 551.095,-270.839C549.88,-273.328 548.131,-271.983 546.915,-270.766C542.01,-265.855 535.909,-262.018 531.528,-253.54M266.397,-361.471C270.07,-363.599 273.82,-365.605 277.393,-367.889C280.72,-370.016 283.742,-372.554 285.686,-376.124C281.267,-377.336 278.992,-373.467 275.759,-371.896C271.472,-369.813 268.395,-366.361 266.397,-361.471M279.504,32.456C274.026,31.244 271.932,33.025 269.927,34.466C264.962,38.035 258.149,38.99 254.925,45.019C262.161,44.683 267.241,39.595 273.286,36.642C274.904,35.851 276.311,34.63 279.504,32.456M-1.986,-12.603C2.318,-17.283 7.188,-22.546 11.977,-27.882C12.197,-28.127 11.697,-29.018 11.533,-29.608C6.555,-27.999 3.111,-24.268 -0.498,-20.804C-2.039,-19.324 -3.547,-17.717 -4.65,-15.911C-5.26,-14.913 -5.559,-13.141 -1.986,-12.603M522.096,-24.914C522.587,-24.618 523.079,-24.322 523.57,-24.026C529.296,-28.79 535.063,-33.505 540.721,-38.348C542.343,-39.736 544.208,-41.855 542.206,-43.741C540.659,-45.199 539.218,-42.85 538.116,-41.715C532.724,-36.166 527.426,-30.524 522.096,-24.914M388.643,114.568C387.076,116.043 385.402,117.386 384.066,119.007C383.624,119.544 384.054,121.608 384.082,121.608C390.362,121.588 390.948,124.843 389.862,130.17C389.102,133.894 391.87,131.619 393.158,131.176C397.32,129.744 394.832,126.602 393.99,124.982C392.266,121.666 393.291,116.908 388.643,114.568M242.398,52.354C242.471,51.443 242.544,50.533 242.617,49.622C236.562,50.206 230.517,51.601 225.761,46.287C223.691,43.974 221.502,47.553 219.388,48.437C218.613,48.762 217.568,50.321 217.786,50.83C218.937,53.523 221.507,52.239 223.452,52.291C229.763,52.459 236.082,52.354 242.398,52.354M530.464,-163.144C536.928,-165.979 540.201,-171.431 546.354,-170.443C550.607,-169.761 548.144,-173.359 548.784,-174.89C549.268,-176.051 549.31,-178.343 548.603,-178.874C546.678,-180.32 545.482,-178.017 544.18,-177.056C539.394,-173.521 534.794,-169.762 530.464,-163.144M50.086,11.247C48.812,8.898 47.059,8.794 45.54,10.117C41.433,13.697 37.492,17.468 33.524,21.203C32.381,22.28 29.501,22.84 31.102,25.005C32.567,26.988 34.531,24.928 35.75,23.984C40.038,20.663 44.117,17.071 48.228,13.526C48.98,12.878 49.507,11.97 50.086,11.247M13.413,-96.717C13.197,-98.876 12.315,-99.664 11.344,-98.736C5.896,-93.531 0.504,-88.259 -4.664,-82.78C-5.323,-82.082 -4.592,-80.038 -4.381,-78.637C-4.367,-78.55 -2.967,-78.37 -2.695,-78.67C2.844,-84.791 8.314,-90.976 13.413,-96.717M515.026,-349.937C521.47,-352.342 527.511,-354.496 533.45,-356.901C534.625,-357.377 535.816,-358.825 534.656,-360.347C534.091,-361.088 532.637,-362.016 532.079,-361.765C525.914,-358.984 519.367,-356.879 514.173,-352.273C513.644,-351.803 513.231,-351.203 512.765,-350.664C513.651,-350.379 514.536,-350.094 515.026,-349.937M206.143,-367.877C208.276,-367.909 224.268,-382.471 224.365,-384.49C224.49,-387.114 222.374,-386.195 221.565,-385.743C214.899,-382.009 210.086,-376.22 205.277,-370.475C204.436,-369.471 203.552,-367.851 206.143,-367.877M-4.114,4.096C-1.048,0.988 1.958,-1.661 4.463,-4.72C6.669,-7.412 11.879,-11.448 10.203,-12.775C7.107,-15.226 4.753,-10.077 2.187,-7.962C0.278,-6.388 -1.154,-4.37 -4.028,-4.013C-8.029,-3.515 -5.129,-0.799 -5.142,0.908C-5.15,1.872 -4.543,2.841 -4.114,4.096M395.867,142.534C390.924,148.288 385.721,153.734 381.37,159.792C380.114,161.541 383.179,161.157 383.985,160.656C390.065,156.879 396.407,153.247 397.159,144.959C397.264,143.794 398.48,142.126 395.867,142.534M524.771,-116.352C525.293,-115.749 525.814,-115.145 526.336,-114.542C532.557,-119.368 538.67,-124.342 545.054,-128.941C547.359,-130.602 547.801,-133.019 546.681,-134.446C544.509,-137.214 543.173,-133.805 541.974,-132.715C536.12,-127.391 530.484,-121.829 524.771,-116.352M351.414,90.668C360.535,83.78 367.577,78.515 374.542,73.149C375.62,72.318 376.832,70.978 376.022,69.52C375.094,67.847 373.595,68.474 372.474,69.526C365.879,75.709 356.921,79.481 351.414,90.668M367.066,41.047C367.696,41.812 368.325,42.578 368.955,43.343C376.105,37.016 383.293,30.73 390.363,24.315C391.37,23.401 394.166,22.426 391.954,20.531C390.552,19.33 388.631,20.456 387.228,21.805C380.53,28.242 373.79,34.637 367.066,41.047M521.956,-98.942C522.627,-98.178 523.299,-97.413 523.97,-96.648C530.487,-101.578 535.314,-108.784 543.71,-111.232C546.435,-112.026 547.859,-115.447 546.399,-117.431C544.29,-120.296 542.052,-117.297 540.36,-115.786C534.158,-110.247 528.08,-104.568 521.956,-98.942M44.194,34.009C51.543,28.134 59.067,22.14 66.541,16.084C66.945,15.756 67.254,14.543 67.048,14.354C65.842,13.252 64.259,13.354 63.103,14.222C56.27,19.348 48.365,23.203 43.397,30.566C42.827,31.41 42.449,32.384 41.983,33.299C42.596,33.496 43.209,33.693 44.194,34.009M551.596,-241.629C551.303,-242.745 551.033,-243.769 550.764,-244.793C549.806,-244.378 548.636,-244.186 547.926,-243.51C544.023,-239.796 540.173,-236.02 536.422,-232.152C533.961,-229.614 531.697,-226.884 529.344,-224.239C533.649,-223.715 536.334,-226.896 539.068,-229.138C543.593,-232.848 550.237,-234.668 551.596,-241.629M452.225,20.863C450.219,20.498 449.031,20.305 447.853,20.062C444.369,19.345 442.703,21.924 440.739,23.962C436.471,28.392 430.15,31.158 429.154,38.242C435.291,36.575 439.237,31.793 443.826,27.924C446.275,25.86 448.73,23.801 452.225,20.863M290.913,-366.961C301.494,-369.179 310.515,-374.1 318.87,-380.244C320.105,-381.152 322.344,-382.347 320.644,-384.423C319.518,-385.799 317.909,-384.724 316.742,-383.962C308.11,-378.329 299.517,-372.636 290.913,-366.961M20.984,-366.326C29.607,-373.898 38.223,-381.478 46.861,-389.033C47.846,-389.895 49.795,-390.64 49.017,-391.969C48.28,-393.228 46.551,-392.469 45.179,-391.76C34.296,-386.136 27.959,-375.82 20.984,-366.326M204.216,-383.422C197.085,-377.963 190.675,-371.898 185.783,-364.365C184.696,-362.691 182.385,-360.564 185.369,-359.109C187.499,-358.07 190.341,-358.121 191.376,-361.578C193.858,-369.867 200.558,-375.688 204.216,-383.422M528.511,-309.028C529.268,-308.268 530.025,-307.506 530.782,-306.745C533.937,-309.541 536.866,-312.661 540.306,-315.045C544.159,-317.715 549.365,-322.991 550.06,-312.541C550.151,-311.181 550.758,-310.334 551.883,-310.435C553.869,-310.614 553.796,-312.398 553.493,-313.699C552.6,-317.531 552.594,-323.265 550.174,-324.654C546.417,-326.81 543.514,-321.693 540.534,-319.194C536.512,-315.822 532.518,-312.418 528.511,-309.028M155.446,42.889C156.861,42.062 158.186,41.445 159.334,40.59C168.028,34.121 174.461,25.08 183.656,19.151C184.255,18.764 184.256,17.452 184.535,16.571C183.613,16.836 182.539,16.882 181.79,17.399C171.996,24.162 163.04,31.947 154.356,40.058C153.607,40.758 152.792,41.649 153.742,42.646C154.092,43.014 155.01,42.841 155.446,42.889M292.469,54.449C294.983,54.449 297.501,54.551 300.008,54.424C303.281,54.258 309.757,55.97 303.173,49.408C302.572,48.809 302.826,47.367 302.651,46.322C302.356,44.556 305.321,42.64 303.561,41.642C301.659,40.563 300.082,43.303 298.365,44.379C294.569,46.759 293.762,52.97 287.958,52.689C285.503,52.569 282.112,48.25 281.056,52.735C280.554,54.868 285.599,53.935 288.172,54.171C289.601,54.302 291.037,54.356 292.469,54.449M455.689,42.326C465.716,37.502 473.783,30.334 482.346,23.845C483.732,22.796 485.523,21.471 484.558,19.724C484.236,19.14 481.015,19.4 479.731,20.225C470.432,26.196 462.033,33.226 455.689,42.326M53.362,-382.773C42.045,-373.187 30.75,-363.579 23,-350.62C35.899,-358.711 43.06,-372.227 53.362,-382.773M115.556,15.605C111.757,14.736 108.334,14.263 105.566,17.162C99.335,23.686 93.271,30.372 87.203,37.049C86.546,37.773 85.692,39.34 85.981,39.724C87.3,41.475 88.722,39.841 89.591,39.101C97.818,32.09 105.932,24.946 114.056,17.813C114.515,17.411 114.772,16.778 115.556,15.605M346.504,-383.393C345.401,-383.621 344.354,-384.209 343.689,-383.92C333.151,-379.33 323.688,-372.94 314.499,-366.131C313.949,-365.724 314.054,-364.434 313.854,-363.556C314.823,-363.766 315.794,-363.967 316.76,-364.187C328.079,-366.765 335.987,-374.864 344.781,-381.524C345.333,-381.942 345.74,-382.553 346.504,-383.393M399.419,38.126C400.583,39.369 401.747,40.612 402.912,41.854C411.125,38.326 417.166,31.406 424.648,26.727C426.62,25.493 431.022,23.621 428.539,20.744C426.864,18.803 422.533,19.478 419.617,21.905C412.98,27.427 406.163,32.733 399.419,38.126M249.847,-382.464C250.79,-385.386 250.097,-386.125 248.954,-386.187C246.48,-386.322 243.67,-387.012 241.747,-385.03C235.469,-378.558 228.503,-372.994 220.909,-368.158C220.106,-367.647 219.077,-365.954 219.312,-365.616C220.308,-364.186 221.932,-364.833 223.06,-365.502C230.75,-370.06 238.401,-374.689 245.996,-379.405C247.81,-380.531 249.365,-382.075 249.847,-382.464M247.27,-365.348C257.376,-370.099 267.191,-375.487 275.732,-382.915C276.33,-383.435 276.274,-384.705 276.522,-385.627C275.105,-385.768 273.347,-386.523 272.324,-385.955C263.153,-380.861 254.213,-375.376 246.181,-368.569C245.546,-368.031 245.501,-366.795 245.182,-365.884C245.841,-365.715 246.5,-365.546 247.27,-365.348M409.248,-361.303C420.573,-367.235 432.653,-372.1 443.026,-380.059C443.452,-380.387 443.722,-381.764 443.569,-381.86C442.752,-382.37 441.488,-383.191 440.901,-382.889C429.747,-377.149 417.342,-373.514 408.431,-363.962C407.665,-363.141 406.232,-361.64 409.248,-361.303M265.366,17.716C260.648,17.73 237.545,34.889 237.142,38.827C236.762,42.538 238.999,40.302 240.305,39.941C251.126,36.947 257.575,27.128 267.398,22.527C268.862,21.842 271.074,19.555 270.805,18.933C269.756,16.509 267.135,18.149 265.366,17.716M214.864,16.579C209.154,15.775 205.206,14.272 202.773,17.107C192.973,28.526 179.607,35.57 168.741,45.63C167.797,46.505 165.854,47.393 167.111,48.815C168.248,50.102 169.659,48.396 170.833,47.795C185.459,40.316 196.847,28.329 210.395,19.342C211.274,18.758 212.189,18.229 214.864,16.579M542.788,-21.242C542.013,-23.197 544.745,-27.634 540.635,-27.651C537.418,-27.664 537.121,-24.342 538.319,-20.941C539.717,-16.971 535.796,-15.412 533.288,-13.576C521.365,-4.853 509.182,3.55 499.102,14.496C498.116,15.568 495.505,16.419 497.387,18.59C497.597,18.832 499.795,17.62 500.863,16.809C513.476,7.223 525.875,-2.659 538.749,-11.879C542.345,-14.455 543.091,-17.144 542.788,-21.242M-5.041,-113.662L-4.999,-113.662C-4.999,-108.938 -5.061,-104.212 -4.976,-99.489C-4.923,-96.571 -3.524,-95.075 -1.222,-97.702C3.304,-102.868 7.464,-108.356 11.723,-113.751C12.14,-114.279 12.59,-115.318 12.351,-115.731C11.491,-117.22 10.51,-116.073 9.748,-115.49C8.31,-114.39 6.995,-113.133 5.597,-111.98C3.381,-110.152 1.067,-107.505 -1.858,-110.394C-4.561,-113.064 -2.81,-115.782 -0.844,-118.076C2.699,-122.209 6.384,-126.221 9.931,-130.351C10.591,-131.12 10.884,-132.204 11.347,-133.142C10.735,-133.328 9.861,-133.872 9.552,-133.645C5.302,-130.524 0.969,-127.773 -4.685,-128.892C-4.804,-125.269 -4.936,-121.647 -5.034,-118.024C-5.074,-116.571 -5.041,-115.116 -5.041,-113.662M151.673,160.152C152.651,158.163 153.132,156.71 153.985,155.523C160.682,146.196 161.853,134.718 166.148,124.46C166.904,122.654 165.865,121.452 164.198,122.492C160.597,124.739 154.312,125.37 156.599,132.014C157.925,135.865 155.656,136.835 153.328,138.804C146.962,144.185 140.99,150.032 134.875,155.708C133.476,157.007 132.278,158.796 133.51,160.418C134.62,161.878 137.452,162.257 138.486,161.092C141.999,157.139 143.702,147.654 151.673,160.152M150.232,-351.498C129.116,-351.498 107.99,-351.08 86.889,-351.627C69.351,-352.083 57.094,-342.062 44.78,-332.032C41.772,-329.582 40.764,-325.242 40.789,-321.072C41.017,-282.507 37.88,-244.058 36.778,-205.552C35.406,-157.579 33.444,-109.667 30.134,-61.792C29.383,-50.931 29.215,-39.915 30.105,-29.08C31.805,-8.396 43.757,5.043 60.938,3.451C83.558,1.355 105.947,3.789 128.419,4.116C165.153,4.65 201.893,4.788 238.632,5.603C317.152,7.345 395.7,8.013 474.217,10.326C492.598,10.868 501.158,3.063 501.006,-15.707C500.804,-40.844 502.833,-65.849 503.575,-90.92C504.94,-137.06 507.324,-183.172 508.502,-229.316C509.259,-258.942 514.492,-288.519 510.095,-318.222C507.781,-333.855 495.346,-344.687 479.328,-344.701C422.264,-344.75 365.264,-347.942 308.245,-348.599C255.564,-349.206 202.93,-352.372 150.232,-351.498M520.953,-323.512C522.328,-324.6 523.806,-325.582 525.057,-326.798C527.572,-329.241 529.964,-331.811 532.407,-334.329C532.019,-334.705 531.333,-335.442 531.286,-335.404C527.921,-332.631 522.431,-332.093 521.773,-326.446C521.651,-325.401 521.35,-324.378 521.132,-323.345C518.262,-319.929 518.824,-316.352 520.735,-312.78C520.897,-312.478 521.783,-312.564 522.333,-312.469C521.876,-315.45 521.401,-318.429 520.976,-321.415C520.879,-322.101 520.956,-322.812 520.953,-323.512M-14.529,-119.407C-13.136,-172.409 -11.652,-225.405 -10.396,-278.407C-9.95,-297.249 -10.48,-316.12 -9.827,-334.953C-8.335,-378.009 18.765,-401.788 56.11,-400.943C166.985,-398.435 277.9,-398.993 388.758,-395.756C425.47,-394.684 462.213,-395.315 498.943,-393.557C519.808,-392.557 531.46,-379.455 542.822,-365.104C561.872,-341.043 565.412,-313.128 562.058,-283.773C559.372,-260.258 560.272,-236.603 559.029,-213.025C556.045,-156.439 555.396,-99.734 553.445,-43.089C552.822,-25.013 552.319,-6.775 549.473,11.023C546.601,28.991 535.71,42.248 519.288,51.174C493.722,65.069 466.305,65.162 438.658,62.79C422.649,61.417 406.681,62.006 390.703,61.459C384.036,61.231 383.949,63.604 385.711,69.174C392.688,91.233 398.031,113.875 406.18,135.471C411.118,148.556 401.802,165.064 386.374,171.756C372.397,177.818 356.292,171.883 350.908,157.866C340.407,130.528 334.2,101.864 327.163,73.515C325.492,66.783 322.874,65.615 317.098,65.839C283.671,67.139 250.349,63.175 216.932,63.695C216.568,63.701 216.196,63.637 215.841,63.691C209.403,64.674 201.85,58.272 197.102,63.295C193.054,67.578 192.592,75.273 190.608,81.48C183.546,103.561 176.754,125.732 169.396,147.715C162.553,168.162 142.384,177.441 123.431,169.395C111.335,164.26 107.778,156.15 111.478,143.148C118.406,118.804 125.079,94.387 132.011,70.044C133.849,63.587 134.955,60.377 125.099,60.716C95.742,61.726 66.305,60.222 37.148,56.709C14.017,53.922 -9.535,28.63 -14.211,4.583C-18.145,-15.648 -16.145,-36.012 -15.988,-56.327C-15.907,-66.806 -14.84,-77.273 -14.586,-87.755C-14.33,-98.299 -14.529,-108.853 -14.529,-119.407" style="fill:rgb(16,46,108);fill-rule:nonzero;"/>
                </g>
                <g transform="matrix(1,0,0,1,-30.634,92.3148)">
                    <path d="M0,4.464C-0.768,3.487 -1.535,2.511 -2.303,1.534C-5.348,3.235 -8.299,5.142 -11.465,6.577C-14.345,7.881 -15.73,10.485 -14.288,12.566C-11.83,16.112 -10.43,11.892 -8.756,10.803C-5.739,8.841 -2.908,6.593 0,4.464M-5.445,85.052C-4.892,84.043 -5.397,82.822 -6.49,83.256C-10.202,84.731 -15.469,84.324 -16.455,89.587C-16.95,92.233 -13.25,95.521 -12.555,94.867C-9.697,92.18 -7.785,88.49 -5.445,85.052M4.658,69.94C8.74,68.061 13.54,67.345 16.887,63.912C17.696,63.082 17.744,61.274 17.707,59.928C17.676,58.788 16.501,58.029 15.498,58.703C11.087,61.669 6.518,64.496 2.57,68.008C0.889,69.503 3.252,69.822 4.658,69.94M5.292,-44.298C11.028,-47.636 16.759,-50.982 22.502,-54.308C24.391,-55.402 24.809,-57.061 23.784,-58.779C22.713,-60.572 20.967,-59.305 20.162,-58.606C14.998,-54.127 8.564,-51.006 5.292,-44.298M12.456,-14.602C18.093,-14.595 23.798,-13.125 22.391,-21.034C22.076,-22.803 22.091,-25.038 19.312,-23.646C15.074,-21.523 10.012,-19.126 9.111,-14.599C8.469,-11.371 12.02,-14.724 12.456,-14.602M5.36,-91.504C4.797,-93.24 3.671,-92.942 2.654,-92.775C-0.492,-92.259 -3.659,-91.828 -6.762,-91.119C-9.613,-90.468 -13.058,-89.299 -11.988,-85.735C-10.794,-81.758 -6.867,-84.313 -4.821,-84.832C-0.854,-85.838 2.932,-88.011 5.36,-91.504M22.348,-1.097C21.994,-2.789 22.192,-5.275 21.16,-5.993C19.492,-7.153 17.986,-5.066 16.699,-3.913C14.556,-1.993 12.515,0.046 10.481,2.084C7.975,4.593 5.519,7.152 3.041,9.69C6.851,11.334 9.297,6.929 12.556,7.343C19.223,8.19 22.873,6.242 22.348,-1.097M25.812,-71.514C25.133,-75.456 23.141,-75.856 20.387,-74.331C11.494,-69.406 4.21,-62.428 -3.229,-55.662C-3.925,-55.029 -4.962,-53.877 -3.652,-53.096C-3.082,-52.756 -1.717,-53.397 -0.892,-53.892C6.505,-58.325 13.903,-62.759 21.199,-67.355C22.973,-68.472 24.369,-70.189 25.812,-71.514M22.126,-85.577C21.24,-90.405 18.764,-90.85 15.073,-89C5.449,-84.178 -0.691,-75.481 -8.144,-68.25C-8.773,-67.641 -8.854,-66.466 -9.189,-65.553C-8.175,-65.56 -7.031,-65.256 -6.168,-65.619C3.873,-69.845 11.923,-77.193 20.896,-83.098C21.627,-83.579 21.807,-84.897 22.126,-85.577M2.581,98.701C4.254,98.701 5.336,98.649 6.412,98.71C12.041,99.027 16.877,97.363 17.628,91.261C18.208,86.542 20.435,79.321 16.307,77.421C12.429,75.636 7.993,81.596 4.405,85.034C2.847,86.528 1.22,87.972 -0.177,89.607C-2.209,91.986 -6.561,93.939 -5.482,97.02C-4.296,100.407 0.186,98.21 2.581,98.701M20.201,26.869C19.278,23.699 21.601,18.936 19.245,14.492C15.564,17.261 11.88,20.027 8.204,22.802C7.624,23.24 7.01,23.661 6.525,24.192C4.921,25.947 1.306,27.506 2.613,29.756C3.79,31.783 6.246,28.759 8.134,28.03C11.27,26.819 14.98,25.236 17.109,28.346C19.465,31.79 15.875,34.279 13.577,36.485C7.031,42.773 0.377,48.948 -6.218,55.185C-6.989,55.914 -8.299,56.796 -8.243,57.521C-8.137,58.895 -6.846,58.207 -5.893,58.088C9.285,56.195 20.002,43.951 20.201,26.869M-8.352,-21.534C1.25,-26.426 10.764,-31.503 20.497,-36.117C24.389,-37.962 25.34,-41.186 23.879,-44.02C21.696,-48.256 18.696,-44.051 17.313,-42.886C8.814,-35.729 -1.702,-30.924 -8.166,-21.383C-9.601,-20.334 -11.115,-19.376 -12.456,-18.218C-15.335,-15.732 -15.063,-12.36 -14.4,-9.179C-13.948,-7.012 -12.05,-7.891 -11.152,-8.796C-8.571,-11.397 -3.939,-13.366 -7.631,-18.396C-8.214,-19.191 -8.129,-20.476 -8.352,-21.534M35.868,-57.349C33.702,-17.874 31.489,21.598 29.408,61.077C28.949,69.781 29.161,78.521 28.708,87.226C27.965,101.479 21.834,107.342 7.514,107.498C-2.086,107.602 -12.125,109.955 -19.995,101.248C-23.622,97.235 -25.736,93.325 -25.709,87.785C-25.453,36.547 -25.459,-14.692 -25.167,-65.93C-25.128,-72.777 -23.938,-79.626 -23.096,-86.452C-22.879,-88.21 -22.215,-90.034 -21.314,-91.569C-13.138,-105.491 0.573,-102.278 12.897,-101.839C22.576,-101.495 30.169,-96.722 32.975,-86.478C35.593,-76.919 35.903,-67.181 35.868,-57.349" style="fill:rgb(242,113,45);fill-rule:nonzero;"/>
                </g>
                <g transform="matrix(1,0,0,1,165.832,35.3798)">
                    <path d="M0,133.732C-0.958,134.432 -2.643,135.191 -3.602,136.487C-4.761,138.053 -2.906,137.968 -2.107,138.036C-0.263,138.195 1.363,137.588 2.025,135.702C2.398,134.64 2.036,133.705 0,133.732M-31.47,9.825C-30.758,10.196 -29.764,11.142 -29.195,10.933C-27.223,10.208 -25.625,8.82 -25.014,6.702C-24.967,6.539 -26.639,5.429 -27.122,5.642C-28.902,6.428 -31.243,6.8 -31.47,9.825M0.689,-12.66C0.997,-14.504 -0.278,-14.455 -1.162,-14.487C-6.603,-14.682 -10.035,-10.667 -14.151,-8.107C-14.415,-7.942 -14.282,-7.139 -14.334,-6.633C-13.012,-6.822 -11.538,-6.7 -10.397,-7.259C-6.666,-9.089 -2.256,-9.609 0.689,-12.66M-11.536,155.638C-6.531,156.131 -2.971,154.445 -2.154,149.311C-1.882,147.606 -3.718,146.94 -5.11,147.635C-8.866,149.509 -13.575,150.866 -15.795,153.949C-17.34,156.095 -12.95,154.953 -11.536,155.638M-16.382,111.372C-9.4,110.734 -4.292,108.374 0.817,106.201C2.528,105.474 3.25,103.38 2.586,101.554C1.605,98.857 -0.453,100.506 -1.739,101.136C-6.733,103.584 -11.666,106.201 -16.382,111.372M-16.532,93.219C-8.536,90.163 -2.973,88.085 2.548,85.901C4.573,85.1 5.241,83.196 4.368,81.463C3.154,79.051 1.191,80.675 -0.174,81.468C-5.149,84.356 -10.496,86.732 -16.532,93.219M-17.782,131.044C-10.904,129.438 -5.254,128.425 0.189,126.742C3.867,125.604 3.178,121.873 2.432,119.346C1.093,114.813 -1.585,118.251 -3.321,119.174C-8.077,121.702 -12.626,124.618 -17.27,127.357C-18.564,128.121 -19.639,129.172 -19.315,130.661C-19.225,131.075 -17.431,131.118 -17.782,131.044M-21.74,80.447C-13.21,76.936 -4.886,73.651 3.299,70.051C5.628,69.025 5.498,66.31 4.764,64.336C3.829,61.818 1.637,63.182 0.338,63.953C-7.345,68.514 -14.93,73.242 -22.499,77.991C-23.226,78.448 -24.322,79.305 -23.339,80.396C-23.044,80.724 -22.078,80.447 -21.74,80.447M-18.376,13.136C-10.607,9.334 -2.816,5.575 4.917,1.699C6.982,0.664 8.394,-0.896 7.15,-3.521C5.721,-6.535 3.969,-5.462 2.013,-4.106C-5.361,1.007 -13.325,5.338 -18.376,13.136M7.393,30.593C7.583,26.785 6.452,25.222 2.496,27.785C-0.205,29.534 -3.334,30.646 -5.949,32.497C-10.561,35.764 -15.883,38.116 -19.516,42.688C-13.128,43.954 -8.609,39.188 -3.104,37.598C-0.721,36.91 1.596,35.953 4.011,35.43C6.681,34.852 7.45,33.175 7.393,30.593M-23.243,63.621C-14.393,59.876 -5.523,56.178 3.297,52.364C6.916,50.799 8.344,47.472 6.587,44.322C4.383,40.37 1.235,43.943 -0.717,45.098C-9.034,50.019 -16.993,55.523 -23.243,63.621M9.018,10.917C8.106,6.721 5.177,9.296 3.525,10.193C-6.315,15.533 -15.07,22.481 -23.869,29.339C-24.813,30.075 -26.763,30.829 -25.441,32.354C-25.012,32.85 -22.792,32.213 -21.65,31.606C-12.766,26.893 -3.911,22.121 4.873,17.223C7.08,15.992 9.033,14.266 9.018,10.917M-47.336,111.201C-45.234,76.639 -43.437,39.307 -40.534,2.06C-38.556,-23.322 -14.77,-34.552 7.52,-21.4C14.201,-17.458 18.336,-11.569 18.065,-3.562C16.948,29.434 15.933,62.437 14.303,95.409C13.588,109.874 14.856,124.47 11.745,138.818C11.137,141.622 11.04,144.464 9.913,147.241C6.966,154.5 6.287,163.87 -3.12,165.802C-15.196,168.284 -27.728,167.01 -37.237,158.978C-44.725,152.653 -45.422,141.813 -47.132,132.443C-48.223,126.465 -47.336,120.126 -47.336,111.201" style="fill:rgb(242,113,45);fill-rule:nonzero;"/>
                </g>
                <g transform="matrix(1,0,0,1,69.1683,191.4)">
                    <path d="M0,-113.327C-1.702,-116.099 -4.501,-115.705 -6.848,-115.766C-11.355,-115.882 -10.405,-111.132 -12.234,-108.819C-12.96,-107.9 -10.942,-107.56 -10.132,-107.973C-6.758,-109.698 -2.614,-110.037 0,-113.327M-3.981,-8.931C-1.189,-11.579 5.27,-8.527 6.274,-15.106C6.514,-16.678 5.376,-18.15 3.728,-17.619C-0.609,-16.22 -5.193,-14.689 -7.598,-10.575C-8.454,-9.11 -5.741,-9.444 -3.981,-8.931M-6.223,-57.799C-5.585,-58.111 -4.93,-58.39 -4.313,-58.738C-0.128,-61.099 5.535,-61.364 7.482,-66.837C7.715,-67.49 6.507,-69.427 6.231,-69.375C0.75,-68.338 -3.177,-64.702 -7.004,-61.003C-7.651,-60.377 -7.788,-59.224 -8.161,-58.315C-7.516,-58.143 -6.871,-57.972 -6.223,-57.799M-13.215,-39.888C-6.023,-40.625 -0.78,-43.889 4.788,-46.146C7.833,-47.38 8.402,-50.136 7.153,-52.395C5.675,-55.069 3.198,-52.917 1.78,-51.85C-3.017,-48.242 -8.73,-45.744 -13.215,-39.888M7.279,-32.944C4.515,-37.605 1.532,-33.707 -0.97,-32.256C-5.548,-29.6 -11.015,-28.116 -13.974,-23.133C-7.962,-21.226 -3.183,-25.642 2.296,-26.273C6.219,-26.725 6.711,-29.303 7.279,-32.944M-22.536,-64.03C-9.842,-67.387 -1.851,-75.599 7.822,-80.545C9.777,-81.544 10.657,-85.284 8.855,-87.381C7.274,-89.219 4.978,-87.496 3.213,-86.37C-5.883,-80.564 -14.901,-74.662 -22.536,-64.03M9.89,-103.839C10.339,-107.989 8.154,-108.925 4.858,-107.051C-4.215,-101.892 -12.7,-95.851 -20.432,-88.823C-21.342,-87.996 -22.272,-86.048 -21.894,-85.199C-21.222,-83.692 -19.488,-84.458 -18.141,-84.948C-9.345,-88.141 -1.075,-92.424 6.963,-97.163C9.383,-98.59 10.051,-101.008 9.89,-103.839M18.676,-54.923C18.678,-38.577 18.771,-22.23 18.65,-5.885C18.542,8.731 14.381,12.727 -0.267,12.752C-2.81,12.756 -5.372,12.891 -7.893,12.644C-28.784,10.597 -33.64,5.76 -33.999,-15.083C-34.536,-46.235 -34.259,-77.381 -31.61,-108.471C-31.05,-115.046 -28.205,-119.315 -22.275,-121.791C-11.675,-126.218 -0.977,-125.479 9.498,-121.73C16.529,-119.213 18.835,-113.436 18.743,-106.133C18.528,-89.065 18.675,-71.993 18.676,-54.923" style="fill:rgb(242,113,45);fill-rule:nonzero;"/>
                </g>
                <g transform="matrix(1,0,0,1,-135.142,116.732)">
                    <path d="M0,53.168C-1.86,53.492 -1.826,54.96 -1.811,56.313C-1.79,58.216 -0.908,59.851 1.059,59.877C2.849,59.9 2.976,58.195 2.674,56.801C2.335,55.239 2.486,53.19 0,53.168M2.925,-10.903C5.228,-11.755 8.469,-14.769 10.469,-18.358C11.293,-19.835 7.879,-19.535 6.403,-19.499C1.702,-19.385 -0.404,-16.145 -1.447,-12.135C-1.934,-10.265 -0.678,-9.722 2.925,-10.903M5.049,-4.484C13.624,-5.526 19.586,-9.825 26.209,-12.17C28.338,-12.924 32.385,-13.593 31.28,-16.414C30.047,-19.565 25.953,-20.454 22.831,-18.569C16.757,-14.901 10.798,-10.957 5.049,-4.484M3.313,13.153C14.434,10.764 22.218,5.088 30.409,0.26C32.655,-1.064 33.478,-2.93 32.041,-5.022C30.585,-7.141 28.907,-5.429 27.488,-4.538C19.468,0.496 10.959,4.875 3.313,13.153M30.677,36.087C30.112,33.832 32.802,29.208 28.879,27.358C25.754,25.885 23.471,30.126 20.583,31.421C18.331,32.432 16.422,34.244 14.426,35.784C12.827,37.018 9.675,38.33 10.878,40.237C12.259,42.426 14.5,39.292 16.522,39.001C17.862,38.808 19.084,37.778 20.356,37.116C22.624,35.935 25.076,34.407 26.966,37.391C28.776,40.249 26.377,42.044 24.626,43.758C23.611,44.753 22.115,45.258 21.106,46.258C18.049,49.289 18.696,50.797 22.818,49.155C25.732,47.995 30.756,49.28 30.682,43.663C30.653,41.494 30.677,39.325 30.677,36.087M6.016,28.178C15.242,25.078 23.728,21.217 31.26,15.695C32.887,14.502 33.881,10.977 31.898,8.811C30.562,7.352 28.41,8.752 27.044,9.657C19.853,14.422 12.762,19.341 5.705,24.303C4.903,24.867 4.525,26.035 3.951,26.923C4.709,27.384 5.468,27.845 6.016,28.178M30.2,62.814C30.334,60.697 31.111,58.058 29,56.884C26.958,55.748 24.985,57.369 23.278,58.812C19.447,62.05 15.486,65.134 11.675,68.394C9.76,70.032 9.191,71.943 11.801,73.529C18.027,77.311 30.034,70.306 30.2,62.814M-12.625,27.33C-12.017,15.055 -11.532,2.772 -10.766,-9.494C-9.992,-21.884 -4.543,-28.27 7.663,-29.933C17.925,-31.331 27.916,-28.792 37.381,-24.934C43.329,-22.509 44.501,-16.902 43.698,-11.171C40.159,14.097 42.061,39.635 39.671,64.982C38.315,79.354 35.649,82.498 21.383,83.148C-8.295,84.499 -14.119,78.668 -12.881,49.162C-12.576,41.899 -12.836,34.612 -12.836,27.337C-12.765,27.335 -12.695,27.333 -12.625,27.33" style="fill:rgb(242,113,45);fill-rule:nonzero;"/>
                </g>
            </g>
        </g>
        <g id="Слой-2" serif:id="Слой 2">
        </g>
        <g id="Слой-3" serif:id="Слой 3">
        </g>
        <g id="Слой-4" serif:id="Слой 4">
        </g>
        <g id="Слой-5" serif:id="Слой 5">
        </g>
        <g id="Режим-изоляции8" serif:id="Режим изоляции">
        </g>
    </g>
</svg>
