<?xml version="1.0" encoding="UTF-8" standalone="no"?>
<!DOCTYPE svg PUBLIC "-//W3C//DTD SVG 1.1//EN" "http://www.w3.org/Graphics/SVG/1.1/DTD/svg11.dtd">
<svg width="100%" height="100%" viewBox="0 0 1341 1288" version="1.1" xmlns="http://www.w3.org/2000/svg" xmlns:xlink="http://www.w3.org/1999/xlink" xml:space="preserve" xmlns:serif="http://www.serif.com/" style="fill-rule:evenodd;clip-rule:evenodd;stroke-linejoin:round;stroke-miterlimit:2;">
    <g transform="matrix(1,0,0,1,-8584.09,-18.7515)">
        <g id="Слой-6" serif:id="Слой 6">
        </g>
        <g id="Режим-изоляции" serif:id="Режим изоляции">
        </g>
        <g id="Режим-изоляции1" serif:id="Режим изоляции">
        </g>
        <g id="Режим-изоляции2" serif:id="Режим изоляции">
        </g>
        <g id="Режим-изоляции3" serif:id="Режим изоляции">
        </g>
        <g id="Page-6" serif:id="Page 6" transform="matrix(1.19971,0,0,1.53689,8584.09,18.7515)">
            <rect x="0" y="0" width="1117.09" height="837.818" style="fill:none;"/>
            <clipPath id="_clip1">
                <rect x="0" y="0" width="1117.09" height="837.818"/>
            </clipPath>
            <g clip-path="url(#_clip1)">
                <g transform="matrix(1.66707,0,0,1.30133,17.8459,689.485)">
                    <path d="M178.153,48.43C197.885,48.43 217.635,48.928 237.343,48.231C248.02,47.853 254.669,52.722 258.859,61.324C264.567,73.046 264.956,85.205 258.348,96.868C254.14,104.295 247.191,107.188 238.847,107.673C186.768,110.697 134.7,107.261 82.629,107.172C55.528,107.126 30.784,98.186 13.391,75.456C0.338,58.397 -5.743,38.607 -8.199,17.485C-10.407,-1.505 -6.44,-20.272 -6.602,-39.215C-7.404,-133.158 -8.477,-227.099 -8.529,-321.05C-8.543,-346.461 -8.543,-371.9 -10.426,-397.382C-12.781,-429.251 -0.231,-455.518 27.564,-472.82C38.629,-479.708 51.608,-482.501 64.434,-483.347C80.926,-484.436 97.3,-486.927 113.88,-487.15C118.875,-487.217 121.787,-486.011 123.618,-481.697C129.519,-467.791 129.341,-453.246 127.642,-438.676C126.894,-432.265 121.075,-432.278 116.324,-431.791C109.55,-431.095 102.728,-430.88 95.933,-430.365C73.18,-428.638 59.79,-414.619 58.326,-391.627C57.399,-377.075 57.452,-362.594 57.804,-347.999C58.8,-306.629 57.808,-265.208 58.958,-223.845C60.088,-183.192 58.682,-142.523 60.284,-101.913C61.542,-70.035 60.233,-38.155 61.429,-6.32C62.694,27.37 77.873,46.201 115.309,48.097C136.207,49.156 157.202,48.287 178.153,48.287L178.153,48.43ZM36.567,-430.365C23.392,-420.98 13.97,-410.662 11.682,-403.21C20.314,-411.801 29.059,-420.016 36.567,-430.365ZM19.056,-11.276C29.059,-21.152 40.572,-29.294 50.98,-38.704C37.923,-32.339 27.467,-22.983 19.056,-11.276ZM47.745,78.799C61.87,70.097 70.693,58.886 80.134,48.315C69.735,57.897 57.494,65.576 47.745,78.799ZM52.309,11.292C41.836,17.77 31.374,24.326 23.604,34.281C34.161,27.916 45.407,22.458 52.309,11.292ZM2.392,-212.301C11.433,-223.415 23.138,-229.875 32.332,-239.205C23.156,-234.041 14.372,-228.401 5.56,-222.803C2.105,-220.608 0.446,-217.787 2.392,-212.301ZM0,-376.52C4.229,-382.326 9.988,-385.363 10.855,-392.026C7.672,-387.079 -0.381,-385.742 0,-376.52ZM149.143,56.825C144.858,56.769 139.915,54.568 136.864,57.896C128.204,67.342 117.299,74.677 109.994,87.173C116.184,82.884 120.443,78.341 124.627,73.56C131.302,65.932 137.561,57.316 149.143,56.825ZM49.494,-262.734C43.174,-257.962 37.95,-253.515 32.88,-247.542C48.708,-253.348 50.112,-254.585 49.494,-262.734ZM12.727,-137.588C24.564,-149.314 37.454,-159.899 49.423,-171.482C36.121,-161.346 21.344,-152.812 12.727,-137.588ZM51.485,-91.656C40.105,-84.673 27.654,-78.971 20.808,-66.567C31.283,-74.631 43.278,-80.879 51.485,-91.656ZM159.426,63.691C150.348,72.035 140.293,79.379 132.829,89.376C143.718,82.886 151.068,72.773 159.426,63.691ZM125.82,56.957C122.199,58.038 116.56,53.724 115.711,58.798C114.956,63.309 112.541,65.593 109.935,68.206C105.569,72.586 100.952,76.717 96.441,80.952C97.05,81.593 97.658,82.233 98.267,82.874C106.875,73.704 117.13,66.446 125.82,56.957ZM51.671,-75.077L50.516,-76.751C41.015,-71.266 31.988,-65.139 24.87,-56.409C33.803,-62.632 42.737,-68.854 51.671,-75.077ZM49.686,-349.464C49.168,-349.992 48.65,-350.52 48.133,-351.048L24.318,-327.671C32.706,-335.001 40.04,-343.404 49.686,-349.464ZM7.049,15.651C3.176,15.613 3.674,18.416 4.094,20.691C4.546,23.138 3.65,28.078 5.553,27.595C9.565,26.575 8.239,21.243 9.697,17.911C10.543,15.978 8.536,15.752 7.049,15.651ZM-0.02,-327.663C2.751,-332.289 4.617,-334.851 5.883,-337.682C7.016,-340.213 6.101,-342.923 3.379,-343.561C0.417,-344.255 0.074,-341.527 0.005,-339.323C-0.094,-336.188 -0.02,-333.046 -0.02,-327.663ZM22.504,-396.309C32.87,-409.371 43.237,-422.432 53.603,-435.494C41.117,-424.15 28.359,-413.025 22.504,-396.309ZM13.413,-87.401C24.955,-96.103 35.581,-106.075 48.1,-113.609C51.283,-115.524 51.15,-115.746 50.234,-120.439C36.025,-111.539 24.555,-99.72 13.413,-87.401ZM10.534,-297.797C23.402,-308.706 34.123,-321.991 47.388,-332.624C49.03,-333.941 49.23,-335.905 47.632,-338.801C35.156,-324.934 20.311,-313.855 10.534,-297.797ZM30.91,-36.259C36.782,-40.041 40.616,-43.199 44.986,-45.166C52.099,-48.369 52.133,-54.097 51.731,-60.362C51.526,-63.569 50.404,-64.316 47.696,-62.379C36.546,-54.403 25.591,-46.199 14.88,-35.554C18.974,-36.578 20.783,-38.519 22.751,-40.191C28.85,-45.374 34.895,-50.619 41.035,-55.751C42.873,-57.287 45.096,-59.25 47.354,-56.714C49.916,-53.839 47.44,-51.75 45.443,-50.04C40.852,-46.109 35.933,-42.545 30.91,-36.259ZM14.759,4.802C22.733,2.139 28.718,-3.306 35.326,-7.758C40.141,-11.002 44.632,-14.722 49.366,-18.091C51.709,-19.758 52.886,-22.348 51.412,-24.31C49.502,-26.853 47.68,-23.867 46.171,-22.737C42.488,-19.974 38.9,-17.067 35.437,-14.032C28.408,-7.874 20.128,-3.093 14.759,4.802ZM50.421,-200.811L49.134,-202.398C36.7,-191.241 24.266,-180.083 11.832,-168.925C12.068,-168.66 12.304,-168.396 12.54,-168.131C25.167,-179.024 37.794,-189.917 50.421,-200.811ZM16.925,-120.206C17.419,-119.748 17.911,-119.291 18.405,-118.833C28.791,-128.604 40.395,-136.975 51.559,-145.852C50.954,-146.554 50.348,-147.256 49.743,-147.958C38.804,-138.707 27.864,-129.456 16.925,-120.206ZM23.772,13.592C31.015,6.913 38.642,1.019 47.603,-3.016C49.243,-3.755 50.861,-5.225 49.807,-6.961C48.483,-9.143 46.909,-7.145 45.613,-6.314C37.195,-0.917 30.035,5.899 23.772,13.592ZM253.736,77.275C252.289,78.351 251.48,78.862 250.776,79.492C247.898,82.07 245.053,84.684 241.904,87.55C244.166,88.603 244.76,87.129 245.765,86.806C247.716,86.177 249.973,84.17 251.432,87.069C252.615,89.419 250.105,90.394 248.679,91.506C246.267,93.385 243.701,95.068 240.622,97.241C250.62,97.609 255.719,89.714 253.736,77.275ZM52.015,-131.836C51.401,-132.585 50.786,-133.334 50.172,-134.083C40.572,-126.521 30.052,-120.106 22.537,-109.918L52.015,-131.836ZM49.494,-189.823C32.851,-177.884 19.851,-163.597 6.15,-147.677C11.908,-149.728 14.723,-152.996 17.555,-156.172C25.516,-165.104 33.658,-173.971 44.911,-178.682C50.114,-180.86 51.462,-183.667 49.494,-189.823ZM32.816,44.802C40.944,37.616 49.072,30.429 57.2,23.243C56.688,22.668 56.176,22.094 55.663,21.519C46.824,27.783 39.625,35.916 32.816,44.802ZM0.3,-357.377C5.851,-364.96 12.217,-372.075 14.447,-381.563C8.295,-374.326 2.579,-366.838 0.3,-357.377ZM38.171,74.957C48.586,67.63 53.041,63.061 57.038,55.789C50.255,61.45 42.889,66.186 38.171,74.957ZM11.734,-254.693C7.952,-251.426 3.455,-248.869 2.009,-243.143C5.251,-246.993 8.492,-250.843 11.734,-254.693ZM28.454,-273.94C34.431,-277.557 40.355,-281.264 46.408,-284.749C49.074,-286.284 49.888,-288.672 48.291,-290.711C46.584,-292.892 44.912,-290.335 43.564,-289.229C37.985,-284.649 32.312,-280.155 28.454,-273.94ZM24.953,-250.706C16.608,-245.123 7.554,-240.205 2.033,-231.21C11.236,-235.803 16.683,-244.875 24.953,-250.706ZM57.97,-441.774C68.268,-452.879 77.546,-465.039 89.077,-475.128C73.815,-468.681 67.106,-454.121 57.97,-441.774ZM657.757,-299.478C657.757,-272.065 657.817,-253.566 657.733,-235.068C657.687,-224.988 654.339,-221.785 644.115,-221.175C630.903,-220.387 618.084,-224.085 604.952,-224.476C600.066,-224.622 598.135,-228.311 597.771,-233.633C596.658,-249.914 599.014,-266.07 598.723,-282.32C598.239,-309.31 599.041,-336.334 598.107,-363.302C597.589,-378.233 595.751,-393.132 587.248,-406.581C578.531,-420.367 566.148,-426.804 550.696,-428.712C538.186,-430.258 525.615,-431.342 513.139,-433.109C505.152,-434.24 500.209,-443.053 502.707,-450.533C503.993,-454.384 503.224,-458.23 502.599,-462.075C502.404,-463.274 502.271,-464.487 502.176,-465.699C500.365,-488.701 501.859,-490.864 524.566,-490.058C542.662,-489.416 560.791,-489.344 578.855,-486.869C606.795,-483.041 626.559,-467.994 641.072,-444.713C650.888,-428.967 653.83,-411.533 654.994,-393.362C657.187,-359.119 658.004,-324.861 657.757,-299.478ZM562.932,-476.484C548.42,-466.342 531.792,-459.677 517.72,-448.677C533.97,-455.957 548.52,-466.099 562.932,-476.484ZM644.573,-388.719C638.121,-387.644 632.523,-384.699 627.591,-380.432C634.031,-381.494 639.376,-384.87 644.573,-388.719ZM647.179,-244.558C650.156,-249.368 650.981,-254.893 648.491,-255.697C644.358,-257.032 640.384,-252.939 634.92,-250.377C640.725,-249.897 647.655,-257.028 647.179,-244.558ZM637.095,-230.233C641.064,-228.563 644.421,-230.486 647.705,-231.364C649.989,-231.974 650.121,-234.54 649.283,-236.269C648.362,-238.171 646.669,-236.777 645.635,-235.995C643.021,-234.019 639.271,-233.741 637.095,-230.233ZM605.762,-415.291C613.318,-419.462 620.874,-423.633 628.43,-427.805C619.873,-425.596 612.102,-421.831 605.762,-415.291ZM649.149,-267.245C641.753,-266.512 635.415,-263.218 629.466,-258.982C635.976,-261.86 643.597,-262.047 649.149,-267.245ZM624.082,-350.904C624.239,-350.573 624.397,-350.241 624.555,-349.91C631.903,-352.905 639.259,-355.88 646.592,-358.914C647.667,-359.358 649.205,-359.923 648.749,-361.373C648.086,-363.481 646.458,-362.551 645.206,-361.905C638.15,-358.266 631.12,-354.577 624.082,-350.904ZM648.596,-286.337C638.076,-284.789 628.72,-280.454 620.45,-273.81C629.832,-277.986 639.214,-282.161 648.596,-286.337ZM620.9,-231.89C617.384,-233.668 612.978,-237.465 608.036,-232.72C612.674,-232.421 617.313,-232.122 620.9,-231.89ZM648.859,-276.539C641.116,-276.719 624.244,-268.673 619.546,-263.348C629.748,-266.675 638.616,-273.08 648.859,-276.539ZM617.418,-301.231C627.903,-305.036 636.963,-308.256 645.957,-311.648C647.622,-312.276 650.229,-313.208 648.931,-315.644C647.988,-317.414 645.894,-316.129 644.395,-315.493C635.547,-311.737 626.176,-309.009 617.418,-301.231ZM561.809,-446.796C574.203,-451.399 584.571,-459.572 596.09,-465.7C598.404,-466.931 603.673,-468.021 602.19,-470.164C599.415,-474.173 598.169,-468.267 595.912,-467.285C591.939,-465.556 588.374,-462.915 584.472,-460.994C576.428,-457.035 568.626,-452.723 561.809,-446.796ZM644.688,-397.6C632.88,-392.271 621.362,-386.441 611.305,-378.094C621.876,-385.555 633.702,-390.854 644.688,-397.6ZM648.151,-370.808C638.176,-368.639 628.707,-365.125 619.209,-358.032C630.408,-361.137 639.235,-365.983 648.151,-370.808ZM547.683,-478.835C547.464,-479.201 547.218,-479.808 547.096,-479.784C534.307,-477.264 527.588,-466.667 518.993,-458.539C527.771,-466.385 537.538,-472.817 547.683,-478.835ZM313.918,-431.111C287.442,-430.328 260.969,-429.427 234.488,-428.817C223.431,-428.562 222.028,-430.904 221.094,-441.975C220.089,-453.892 221.243,-465.701 221.187,-477.556C221.162,-482.816 223.376,-485.732 228.476,-486.764C236.102,-488.307 243.754,-489.539 251.561,-489.54C276.868,-489.544 302.192,-488.979 327.475,-489.746C345.935,-490.305 364.38,-491.352 382.851,-490.904C394.255,-490.628 405.66,-490.059 417.042,-489.288C427.01,-488.613 428.069,-486.723 430.011,-476.316C432.337,-463.849 428.682,-451.623 429.51,-439.255C429.737,-435.856 427.582,-433.97 423.862,-434.262C392.708,-436.705 361.802,-430.323 330.673,-431.616C325.094,-431.848 319.498,-431.649 313.91,-431.649C313.912,-431.47 313.915,-431.29 313.918,-431.111ZM284.994,-479.06C271.192,-471.614 258.429,-462.607 245.911,-450.453C261.691,-458.047 271.956,-470.397 284.994,-479.06ZM354.8,-482.403C340.187,-475.195 328.1,-464.45 316.049,-453.647C330.263,-461.407 341.295,-473.558 354.8,-482.403ZM391.969,-457.405L392.776,-456.154C402.184,-462.3 411.592,-468.445 420.999,-474.591L419.991,-476.136C410.65,-469.893 401.31,-463.649 391.969,-457.405ZM268.749,-479.63C256.212,-471.971 243.567,-464.402 232.864,-451.694C247.382,-459.409 257.909,-469.717 268.749,-479.63Z" style="fill:rgb(16,46,108);"/>
                </g>
                <g transform="matrix(1.66707,0,0,1.30133,788.498,792.309)">
                    <path d="M71.126,-198.051C71.126,-185.45 69.932,-164.415 71.757,-143.647C72.417,-136.137 71.348,-129.307 71.206,-122.14C70.416,-82.265 70.157,-42.379 69.561,-2.5C69.456,4.539 68.629,11.568 68.112,18.599C67.743,23.605 64.926,26.694 60.217,27.908C56.7,28.814 53.07,29.851 49.489,29.853C24.925,29.871 0.333,30.879 -24.183,28.424C-35.366,27.304 -39.916,22.04 -40.757,11.017C-41.353,3.204 -39.325,-4.87 -42.896,-12.474C-43.358,-13.46 -42.433,-15.281 -41.811,-16.55C-40.797,-18.618 -39.748,-21.769 -40.97,-22.771C-48.242,-28.73 -42.919,-36.742 -42.287,-42.172C-41.281,-50.811 -42.942,-58.877 -42.711,-67.147C-41.616,-106.3 -41.98,-145.415 -43.205,-184.561C-44.133,-214.227 -43.797,-243.933 -43.988,-273.622C-44.034,-280.706 -40.579,-284.77 -33.545,-286.405C-15.415,-290.617 2.789,-287.535 20.945,-287.213C30.885,-287.037 40.799,-285.662 50.734,-284.959C55.141,-284.648 59.398,-283.749 63.574,-282.406C69.65,-280.451 72.661,-276.326 72.583,-269.851C72.329,-248.692 72.947,-227.519 71.126,-198.051ZM-34.88,-243.272C-35.903,-236.784 -35.827,-230.237 -35.036,-222.95C-31.5,-225.193 -28.881,-226.854 -25.518,-228.988C-28.878,-229.635 -33.973,-226.333 -32.842,-229.57C-30.991,-234.864 -34.955,-238.829 -34.88,-243.272ZM63.707,-167.515C62.27,-170.016 66.292,-174.592 61.347,-175.275C57.981,-175.741 55.138,-171.98 55.808,-168.938C56.533,-165.64 56.504,-159.888 60.949,-159.824C65.848,-159.753 62.358,-164.881 63.707,-167.515ZM52.365,-138.896C41.96,-135.033 32.359,-129.93 22.553,-121.832C34.221,-125.022 45.354,-131.366 52.365,-138.896ZM58.212,-68.668C42.997,-64.956 31.803,-54.368 19.249,-46.071C25.914,-49.425 32.495,-52.952 38.704,-57.043C45.047,-61.222 53.872,-60.909 58.212,-68.668ZM50.221,-181.281C63.067,-182.653 68.676,-191.818 64.507,-202.167C63.922,-203.619 63.149,-204.068 61.796,-203.645C60.624,-203.279 59.142,-202.597 59.396,-201.318C61.04,-193.022 58.592,-186.409 50.221,-181.281ZM58.794,-21.937C48.749,-22.348 42.055,-15.938 34.464,-11.426C32.859,-10.472 29.558,-9.532 31.418,-6.812C32.909,-4.631 35.518,-6.13 37.296,-7.311C44.514,-12.108 51.636,-17.049 58.794,-21.937ZM27.474,-236.772C30.217,-237.792 31.09,-238.074 31.928,-238.435C42.097,-242.807 51.427,-249.196 62.585,-251.181C64.992,-251.609 64.917,-253.376 64.604,-255.065C64.128,-257.633 62.291,-257.156 60.686,-256.391C49.652,-251.132 38.644,-245.815 27.474,-236.772ZM0,-259.738C-7.223,-257.137 -14.079,-253.954 -20.64,-246.894C-11.644,-250.09 -5.486,-254.382 0,-259.738ZM5.213,-137.248C4.89,-137.753 4.567,-138.259 4.243,-138.764C-3.592,-135.925 -9.724,-130.418 -15.626,-124.535C-8.68,-128.772 -1.733,-133.01 5.213,-137.248ZM52.287,-270.737C58.51,-272.621 62.947,-272.19 63.141,-264.218C66.021,-269.085 65.047,-272.696 61.004,-274.752C57.559,-276.505 53.447,-277.476 52.287,-270.737ZM-33.569,-159.014C-27.894,-172.139 -15.162,-173.32 -5.839,-182.296C-15.642,-177.169 -23.537,-172.979 -31.493,-168.907C-35.335,-166.942 -34.321,-163.997 -33.569,-159.014ZM-27.005,-188.612C-32.951,-187.078 -35.963,-184.852 -35.183,-179.583C-34.95,-178.01 -35.944,-175.248 -33.886,-175.332C-30.213,-175.484 -27.628,-178.467 -24.153,-181.171C-28.4,-182.263 -29.975,-184.464 -27.005,-188.612ZM-29.222,-36.105C-19.402,-40.416 -9.394,-44.46 -1.105,-51.589C-11.38,-48.114 -20.599,-42.689 -29.222,-36.105ZM24.286,-142.79C24.85,-142.091 25.413,-141.392 25.977,-140.693C34.257,-146.195 42.298,-151.991 49.156,-159.246C48.744,-159.765 48.333,-160.285 47.922,-160.804C40.043,-154.8 32.164,-148.795 24.286,-142.79ZM-16.232,-115.207C-0.747,-120.599 6.532,-125.054 11.251,-131.695C1.583,-126.684 -8.349,-122.717 -16.232,-115.207ZM-26.973,-22.197C-26.753,-21.84 -26.532,-21.483 -26.311,-21.126C-18.612,-25.322 -10.926,-29.543 -3.205,-33.697C-1.013,-34.877 -0.7,-36.363 -2.016,-38.367C-3.482,-40.599 -4.502,-38.517 -5.402,-37.874C-12.635,-32.707 -19.793,-27.436 -26.973,-22.197ZM0.065,-76.812C-0.301,-77.432 -0.668,-78.051 -1.034,-78.671C-9.229,-74.894 -16.183,-69.117 -23.095,-63.238C-15.374,-67.762 -7.654,-72.287 0.065,-76.812ZM-2.889,-22.587C5.573,-28.941 16.821,-30.105 24.72,-37.508C15.601,-32.377 4.611,-30.732 -2.889,-22.587ZM-25.334,-51.135C-17.053,-53.282 -8.293,-54.713 -3.843,-65.466C-11.893,-60.098 -18.613,-55.616 -25.334,-51.135ZM18.856,-156.676C28.94,-152.491 33.518,-161.833 40.535,-165.627C33.308,-162.644 26.082,-159.66 18.856,-156.676ZM-20.356,-89.906C-13.761,-93.331 -7.155,-96.739 -0.578,-100.199C0.632,-100.836 2.535,-101.455 1.532,-103.271C0.684,-104.808 -1.005,-104.261 -2.332,-103.541C-8.927,-99.967 -14.939,-95.555 -20.356,-89.906ZM19.849,18.121C36.137,14.454 44.138,-2.241 61.385,-4.098C54.239,-7.666 39.495,0.546 19.849,18.121ZM-29.117,-217.587C-37.439,-215.923 -35.522,-209.865 -35.373,-204.762C-35.31,-202.58 -33.543,-202.652 -32.204,-203.547C-19.768,-211.859 -5.941,-218.047 6.026,-228.149C2.092,-228.83 0.038,-226.566 -2.298,-225.007C-9.565,-220.159 -16.694,-215.08 -24.17,-210.578C-26.796,-208.997 -30.418,-205.181 -33.163,-208.287C-36.769,-212.367 -30.166,-213.791 -29.117,-217.587ZM50.76,-117.109C33.299,-107.752 15.838,-98.394 -1.623,-89.037C16.373,-97.28 36.148,-102.128 50.76,-117.109ZM31.232,-226.498C43.026,-228.163 51.698,-237.541 63.435,-239.775C65.424,-240.153 65.032,-243.256 64.39,-244.955C63.548,-247.183 61.977,-245.403 60.882,-244.901C50.319,-240.053 40.383,-234.152 31.232,-226.498ZM-29.559,-253.001C-10.513,-258.679 2.107,-272.112 19.187,-279.155C13.202,-279.645 -19.123,-262.263 -29.559,-253.001ZM18.601,-15.132C19.896,-13.234 21.392,-12.738 22.255,-13.394C30.974,-20.025 42.113,-22.579 50.275,-30.049C51.622,-31.282 54.824,-32.719 52.659,-35.049C51.017,-36.818 48.449,-35.071 46.748,-33.8C37.812,-27.128 28.463,-21.077 18.601,-15.132ZM29.568,-195.698C38.937,-200.124 48.112,-205.051 57.741,-208.813C65.009,-211.653 64.987,-216.914 64.58,-222.89C64.516,-223.818 64.676,-225.316 63.561,-225.27C62.225,-225.214 60.788,-224.519 59.637,-223.743C57.677,-222.42 59.644,-222.118 60.375,-221.424C63.443,-218.509 61.281,-216.6 58.847,-215.189C54.658,-212.762 50.307,-210.61 46.005,-208.379C39.836,-205.181 33.589,-202.106 29.568,-195.698ZM80.351,-25.611C80.351,-44.551 80.305,-63.492 80.361,-82.432C80.483,-122.6 80.516,-162.768 80.9,-202.933C81.01,-214.304 85.995,-219.868 97.302,-220.306C121.113,-221.229 144.99,-221.951 168.596,-217.332C178.371,-215.42 184.502,-207.753 184.399,-197.692C183.654,-124.967 182.841,-52.242 182.249,20.484C182.191,27.629 178.928,31.332 172.381,31.256C146.354,30.956 120.274,33.103 94.306,29.947C83.198,28.598 79.592,24.068 79.718,13.026C79.867,0.148 79.753,-12.733 79.753,-25.612C79.953,-25.612 80.153,-25.611 80.351,-25.611ZM102.283,-82.249C96.297,-83.546 95.619,-72.481 88.669,-78.989C88.669,-75.04 88.637,-70.729 88.691,-66.42C88.706,-65.281 88.28,-63.628 89.61,-63.25C90.502,-62.997 91.852,-63.729 92.773,-64.352C94.327,-65.402 93.186,-66.12 92.354,-67.094C89.846,-70.026 91.502,-72.535 93.663,-74.643C96.236,-77.154 99.051,-79.419 102.283,-82.249ZM94.418,-184.055C103.499,-188.405 109.521,-196.307 116.95,-202.555C108.932,-196.977 99.698,-192.924 94.418,-184.055ZM175.877,-161.58C175.377,-162.305 174.876,-163.029 174.376,-163.754C164.717,-158.221 155.508,-152.052 148.117,-143.274C157.371,-149.376 166.623,-155.478 175.877,-161.58ZM175.657,-196.891C163.4,-190.573 151.864,-183.117 141.599,-170.884C155.108,-178.703 164.124,-189.398 175.657,-196.891ZM132.905,-176.564C144.698,-183.46 155.354,-191.616 164.959,-201.082C152.556,-195.059 142.453,-186.083 132.905,-176.564ZM169.76,-122.51C159.038,-121.714 150.251,-116.697 142.327,-109.824C151.276,-114.494 161.975,-115.193 169.76,-122.51ZM144.608,-6.688C132.776,-1.043 122.278,6.686 112.462,15.404C124.604,10.209 135.828,3.66 144.608,-6.688ZM176.492,-185.367C164.555,-178.085 151.614,-172.096 143.222,-160.246C154.303,-168.631 167.913,-173.757 176.492,-185.367ZM104.932,0.049C105.297,0.524 105.663,0.999 106.029,1.474C124.023,-13.504 143.408,-26.576 162.382,-40.232C152.398,-35.092 142.559,-29.738 133.561,-23.222C123.617,-16.02 114.443,-7.754 104.932,0.049ZM166.216,-30.734C140.867,-18.778 119.533,-0.854 97.945,16.707C120.814,1.104 142.391,-16.386 166.216,-30.734ZM172.996,-3.248C172.6,-4.06 172.203,-4.871 171.806,-5.683C163.501,-0.002 155.194,5.679 146.889,11.361C157.139,8.942 163.422,0.21 172.996,-3.248ZM-164.823,-24.895C-165.558,-60.641 -166.314,-100.049 -167.207,-139.454C-167.495,-152.132 -158.898,-160.251 -143.716,-162.069C-124.444,-164.376 -105.41,-162.388 -86.35,-159.92C-82.747,-159.453 -79.085,-159.352 -75.446,-159.263C-64.911,-159.005 -59.147,-154.188 -57.432,-143.98C-56.909,-140.866 -56.268,-137.73 -56.184,-134.591C-55.582,-111.973 -55.081,-89.352 -54.601,-66.731C-54.08,-42.161 -53.483,-17.592 -53.177,6.981C-52.995,21.631 -59.837,28.104 -74.308,27.27C-93.056,26.189 -111.723,28.031 -130.425,28.566C-137.279,28.762 -144.03,28.017 -150.763,26.965C-161.133,25.345 -164.67,21.37 -164.795,10.905C-164.922,0.194 -164.823,-10.519 -164.823,-24.895ZM-79.087,-20.446C-70.485,-19.832 -68.925,-25.459 -65.278,-31.39C-71.642,-28.761 -74.766,-25.034 -79.087,-20.446ZM-123.051,-126.68C-129.244,-121.819 -136.991,-118.453 -141.665,-109.569C-133.855,-114.916 -127.955,-120.152 -123.051,-126.68ZM-115.202,-63.728C-115.699,-64.276 -116.196,-64.824 -116.693,-65.371C-124.364,-60.35 -129.881,-52.995 -135.722,-45.975C-128.882,-51.893 -122.042,-57.811 -115.202,-63.728ZM-94.32,2.235C-100.011,7.016 -105.672,11.882 -109.402,18.549C-102.463,14.991 -96.968,10.023 -94.32,2.235ZM-99.951,-31.954C-89.997,-40.514 -80.042,-49.075 -70.088,-57.635C-81.631,-50.947 -91.001,-41.697 -99.951,-31.954ZM-95.12,17.828C-86.214,10.824 -76.829,4.251 -69.541,-4.629C-78.644,2.18 -87.854,8.854 -95.12,17.828ZM-108.699,-7.431C-117.048,-0.14 -125.397,7.15 -133.746,14.441C-123.418,9.507 -115.589,1.723 -108.699,-7.431ZM-113.122,-55.22C-120.307,-48.119 -128.419,-40.101 -137.657,-30.971C-127.292,-38.896 -119.138,-46.772 -113.122,-55.22ZM-93.405,-98.509C-83.702,-106.543 -73.998,-114.578 -64.294,-122.612C-75.306,-116.105 -86.039,-109.275 -93.405,-98.509ZM-99.616,-118.21C-95.242,-120.095 -65.406,-143.611 -64.544,-145.942C-77.87,-138.085 -88.969,-128.538 -99.616,-118.21ZM-149.877,10.195C-140.375,0.031 -130.872,-10.132 -123.597,-17.912C-132.293,-11.694 -141.889,-1.705 -149.877,10.195ZM-150.808,-2.721C-135.911,-14.132 -120.005,-32.343 -119.617,-38.537C-131.853,-27.665 -141.412,-15.317 -150.808,-2.721Z" style="fill:rgb(242,113,45);"/>
                </g>
                <g transform="matrix(1.66707,0,0,1.30133,339.912,390.005)">
                    <path d="M-71.563,-15.997C-71.504,-31.697 -64.671,-43.051 -53.252,-44.926C-47.814,-45.819 -42.169,-45.56 -36.615,-45.631C-8.609,-45.987 19.403,-46.054 47.402,-46.678C65.158,-47.073 82.891,-47.491 100.641,-46.558C111.441,-45.991 117.703,-39.574 119.282,-26.161C120.502,-15.798 121.3,-5.376 121.952,5.041C122.595,15.324 112.154,25.564 101.931,23.128C91.7,20.691 81.691,21.876 71.599,21.733C33.373,21.191 -4.857,20.979 -43.085,20.517C-58.291,20.334 -67.758,11.889 -69.89,-2.993C-70.51,-7.319 -71.009,-11.662 -71.563,-15.997ZM0,-21.927C-8.508,-16.624 -15.338,-9.378 -21.916,-1.865C-13.708,-7.51 -6.265,-13.982 0,-21.927ZM65.821,4.175C76.923,-2.016 85.167,-11.537 94.903,-19.264C83.352,-13.719 74.632,-4.647 65.821,4.175ZM-7.853,-0.342C1.905,-6.665 9.254,-15.607 17.564,-23.504C8.14,-16.818 -1.256,-10.101 -7.853,-0.342ZM-53.846,-9.068C-44.683,-16.042 -36.786,-21.583 -30.93,-29.408C-38.038,-23.036 -47.986,-19.997 -53.846,-9.068ZM34.676,119.919C34.883,125.03 34.414,130.052 33.551,135.119C31.139,149.279 26.752,154.639 12.79,154.657C-8.541,154.683 -29.89,157.389 -51.189,154.962C-62.941,153.623 -70.134,148.677 -69.929,135.593C-69.773,125.649 -69.898,115.708 -70.699,105.743C-71.632,94.14 -60.182,83.146 -48.218,84.609C-30.252,86.805 -12.269,85.907 5.607,85.283C27.942,84.503 33.209,93.445 34.655,114.09C34.79,116.025 34.673,117.978 34.676,119.919ZM-41.274,136.933C-33.303,132.844 -27.47,126.435 -22.074,119.565C-29.71,123.975 -36.659,129.134 -41.274,136.933ZM-12.426,137.61C-0.059,131.437 9.335,122.661 19.734,115.347C21.509,114.098 25.608,112.905 23.725,110.444C21.367,107.362 19.393,111.583 17.434,112.817C13.963,115.002 10.698,117.518 7.382,119.945C0.469,125.003 -6.959,129.495 -12.426,137.61ZM12.386,143.17C20.742,143.846 22.794,142.063 22.882,134.369C18.334,136.099 15.653,139.563 12.386,143.17Z" style="fill:rgb(16,46,108);"/>
                </g>
                <g transform="matrix(1.66707,0,0,1.30133,276.914,136.877)">
                    <path d="M0,-47.996C0.224,-48.717 0.881,-50.05 -0.848,-50.455C-2.217,-50.776 -3.247,-49.824 -3.299,-48.494C-3.41,-45.636 -3.35,-42.765 -3.2,-39.907C-3.141,-38.786 -3.136,-37.177 -1.735,-36.952C0.191,-36.643 1.068,-38.504 2.175,-39.659C4.095,-41.663 2.088,-41.603 0.846,-42.168C-1.963,-43.448 -1.051,-45.564 0,-47.996M45.507,37.907C38.952,32.594 37.648,32.934 32.222,41.023C36.579,40.594 40.938,40.506 45.507,37.907M-0.557,25.51C3.152,22.277 5.449,20.275 8.344,17.751C-0.971,17.798 4.501,11.959 4.386,8.104C-3.214,12.205 0.067,18.387 -0.557,25.51M31.309,-91.517C18.731,-90.792 14.059,-79.621 6.295,-72.535C14.156,-79.492 22.331,-86.036 31.309,-91.517M29.1,12.977C19.609,20.208 9.421,26.581 1.689,35.814C11.648,29.156 21.358,22.217 29.1,12.977M35.629,-34.152C37.637,-31.947 42.115,-31.168 39.092,-27.354C37.248,-25.028 35.041,-22.991 31.995,-19.762C47.085,-25.964 47.636,-27.041 42.869,-39.335C40.489,-37.631 38.196,-35.99 35.629,-34.152M6.826,-61.749C17.739,-67.279 28.045,-73.668 37.772,-80.957C39.878,-82.535 42.485,-83.973 39.747,-87.709C29.464,-78.041 16.759,-71.722 6.826,-61.749M11.667,-29.081C21.297,-34.766 30.898,-40.501 40.575,-46.105C43.248,-47.652 44.914,-49.711 43.522,-52.603C41.901,-55.972 39.759,-53.189 38.12,-52.324C27.454,-46.699 18.849,-38.588 11.667,-29.081M41.002,17.507C26.477,23.838 16.589,33.69 5.193,42.707C17.566,44.282 34.149,32.804 41.002,17.507M-10.017,3.38C-10.853,-12.583 -11.361,-33.443 -13.635,-54.265C-14.921,-66.032 -13.56,-78.102 -10.451,-89.658C-7.992,-98.795 -0.788,-102.905 10.754,-102.393C17.044,-102.114 23.219,-101.589 29.612,-102.115C40.091,-102.979 50.06,-93.334 50.457,-82.672C51.525,-54.014 54.817,-25.485 55.099,3.225C55.196,13.096 56.503,22.967 57.499,32.814C58.439,42.121 56.535,45.679 47.576,48.853C34.573,53.459 21.071,54.983 7.369,54.076C-2.019,53.455 -6.533,48.594 -8.456,38.841C-10.454,28.709 -10.003,18.495 -10.017,3.38" style="fill:rgb(242,113,45);fill-rule:nonzero;"/>
                </g>
                <g transform="matrix(1.66707,0,0,1.30133,799.582,71.7461)">
                    <path d="M0,37.382C5.23,35.513 9.475,32.253 14.68,30.957C17.031,30.372 17.435,28.985 16.595,27.296C15.618,25.329 14.124,26.617 13.056,27.414C8.667,30.687 4.346,34.051 0,37.382M-4.999,-9.51C1.791,-13.643 8.58,-17.775 15.37,-21.908C14.959,-22.534 14.548,-23.16 14.138,-23.787C7.258,-19.793 0.568,-15.506 -4.999,-9.51M0.64,-44.216C-8.801,-46.502 -11.588,-38.548 -16.934,-35.111C-10.823,-37.199 -4.73,-39.318 0.64,-44.216M-16.102,67.437C-20.073,69.986 -21.647,77.225 -19.338,79.845C-18.387,80.925 -17.27,81.23 -16.182,80.364C-12.884,77.739 -9.674,75.004 -5.976,71.934C-11.276,71.593 -14.051,77.735 -18.16,74.972C-21.25,72.895 -16.564,70.689 -16.102,67.437M17.656,50.229C10.116,53.023 3.69,57.512 -2.468,62.411C-3.319,63.089 -4.779,63.862 -3.765,65.288C-3.255,66.008 -2.235,66.522 -1.345,66.784C0.727,67.393 0.107,65.512 0.388,64.611C1.199,62.016 3.577,61.184 5.472,59.745C9.57,56.632 14.8,55.029 17.656,50.229M-15.023,-22.654L11.188,-40.16C10.805,-40.748 10.422,-41.335 10.039,-41.923C-0.787,-39.33 -7.445,-30.261 -15.023,-22.654M-12.278,-13.689C-4.052,-18.816 4.171,-23.947 12.401,-29.067C13.674,-29.86 15.153,-30.727 14.104,-32.428C13.198,-33.897 11.935,-32.8 10.975,-32.18C2.66,-26.816 -6.733,-22.921 -12.278,-13.689M-11.574,58.272C-0.733,55.722 6.046,46.62 15.799,42.387C17.399,41.693 17.562,39.288 16.595,37.81C15.481,36.108 13.985,37.327 12.89,38.219C4.715,44.878 -3.424,51.582 -11.574,58.272M-12.183,27.234C-5.293,22.814 1.557,18.331 8.511,14.016C10.515,12.772 13.252,11.118 14.888,13.973C16.396,16.604 13.334,17.629 11.696,18.796C6.335,22.615 0.172,25.402 -3.782,31.026C1.443,27.986 6.022,23.864 11.333,21.203C17.628,18.051 17.608,13.424 16.509,7.861C15.734,3.936 14.5,1.946 10.435,5.242C2.338,11.805 -5.977,18.103 -12.183,27.234M23.046,-15.73C24.53,8.986 25.893,33.71 27.574,58.412C28.041,65.278 27.387,72.1 26.434,78.729C25.684,83.945 20.792,87.082 15.365,87.979C5.556,89.601 -4.271,91.143 -14.129,92.428C-21.141,93.343 -25.873,90.178 -27.963,83.36C-29.034,79.865 -29.732,76.307 -29.677,72.6C-29.209,40.753 -30.334,8.952 -32.198,-22.838C-32.478,-27.622 -32.198,-32.501 -32.22,-37.34C-32.27,-48.434 -21.839,-55.961 -8.359,-55.06C-5.936,-54.898 -3.535,-54.416 -1.113,-54.239C15.899,-53.001 22.651,-46.094 23.414,-28.887C23.608,-24.517 23.443,-20.131 23.443,-15.752C23.311,-15.745 23.179,-15.738 23.046,-15.73" style="fill:rgb(242,113,45);fill-rule:nonzero;"/>
                </g>
            </g>
        </g>
        <g id="Слой-2" serif:id="Слой 2">
        </g>
        <g id="Слой-3" serif:id="Слой 3">
        </g>
        <g id="Слой-4" serif:id="Слой 4">
        </g>
        <g id="Слой-5" serif:id="Слой 5">
        </g>
        <g id="Режим-изоляции4" serif:id="Режим изоляции">
        </g>
    </g>
</svg>
