<?xml version="1.0" encoding="UTF-8" standalone="no"?>
<!DOCTYPE svg PUBLIC "-//W3C//DTD SVG 1.1//EN" "http://www.w3.org/Graphics/SVG/1.1/DTD/svg11.dtd">
<svg width="100%" height="100%" viewBox="0 0 1564 1393" version="1.1" xmlns="http://www.w3.org/2000/svg" xmlns:xlink="http://www.w3.org/1999/xlink" xml:space="preserve" xmlns:serif="http://www.serif.com/" style="fill-rule:evenodd;clip-rule:evenodd;stroke-linejoin:round;stroke-miterlimit:2;">
    <g transform="matrix(1,0,0,1,-10121.1,0)">
        <g id="Слой-6" serif:id="Слой 6">
        </g>
        <g id="Режим-изоляции" serif:id="Режим изоляции">
        </g>
        <g id="Режим-изоляции1" serif:id="Режим изоляции">
        </g>
        <g id="Режим-изоляции2" serif:id="Режим изоляции">
        </g>
        <g id="Режим-изоляции3" serif:id="Режим изоляции">
        </g>
        <g id="Page-6" serif:id="Page 6" transform="matrix(1.39933,0,0,1.66222,10121.1,0)">
            <rect x="0" y="0" width="1117.09" height="837.818" style="fill:none;"/>
            <clipPath id="_clip1">
                <rect x="0" y="0" width="1117.09" height="837.818"/>
            </clipPath>
            <g clip-path="url(#_clip1)">
                <g transform="matrix(1.42925,0,0,1.20321,82.3279,309.5)">
                    <path d="M0,178.925C0.922,178.569 1.794,178.282 1.759,177.042C0.766,177.321 0.084,177.785 0,178.925M-48.807,-89.798C-48.59,-89.644 -48.372,-89.491 -48.154,-89.337C-47.946,-89.796 -47.707,-90.244 -47.536,-90.717C-47.355,-91.22 -47.358,-91.747 -48.065,-91.734C-48.316,-91.729 -48.7,-91.389 -48.775,-91.131C-48.895,-90.718 -48.807,-90.245 -48.807,-89.798M-48.669,-71.843C-47.866,-72.483 -47.209,-73.131 -47.663,-74.28C-48.931,-73.838 -48.883,-72.9 -48.669,-71.843M180.315,276.516C179.929,276.396 179.58,276.194 179.489,276.276C179.149,276.585 178.893,276.986 178.606,277.353C178.867,277.461 179.258,277.733 179.365,277.647C179.715,277.368 179.961,276.96 180.315,276.516M-18.401,247.079C-18.708,246.863 -19.079,246.554 -19.112,246.587C-19.418,246.887 -19.664,247.247 -19.928,247.589C-19.713,247.741 -19.366,248.065 -19.304,248.017C-18.968,247.759 -18.703,247.41 -18.401,247.079M475.07,419.501C473.608,420.651 472.366,420.139 472.305,421.463C473.114,421.369 473.955,421.42 475.07,419.501M581.233,165.643C581.455,164.99 581.648,164.412 580.983,164.384C580.684,164.372 580.286,164.931 580.078,165.311C579.973,165.503 580.191,165.872 580.262,166.162C580.634,165.964 581.005,165.766 581.233,165.643M181.087,-205.819C180.864,-206.142 180.663,-206.563 180.573,-206.54C180.132,-206.429 179.607,-206.304 179.322,-205.992C178.66,-205.267 179.466,-205.291 179.812,-205.332C180.24,-205.382 180.644,-205.64 181.087,-205.819M183.627,408.04C184.707,407.874 185.603,407.636 185.453,406.269C184.732,406.968 184.18,407.504 183.627,408.04M242.728,-218.202C243.061,-218.219 243.445,-218.123 243.633,-218.273C244.037,-218.596 245.282,-218.171 244.755,-219.173C244.603,-219.463 243.212,-219.086 242.728,-218.202M114.713,412.023C115.122,411.592 115.774,411.206 115.92,410.68C116.144,409.873 115.464,410.159 115.166,410.389C114.709,410.739 114.341,411.206 113.936,411.623C114.167,411.742 114.398,411.861 114.713,412.023M458.932,406.922C460.05,406.855 461.112,406.446 461.227,404.83C460.316,405.661 459.624,406.291 458.932,406.922M347.052,242.238C345.468,242.087 344.572,242.557 344.595,243.986C345.446,243.38 346.249,242.809 347.052,242.238M446.723,246.64C448.936,245.502 449.872,244.974 450.212,243.818C448.841,243.62 448.483,244.826 446.723,246.64M208.22,247.047C208.551,246.821 209.018,246.626 209.295,246.28C209.633,245.858 209.526,245.304 208.913,245.303C208.515,245.303 208.007,245.616 207.748,245.946C207.444,246.332 207.524,246.827 208.22,247.047M-30.14,117.742C-31.381,118.148 -32.207,118.763 -32.543,120.085C-31.359,119.628 -30.491,119.056 -30.14,117.742M359.328,422.165C359.254,421.875 359.181,421.585 359.107,421.295C358.569,421.579 358.009,421.834 357.514,422.18C357.435,422.235 357.584,422.9 357.726,422.941C358.445,423.149 358.969,422.792 359.328,422.165M341.695,288.366C342.183,287.763 342.554,287.446 342.733,287.044C342.952,286.557 342.765,285.989 342.179,286.047C341.83,286.081 341.374,286.567 341.255,286.941C341.155,287.258 341.472,287.707 341.695,288.366M130.256,-247.198C130.142,-247.707 130.144,-248.193 130.006,-248.236C129.255,-248.473 128.808,-247.953 128.507,-247.378C128.404,-247.18 128.591,-246.83 128.645,-246.549C129.193,-246.77 129.742,-246.991 130.256,-247.198M-7.615,14.841C-6.549,14.543 -6.069,14.481 -5.657,14.279C-4.908,13.91 -3.896,13.213 -5.029,12.574C-6,12.027 -6.706,13.219 -7.615,14.841M251.365,-229.997C249.844,-228.961 248.829,-228.269 247.814,-227.577C249.171,-227.776 250.536,-227.966 251.365,-229.997M237.713,277.87C238.498,277.791 238.917,277.324 238.959,276.573C238.966,276.453 238.474,276.143 238.349,276.203C237.768,276.482 236.976,276.743 236.754,277.234C236.494,277.806 237.231,277.867 237.713,277.87M203.426,286.496C202.65,286.576 202.177,287.054 202.109,287.772C202.071,288.173 202.356,288.606 202.495,289.024C202.921,288.561 203.402,288.135 203.756,287.622C204.046,287.202 204.122,286.696 203.426,286.496M207.465,322.209C208.409,321.427 209.353,320.644 210.666,319.555C208.513,319.462 207.999,320.77 207.465,322.209M342.383,369.396C343.703,368.496 344.681,367.903 344.548,366.441C343.045,366.648 341.983,367.137 342.383,369.396M45.394,-194.516C43.851,-194.784 43.246,-193.889 41.839,-191.932C43.745,-193.205 45.225,-192.899 45.394,-194.516M-45.545,5.589C-46.113,5.176 -46.505,4.696 -46.745,4.762C-47.111,4.864 -47.539,5.304 -47.628,5.674C-47.704,5.992 -47.341,6.415 -47.172,6.791C-46.705,6.447 -46.239,6.102 -45.545,5.589M-24.503,-0.273C-22.918,-0.856 -21.577,-1.486 -21.044,-3.533C-22.454,-2.203 -23.479,-1.238 -24.503,-0.273M344.982,376.271C343.81,376.833 343.302,376.965 342.943,377.272C342.274,377.846 341.861,379.091 342.691,379.226C343.96,379.432 344.257,377.918 344.982,376.271M581.102,115.139C581.258,114.486 580.963,114.167 580.387,114.15C579.663,114.129 579.026,114.437 578.879,115.167C578.801,115.555 579.037,116.351 579.244,116.392C580.216,116.584 580.621,115.734 581.102,115.139M351.736,286.643C349.658,286.043 348.796,286.982 347.601,289.385C349.665,288.016 350.701,287.33 351.736,286.643M192.796,276.104C192.241,276.534 191.139,276.39 191.14,277.464C191.141,277.604 192.001,277.951 192.334,277.835C192.873,277.646 193.511,277.244 193.725,276.762C193.947,276.265 193.397,275.995 192.796,276.104M183.613,395.673C183.854,395.918 184.095,396.163 184.336,396.407C185.21,395.308 186.084,394.208 186.957,393.109L186.35,393.109C185.508,393.898 184.561,394.786 183.613,395.673M28.661,273.056C29.713,273.171 30.035,272.401 30.284,271.632C30.326,271.504 29.815,271.029 29.755,271.062C29.067,271.448 28.219,271.769 27.816,272.376C27.443,272.937 28.276,272.92 28.661,273.056M252.658,405.951C254.173,405.303 255.977,405 256.066,402.75C254.752,403.985 253.705,404.968 252.658,405.951M460.147,421.186C461.055,421.276 461.553,421.409 462.03,421.356C463.107,421.236 464.377,420.863 462.963,419.68C462.215,419.054 461.084,419.83 460.147,421.186M186.297,423.888C185.355,424.689 183.673,424.483 183.266,426.08C185.015,426.295 185.85,425.313 186.297,423.888M344.603,318.864C342.913,319.119 341.783,319.701 341.737,321.623C343.138,321.108 343.9,320.144 344.603,318.864M207.872,301.383C209.575,299.793 210.641,298.798 211.708,297.803C210.063,298.178 208.833,298.998 207.872,301.383M583.79,190.857C584.269,190.102 584.34,189.6 583.68,189.448C582.986,189.289 582.289,189.53 582.084,190.267C581.978,190.647 582.252,191.133 582.354,191.571C582.916,191.292 583.477,191.013 583.79,190.857M0.842,148.619C-1.048,149.046 -2.283,149.89 -3.336,151.669C-1.311,151.185 0.071,150.537 0.842,148.619M-41.237,165.153C-43.012,165.749 -44.325,166.224 -44.752,168.601C-42.877,167.649 -41.873,166.869 -41.237,165.153M155.468,270.381C156.222,269.575 157.323,268.399 158.424,267.223C158.599,267.416 158.773,267.61 158.948,267.803C157.644,268.769 156.34,269.735 155.468,270.381M431.067,384.705C433.316,382.99 434.672,381.956 436.028,380.922C433.758,380.949 432.629,382.24 431.067,384.705M232.754,387.756C235.301,386.218 237.096,385.758 237.963,383.393C235.913,384.175 234.682,385.213 232.754,387.756M144.515,-244.352C144.478,-244.391 144.441,-244.43 144.404,-244.47C142.945,-243.273 141.485,-242.075 140.026,-240.878L140.151,-240.746C141.606,-241.948 143.06,-243.15 144.515,-244.352M67.718,-239.96C70.494,-241.9 72.249,-242.813 73.626,-244.999C71.487,-243.773 69.674,-243.01 67.718,-239.96M313.271,245.442C315.364,244.134 316.599,243.362 318.016,242.476C315.6,241.468 314.744,242.928 313.271,245.442M342.121,310.158C344.43,308.637 345.85,307.594 347.26,304.702C344.886,306.682 342.747,306.893 342.121,310.158M173.072,426.173C174.905,426.057 176.142,426.67 176.738,425.116C176.881,424.742 176.695,423.865 176.466,423.787C175.037,423.299 174.392,424.398 173.072,426.173M151.049,249.452C151.959,248.279 154.545,248.886 154.268,246.198C152.107,246.297 151.438,247.726 151.049,249.452M275.511,421.729C274.927,422.198 273.878,422.657 273.484,423.443C272.864,424.678 274.216,424.668 274.894,424.786C276,424.979 276.909,424.622 276.768,423.232C276.706,422.619 276.704,421.877 275.511,421.729M73.21,-208.518C73.143,-208.487 73.075,-208.457 73.007,-208.426C74.42,-209.965 75.834,-211.503 77.248,-213.041C77.276,-213 77.304,-212.959 77.332,-212.917C75.958,-211.451 74.584,-209.984 73.21,-208.518M465.453,277.744C467.002,277.951 468.386,278.557 469.486,277.196C469.597,277.058 469.417,276.427 469.241,276.358C467.698,275.757 466.58,276.454 465.453,277.744M108.576,-208.294C106.837,-206.817 105.78,-205.919 104.166,-204.548C107.687,-204.186 108.222,-205.669 108.576,-208.294M459.05,242.78C461.658,242.303 462.523,240.971 464.199,239.149C460.82,239.097 460.487,241.014 459.05,242.78M482.335,420.998C485.065,421.328 485.73,420.138 485.59,417.56C483.644,418.263 482.656,419.163 482.335,420.998M582.825,216.423C579.865,218.472 577.892,219.838 575.919,221.204C578.67,220.89 580.774,219.699 582.825,216.423M101.255,277.454C102.887,278.148 104.154,278.351 105.173,277.305C105.385,277.088 105.08,275.87 104.715,275.676C103.193,274.867 102.379,276.033 101.255,277.454M164.78,-208.395C162.996,-207.382 161.212,-206.368 159.429,-205.355C161.778,-205.396 164.001,-205.635 164.78,-208.395M118.561,-210.74C119.909,-213.023 121.256,-215.305 122.604,-217.588C120.471,-215.804 118.887,-213.698 118.561,-210.74M10.285,263.912C8.343,265.172 6.308,265.246 6.801,267.557C6.869,267.877 7.604,268.326 7.961,268.271C10.392,267.892 9.179,265.789 10.285,263.912M123.242,399.468C120.146,399.797 118.351,401.705 117.135,404.312C119.171,402.697 121.206,401.083 123.242,399.468M40.441,-236.722C38.299,-234.77 36.157,-232.817 34.015,-230.865C34.234,-230.644 34.452,-230.424 34.67,-230.204C36.591,-232.377 38.512,-234.549 40.441,-236.722M535.977,278.918C538.485,278.869 540.288,279.681 541.311,277.723C541.474,277.411 541.187,276.464 541.011,276.436C539.184,276.151 538.004,277.376 535.977,278.918M368.962,422.772C370.348,422.759 371.909,424.004 372.988,422.392C373.229,422.033 372.937,420.799 372.603,420.659C370.865,419.936 370.107,421.667 368.962,422.772M110.497,277.974C113.374,277.756 115.395,278.836 116.805,276.785C116.936,276.594 116.834,275.96 116.702,275.912C114.496,275.106 113.2,276.915 110.497,277.974M-47.218,-2.665C-46.364,-4.457 -44.726,-5.518 -45.467,-7.364C-45.588,-7.666 -46.998,-7.889 -47.166,-7.665C-48.269,-6.192 -48.035,-4.614 -47.218,-2.665M116.37,-204.85C115.601,-206.257 114.868,-207.577 113.216,-207.512C112.857,-207.499 112.068,-205.855 112.308,-205.413C113.229,-203.715 114.744,-204.272 116.37,-204.85M323.205,415.215C321.08,416.896 318.954,418.576 316.829,420.257C319.511,419.282 322.174,418.286 323.205,415.215M138.806,384.83C135.179,386.178 134.213,388.577 132.75,390.508C134.856,389.196 137.27,388.245 138.806,384.83M164.588,246.508C162.016,246.228 160.309,245.23 159.223,247.234C158.977,247.688 159.244,248.961 159.586,249.102C161.606,249.936 162.413,248.057 164.588,246.508M276.887,277.6C278.686,277.312 280.883,279.154 282.294,276.796C282.486,276.475 282.314,275.526 282.071,275.422C279.829,274.452 278.573,276.496 276.887,277.6M422.074,417.804C420.153,419.414 418.045,419.626 417.455,421.745C421.493,422.111 421.493,422.111 422.074,417.804M6.867,227.916C6.918,227.974 6.969,228.031 7.02,228.089C9.538,225.831 12.055,223.573 14.572,221.315C14.476,221.21 14.381,221.104 14.285,220.999C11.812,223.305 9.34,225.61 6.867,227.916M140.746,422.569C138.619,423.638 136.284,424.463 134.845,427.219C138.488,427.066 139.627,424.828 140.746,422.569M-3.124,171.755C-1.054,169.427 2.855,170.127 2.003,165.368C0.235,167.571 -1.155,169.302 -3.124,171.755M269.313,-242.887C264.465,-244.754 264.559,-240.751 262.354,-237.715C265.249,-239.867 267.159,-241.286 269.313,-242.887M-4.281,19.879C-5.729,22.422 -7.574,23.513 -7.537,25.932C-4.027,25.56 -3.353,23.753 -4.281,19.879M532.58,278.881C529.904,273.7 527.87,277.93 525.812,278.881L532.58,278.881ZM130.811,-242.861L131.306,-242.377C128.391,-239.595 125.477,-236.812 122.563,-234.029C122.465,-234.125 122.366,-234.22 122.268,-234.315C125.116,-237.164 127.963,-240.013 130.811,-242.861M-1.987,207.149C0.773,205.702 3.749,204.484 5.569,200.501C1.614,202.073 -0.009,204.837 -1.987,207.149M579.802,123.875C582.267,122.833 584.93,121.929 585.667,117.61C582.54,119.554 580.763,121.271 579.802,123.875M435.585,244.708C437.697,242.124 440.561,241.874 441.91,239.377C437.523,237.862 436.576,240.642 435.585,244.708M204.113,336.433C208.371,334.235 205.407,331.512 205.711,327.893C203.418,331.283 204.234,333.759 204.113,336.433M388.621,276.625C385.119,276.471 381.81,277.593 378.343,277.473C381.853,277.892 385.379,278.706 388.621,276.625M-41.781,-178.239C-42.962,-174.972 -43.952,-172.233 -44.942,-169.494C-42.718,-171.807 -39.254,-173.697 -41.781,-178.239M-5.037,252.898C-6.591,254.599 -9.89,254.656 -9.663,257.528C-9.542,259.06 -8.092,260.366 -4.839,260.289C-8.698,257.426 -6.738,255.23 -5.037,252.898M-5.744,-16.121C-5.945,-16.344 -6.146,-16.566 -6.347,-16.788C-9.506,-13.449 -12.665,-10.11 -15.824,-6.771C-15.871,-6.814 -15.919,-6.856 -15.967,-6.899C-12.56,-9.973 -9.152,-13.047 -5.744,-16.121M321.501,277.592C323.924,277.319 328.251,280.141 327.707,274.023C325.259,274.654 323.259,275.759 321.501,277.592M382.214,311.596C383.892,307.434 389.697,308.153 390.402,302.851C387.491,305.96 385.027,308.591 382.214,311.596M9.645,233.624C12.877,231.863 16.732,230.399 18.899,225.467C15.124,228.795 12.384,231.21 9.645,233.624M21.324,239.483C22.558,238.141 23.909,236.885 24.991,235.43C25.94,234.153 24.756,233.286 23.959,232.458C23.354,231.83 22.622,231.285 21.758,231.92C20.602,232.77 21.2,233.644 21.856,234.495C23.278,236.337 21.648,237.75 21.324,239.483M-12.004,8.084C-9.699,5.971 -5.049,6.161 -4.896,1.197C-8.888,2.168 -9.955,5.659 -12.004,8.084M227.829,251.093C231.05,248.965 234.271,246.836 237.492,244.708C233.053,244.963 230.326,247.832 227.829,251.093M368.004,254.176C371.7,251.527 375.395,248.879 379.091,246.23C374.6,247.716 371.08,250.498 368.004,254.176M-35.963,-174.56C-37.79,-171.434 -39.618,-168.308 -41.445,-165.182C-39.065,-167.971 -35.24,-169.867 -35.963,-174.56M-8.066,191.9C-4.206,189.697 -0.847,186.884 1.927,183.361C-1.898,185.607 -5.303,188.364 -8.066,191.9M-45.796,100.908C-43.915,99.201 -41.785,97.269 -38.89,94.64C-42.418,96.7 -47.175,96.16 -45.796,100.908M80.483,274.897C75.901,277.053 72.502,280.283 70.214,278.707C73.407,280.184 78.033,279.514 80.483,274.897M-34.721,-147.467C-38.576,-145.122 -40.923,-141.776 -41.53,-137.273C-39.26,-140.671 -36.991,-144.069 -34.721,-147.467M22.976,246.403C26.379,244.499 29.463,242.243 31.609,238.949C27.262,239.81 25.569,243.604 22.976,246.403M-20.102,227.879C-20.189,227.72 -20.275,227.562 -20.362,227.403C-23.006,229.407 -25.648,231.413 -28.294,233.414C-29.234,234.125 -30.525,234.921 -29.254,236.141C-28.148,237.202 -27.625,235.73 -27.004,235.086C-24.695,232.692 -22.402,230.283 -20.102,227.879M395.928,240.396C388.622,240.036 388.008,240.449 388.135,245.107C390.474,243.693 392.713,242.339 395.928,240.396M-16.16,235.528C-16.492,235.185 -16.823,234.842 -17.155,234.499C-19.676,237.28 -23.572,238.57 -25.971,243.166C-24.364,242.687 -23.801,242.684 -23.492,242.401C-21.021,240.14 -18.598,237.826 -16.16,235.528M482.445,387.971C480.058,390.242 477.918,392.278 475.901,394.198C477.177,391.544 484.096,393.9 482.445,387.971M-27.649,213.043C-27.931,212.724 -28.213,212.405 -28.495,212.087C-31.031,213.842 -33.556,215.614 -36.109,217.345C-37.051,217.984 -37.75,218.822 -36.831,219.756C-35.786,220.818 -35.083,219.533 -34.401,218.951C-32.125,217.011 -29.896,215.017 -27.649,213.043M51.152,245.773C48.428,248.859 45.703,251.945 43.847,254.047C46.135,252.342 49.06,249.437 51.152,245.773M155.784,-211.724C152.148,-209.448 149.028,-207.496 145.909,-205.543C150.206,-205.789 154.28,-206.359 155.784,-211.724M26.728,-240.113C20.375,-241.058 19.251,-236.459 16.24,-232.203C20.19,-235.183 23.147,-237.412 26.728,-240.113M175.46,272.531C175.647,272.833 175.834,273.134 176.021,273.435C181.053,269.829 186.085,266.223 191.117,262.617C190.94,262.377 190.762,262.138 190.585,261.899C185.543,265.443 180.502,268.987 175.46,272.531M-33.549,141.346C-37.075,144.271 -42.382,144.942 -44.573,149.553C-40.061,147.921 -37.153,144.15 -33.549,141.346M-41.641,-33.786C-36.575,-37.203 -33.136,-42.094 -30.218,-47.435C-34.026,-42.885 -37.833,-38.336 -41.641,-33.786M595.517,230.952C590.612,233.217 586.955,237.009 583.111,240.573C587.542,237.727 592.134,235.08 595.517,230.952M-49.7,-123.862C-44.56,-127.817 -52.164,-132.234 -48.924,-136.333C-52.486,-132.406 -48.747,-127.992 -49.7,-123.862M592.166,130.226C588.304,132.928 583.597,134.893 581.224,140.525C586.081,137.718 588.717,133.594 592.166,130.226M196.952,-214.469C203.325,-216.909 207.437,-222.123 212.105,-226.656C207.054,-222.593 202.003,-218.531 196.952,-214.469M425.379,260.377C420.062,263.425 416.499,266.903 413.515,271.031C417.544,268.077 422.581,266.255 425.379,260.377M198.04,-223.836C198.188,-223.577 198.337,-223.317 198.485,-223.057C204.21,-227.432 209.934,-231.807 215.659,-236.182C215.445,-236.458 215.231,-236.735 215.016,-237.011C209.358,-232.62 203.699,-228.228 198.04,-223.836M-49.164,-107.739C-46.939,-111.37 -44.906,-114.687 -42.872,-118.004C-46.279,-115.503 -51.945,-114.338 -49.164,-107.739M-42.896,-106.107C-43.18,-103.701 -52.338,-104.2 -49.016,-96.526C-46.459,-100.529 -44.143,-104.155 -42.896,-106.107M452.099,395.267C447.17,398.438 442.64,402.134 439.457,407.211C444.408,404.051 448.213,399.674 452.099,395.267M306.154,-236.879C299.085,-239.294 297.324,-238.75 292.754,-232.969C297.429,-233.734 301.171,-237.286 306.154,-236.879M48.116,-213.677C44.852,-209.227 39.497,-206.351 37.626,-199.336C42.52,-204.21 45.783,-208.638 48.116,-213.677M160.703,-237.49C154.772,-234.18 150.173,-229.338 145.499,-224.583C151.061,-228.317 156.45,-232.25 160.703,-237.49M289.26,-238.422C282.611,-238.415 278.447,-233.584 273.582,-230.006C278.808,-232.811 284.034,-235.617 289.26,-238.422M29.182,-200.564C33.429,-204.294 37.896,-207.815 39.508,-214.554C34.923,-209.958 32.122,-205.179 29.182,-200.564M-29.302,-101.382C-33.657,-96.141 -38.013,-90.901 -42.368,-85.66C-36.768,-89.876 -32.677,-95.335 -29.302,-101.382M31.603,256.028C35.748,252.229 39.894,248.431 44.039,244.633C43.696,244.256 43.353,243.88 43.01,243.504C37.947,246.298 35.163,251.588 31.603,256.028M551.375,253.761C545.268,258.435 539.161,263.109 533.053,267.782C539.812,264.019 546.275,259.883 551.375,253.761M-18.986,-68.731C-15.163,-72.827 -9.269,-75.339 -7.59,-80.902C-8.03,-81.224 -8.471,-81.545 -8.911,-81.867C-12.269,-77.488 -15.628,-73.109 -18.986,-68.731M549.455,277.456C557.207,278.371 558.439,277.536 559.479,270.82C556.137,273.032 552.972,275.127 549.455,277.456M584.07,146.166C589.976,142.823 595.105,138.542 599.154,133.054C594.643,138.013 587.665,140.085 584.07,146.166M546.986,265.523C556.177,260.64 559.261,257.897 560.718,253.607C556.253,257.204 551.397,259.964 546.986,265.523M-15.424,-64.981C-12.268,-65.836 -10.127,-68.932 -8.098,-66.435C-5.519,-63.262 -9.889,-61.069 -10.467,-58.019C-6.091,-60.868 -5.515,-66.439 -8.949,-72.119C-10.905,-69.962 -12.811,-67.861 -15.424,-64.981M419.697,394.406C413.016,399.362 405.567,403.699 401.516,411.56C407.576,405.842 413.637,400.124 419.697,394.406M234.606,345.135C228.268,348.344 223.003,352.884 218.576,358.394C223.664,353.681 229.734,350.164 234.606,345.135M370.864,269.36C363.294,272.692 361.506,274.081 359.534,277.808C366.298,278.865 367.273,272.338 370.864,269.36M-13.435,167.158L-12.94,167.855C-8.641,165.306 -4.357,162.73 -0.033,160.224C1.18,159.522 1.849,158.419 1.164,157.357C0.164,155.807 -0.918,157.277 -1.704,157.881C-5.657,160.917 -9.532,164.055 -13.435,167.158M-17.868,215.863C-22.584,219.078 -27.059,222.65 -31.903,225.756C-33.057,226.496 -34.34,227.661 -33.016,229.005C-31.806,230.234 -30.944,228.625 -30.179,227.888C-26.046,223.909 -21.966,219.877 -17.868,215.863M204.183,413.251C211.056,409.068 216.024,402.836 221.582,397.213C214.918,401.611 209.399,407.232 204.183,413.251M162.524,426.287C170.204,423.273 171.66,421.228 170.69,415.721C167.677,418.649 164.785,421.622 162.524,426.287M3.805,191.562C3.388,191.141 2.97,190.721 2.553,190.3C-2.753,195.152 -8.059,200.003 -13.366,204.854C-8.136,199.862 -0.429,197.643 3.805,191.562M212.557,309.812C218.991,302.749 225.426,295.687 230.678,289.922C224.977,295.141 218.091,301.658 212.557,309.812M79.249,-244.066C72.447,-239.358 67.283,-233.434 63.139,-227.901C67.98,-232.759 73.519,-238.316 79.249,-244.066M454.92,384.157C458.1,382.332 461.02,378.569 463.702,380.761C466.942,383.407 467.693,381.3 469.639,379.843C462.185,376.667 456.699,378.213 454.92,384.157M115.022,421.757C114.624,425.453 113.766,428.286 116.459,428.889C120.86,429.874 123.676,426.909 126.603,423.058C122.337,424.496 118.683,428.146 115.022,421.757M276.236,-240.917C269.47,-236.167 262.704,-231.417 255.938,-226.667C264.124,-229.45 270.482,-234.765 276.236,-240.917M-29.201,185.333C-33.96,187.648 -38.165,190.981 -43.176,192.997C-44.86,193.674 -45.342,195.425 -44.255,196.736C-43.14,198.078 -42.235,196.412 -41.438,195.744C-37.332,192.306 -33.275,188.809 -29.201,185.333M234.669,262.02C229.052,265.436 223.038,268.286 218.414,273.116C224.808,270.86 230.733,267.914 234.669,262.02M-28.356,195.293C-32.66,198.096 -36.011,200.217 -39.293,202.438C-41.624,204.016 -41.844,208.728 -39.814,210.703C-39.23,211.271 -38.623,211.376 -38.021,210.984C-36.708,210.128 -37.814,210.013 -38.396,209.423C-40.272,207.521 -38.672,206.084 -37.424,204.751C-34.71,201.853 -31.933,199.015 -28.356,195.293M482.833,267.452C483.107,267.836 483.381,268.221 483.655,268.605C490.402,264.161 497.796,260.623 502.682,253.577C496.065,258.202 489.449,262.827 482.833,267.452M143.327,256.133C137,260.905 130.024,264.909 125.119,273.036C132.994,267.957 137.757,261.56 143.327,256.133M202.564,297.033C208.564,295.663 211.33,290.156 215.705,286.61C210.729,287.218 207.296,289.889 202.564,297.033M-8.658,-204.499C-14.84,-198.876 -19.741,-192.198 -23.662,-184.772C-17.44,-190.369 -13.577,-197.808 -8.658,-204.499M196.427,425.303C203.299,426.4 210.01,425.9 217.999,425.037C213.905,424.397 213.699,422.092 213.827,419.655C208.004,422.412 203.809,428.402 196.427,425.303M176.573,394.358C181.719,391.349 185.325,386.854 191.389,385.558C184.62,384.437 178.32,383.472 171.938,384.984C175.493,384.864 180.106,383.048 181.97,386.826C183.823,390.582 177.956,390.96 176.573,394.358M54.565,-245.032C49.097,-245.346 43.843,-244.528 38.623,-243.405C37.659,-243.198 36.477,-243.226 36.351,-241.918C36.294,-241.326 36.493,-240.368 36.895,-240.141C37.941,-239.551 38.716,-240.589 39.552,-241.037C41.862,-242.276 44.884,-245.126 46.711,-243.167C51.001,-238.566 52.297,-243.152 54.565,-245.032M108.081,-224.056C102.7,-218.692 95.878,-214.704 91.682,-207.006C99.295,-211.443 103.922,-217.526 108.081,-224.056M302.67,417.95C298.443,426.095 290.88,420.131 285.654,423.632C290.572,424.227 295.404,424.007 300.207,424.294C304.368,424.542 304.629,422.752 302.67,417.95M69.844,247.369C63.224,254.469 54.568,259.644 48.584,268.532C56.955,262.17 63.207,254.624 69.844,247.369M42.878,-198.177C50.884,-203.803 54.944,-210.985 59.466,-217.791C53.247,-212.421 47.793,-206.401 42.878,-198.177M-32.236,128.011C-21.911,120.892 -11.585,113.774 -1.26,106.655C-12.172,112.999 -22.887,119.607 -32.236,128.011M102.487,248.7C94.32,255.668 85.424,261.813 78.399,270.07C87.299,263.928 95.206,256.667 102.487,248.7M-24.885,-73.828C-19.464,-80.493 -11.141,-84.979 -7.56,-93.222C-7.992,-93.567 -8.425,-93.913 -8.858,-94.259C-14.2,-87.448 -19.543,-80.638 -24.885,-73.828M122.254,-227.903C116.035,-221.584 108.323,-216.937 103.237,-209.62C110.815,-214.473 117.543,-220.211 122.254,-227.903M581.869,247.783C573.556,253.626 565.244,259.47 556.932,265.313C557.209,265.699 557.487,266.085 557.764,266.471C565.933,260.496 575.039,255.833 581.869,247.783M1.122,223.928C4.997,222.65 6.574,220.006 8.982,218.572C11.053,217.339 11.262,216.389 10.075,214.209C6.646,207.916 6.839,207.893 1.833,212.841C0.449,214.209 -1.35,215.156 -2.958,216.297C-2.566,216.695 -2.174,217.094 -1.782,217.492C0.109,215.91 1.932,214.236 3.916,212.78C5.17,211.859 6.759,211.319 7.982,212.836C9.025,214.13 8.276,215.415 7.394,216.492C5.586,218.701 3.717,220.86 1.122,223.928M289.962,277.255C290.015,277.506 290.069,277.757 290.123,278.009C295.771,278.009 301.419,278.034 307.066,277.99C308.347,277.98 309.871,278.365 310.627,276.822C310.798,276.473 310.685,275.633 310.432,275.487C309.027,274.675 307.93,275.817 306.742,276.276C301.187,278.423 300.236,278.05 298.699,272.742C295.747,274.267 292.855,275.761 289.962,277.255M174.685,388.908C162.066,392.951 153.59,402.476 144.916,411.748C154.113,403.236 162.936,394.24 174.685,388.908M223.658,386.243C215.194,392.417 207.354,399.429 200.086,407.073C209.241,401.646 216.05,393.563 223.658,386.243M19.302,-194.968C13.012,-190.122 7.544,-185.743 4.656,-178.296C11.154,-182.657 16.243,-187.427 19.302,-194.968M297.496,256.729C290.024,261.72 282.551,266.71 275.078,271.7C283.579,268.226 292.017,264.659 297.496,256.729M345.612,275.72C355.961,273.808 360.577,266.425 366.661,261.062C360.143,265.828 352.381,268.88 345.612,275.72M421.366,402.914C431.379,395.776 439.718,386.657 450.035,379.868C449.592,379.346 449.149,378.825 448.706,378.303C439.593,386.507 430.479,394.71 421.366,402.914M177.723,400.966C170.066,407.505 162.41,414.045 154.754,420.585C164.662,416.648 170.927,408.5 177.723,400.966M580.956,132.34C585.288,128.687 589.631,125.047 593.946,121.374C595.306,120.217 594.584,118.858 594.015,117.686C593.306,116.223 592.863,114.385 590.764,114.201C589.878,114.123 588.973,114.343 588.73,115.288C588.425,116.474 589.316,116.54 590.234,116.695C594.274,117.377 592.876,119.163 590.966,120.867C587.209,124.215 583.496,127.598 580.956,132.34M209.315,271.015C219.043,266.799 226.738,259.71 234.681,252.957C225.824,258.386 217.208,264.151 209.315,271.015M452.158,405.319C452.586,405.109 453.069,404.969 453.434,404.68C461.503,398.275 468.034,390.103 476.743,384.432C477.675,383.826 477.724,383.078 476.742,382.514C475.663,381.893 474.623,381.623 473.681,382.952C467.666,391.435 459.538,397.837 452.158,405.319M614.547,215.421C618.823,210.631 628.144,210.65 628.104,200.063C622.947,205.696 617.938,209.788 614.547,215.421M429.287,421.519C436.138,421.534 443.181,423.41 449.733,420.577C442.691,418.305 435.938,419.4 429.287,421.519M373.67,274.128C383.192,268.621 389.561,259.463 398.256,252.997C388.971,258.779 380.863,265.924 373.67,274.128M60.74,246.449C52.904,250.615 48.202,258.132 42.347,264.48C50.009,260.12 54.891,252.854 60.74,246.449M336.673,392.358C327.726,399.428 319.573,407.188 312.65,416.168C320.608,408.28 328.566,400.392 336.673,392.358M278.504,394.077C273.431,395.923 257.215,409.847 254.196,414.492C263.23,408.787 270.249,400.744 278.504,394.077M498.647,267.146C506.936,264.044 513.631,258.804 519.051,251.853C512.178,256.854 504.074,260.205 498.647,267.146M423.504,410.207C435.872,402.965 443.365,396.443 445.042,391.509C437.86,398.16 429.503,402.767 423.504,410.207M-9.078,-223.246C-18.423,-215.983 -32.065,-199.139 -32.828,-194.104C-25.198,-204.272 -17.286,-213.88 -9.078,-223.246M59.169,268.118C67.482,261.447 74.955,255.302 82.754,247.699C77.632,249.221 61.342,263.428 59.169,268.118M-19.823,-180.792C-10.894,-186.401 -0.425,-197.029 2.166,-203.132C-5.025,-196.101 -12.7,-189.547 -19.823,-180.792M-17.49,151.995C-17.345,152.208 -17.2,152.421 -17.055,152.634C-11.419,149.717 -5.778,146.808 -0.147,143.881C1.861,142.836 1.683,140.874 0.907,139.488C-0.488,136.996 -1.582,139.449 -2.538,140.186C-7.567,144.064 -12.514,148.048 -17.49,151.995M377.871,423.249C387.494,422.738 396.444,422.262 405.394,421.786C405.362,421.302 405.329,420.819 405.297,420.335C400.516,422.529 394.525,421.901 391.726,419.335C388.474,416.353 387.367,417.876 385.149,419.146C382.957,420.401 380.749,421.628 377.871,423.249M589.044,177.21C587.154,176.564 584.94,178.71 583.865,176.195C583.03,174.238 585.659,172.951 585.373,170.832C579.327,174.015 578.142,178.154 581.12,185.909C583.802,182.964 586.352,180.166 589.044,177.21M328.019,391.594C318.194,396.36 311.883,405.356 303.853,412.284C312.43,406.015 321.278,400.071 328.019,391.594M-8.908,-114.863C-18.172,-104.76 -28.055,-95.155 -35.785,-83.758C-25.479,-92.98 -18.125,-104.713 -8.908,-114.863M494.574,249.898C485.887,256.654 475.294,261.042 467.646,270.526C478.714,265.51 486.576,257.645 494.574,249.898M346.978,298.857C347.231,299.231 347.483,299.606 347.735,299.98C353.805,295.543 359.876,291.105 366.825,286.025C354.987,284.428 352.753,294.056 346.978,298.857M-25.514,140.672C-16.603,136.6 -9.477,129.814 -1.14,124.79C0.623,123.728 0.651,122.29 -0.742,120.398C-9.174,127.299 -17.344,133.986 -25.514,140.672M49.75,-195.219C58.877,-198.806 62.27,-205.809 65.521,-212.941C59.797,-207.984 53.254,-203.771 49.75,-195.219M217.189,409.673C217.36,409.964 217.53,410.255 217.701,410.545C225.536,404.744 233.393,398.973 241.173,393.1C242.024,392.458 244.054,391.785 242.56,390.123C241.553,389.004 240.431,389.914 239.489,390.717C232.062,397.043 224.624,403.356 217.189,409.673M-27.35,151.112C-16.239,145.597 -1.257,134.072 0.033,129.917C-10.221,136.011 -18.416,143.974 -27.35,151.112M254.167,258.039C246.167,263.943 236.37,267.323 229.8,275.234C238.615,270.475 248.362,267.024 254.167,258.039M619.427,241.671C610.86,245.315 590.646,261.555 588.087,266.61C598.519,258.538 609.109,251.384 619.427,241.671M-34.153,136.345C-30.362,133.859 -26.577,131.362 -22.776,128.892C-18.808,126.314 -14.795,123.806 -10.853,121.189C-2.108,115.385 -2.121,115.365 -1.137,112.121C-12.812,119.791 -23.841,127.455 -34.153,136.345M478.719,277.135C478.8,277.427 478.882,277.718 478.963,278.01C484.333,278.01 489.703,277.994 495.072,278.017C498.146,278.03 499.49,276.648 499.044,273.474C496.122,274.001 493,276.207 490.768,273.758C488.393,271.149 486.801,272.424 484.782,273.617C482.77,274.805 480.74,275.963 478.719,277.135M-37.825,-7.547C-26.071,-16.867 -18.356,-29.969 -11.955,-34.489C-16.977,-28.555 -29.981,-20.527 -37.825,-7.547M289.877,414.541C298.91,407.241 307.943,399.941 316.976,392.642C316.496,392.064 316.015,391.487 315.535,390.91C305.666,397.208 297.839,405.953 289.877,414.541M60.129,-242.468C46.635,-233.868 37.117,-221.407 27.306,-209.229C39.01,-219.568 47.495,-233.033 60.129,-242.468M92.922,247.872C82.941,253.817 74.821,261.878 67.796,271.113C77.436,264.786 84.672,255.828 92.922,247.872M-5.86,-140.377C-15.782,-129.523 -24.692,-118.064 -32.816,-106C-28.64,-110.609 -25.131,-115.772 -20.968,-120.34C-17.228,-124.443 -15.752,-131.285 -8.454,-131.499C-8.183,-131.507 -7.868,-132.573 -7.704,-133.182C-7.061,-135.572 -6.47,-137.977 -5.86,-140.377M93.491,-248.017C83.326,-241.351 75.968,-232.025 68.903,-222.422C77.677,-230.406 86.551,-238.294 93.491,-248.017M357.74,255.077C349.453,260.113 340.254,264.113 335.14,273.351C345.787,270.844 350.507,261.436 357.74,255.077M337.204,248.878C327.602,256.239 315.598,260.256 307.04,270.471C320.06,266.464 327.555,256.173 337.204,248.878M-33.629,105.138C-19.031,97.739 -2.354,84.909 -2.039,80.775C-12.941,89.182 -23.285,97.16 -33.629,105.138M319.69,271.868C330.111,266.307 340.918,261.443 348.38,251.897C338.889,258.718 327.557,262.888 319.69,271.868M29.656,-236.403C17.735,-228.699 8.297,-218.499 -0.015,-207.167C9.875,-216.913 19.765,-226.658 29.656,-236.403M612.922,130.471C602.21,136.197 593.534,144.271 586.629,154.284C597.468,148.701 603.435,137.679 612.922,130.471M209.293,357.928C212.819,355.357 216.42,352.883 219.852,350.194C224.503,346.549 229.033,342.75 233.594,338.991C234.568,338.187 235.355,336.887 234.522,335.911C233.408,334.604 232.429,336.1 231.593,336.779C229.498,338.481 227.354,340.152 225.451,342.056C220.118,347.391 212.823,350.557 209.293,357.928M590.256,190.938C603.823,180.017 615.963,167.602 629.614,156.899C615.423,167.056 601.715,177.764 590.256,190.938M474.237,413.004C485.328,409.461 486.331,407.711 484.172,396.353C476.929,401.551 469.824,406.65 462.719,411.75C463.761,412.218 464.335,411.967 464.864,411.643C469.751,408.653 474.617,405.627 479.522,402.666C480.912,401.827 482.577,401.494 483.608,403.01C484.747,404.685 483.319,405.807 482.126,406.768C479.515,408.869 476.869,410.928 474.237,413.004M233.46,308.748C223.835,317.011 216.973,326.93 209.971,336.761C217.289,329.108 224.436,321.301 232.782,314.727C234.628,313.272 234.114,311.216 233.46,308.748M351.236,329.752C364.518,318.546 375.713,305.038 389.883,294.811C376.208,305.585 361.769,315.515 351.236,329.752M323.804,422.005C337.852,415.174 345.847,401.996 357.002,392.132C356.683,391.797 356.363,391.462 356.044,391.127C345.297,401.419 334.55,411.712 323.804,422.005M-32.68,-75.469C-29.632,-78.775 -26.593,-82.088 -23.535,-85.384C-18.84,-90.444 -14.144,-95.502 -9.424,-100.539C-8.281,-101.76 -7.446,-103.356 -8.612,-104.582C-10.399,-106.462 -11.165,-103.929 -11.985,-103.105C-20.17,-94.88 -26.475,-85.217 -32.68,-75.469M-40.241,81.831C-39.977,82.174 -39.714,82.518 -39.45,82.861C-27.372,73.094 -15.294,63.327 -3.217,53.56C-3.49,53.22 -3.764,52.88 -4.038,52.54C-15.666,62.857 -30.331,69.357 -40.241,81.831M221.133,244.986C210.983,253.574 198.894,259.846 190.451,271.4C198.945,267.153 215.046,253.678 221.133,244.986M-6.211,-50.23C-6.751,-50.679 -7.29,-51.128 -7.83,-51.578C-17.166,-38.729 -31.783,-30.794 -39.267,-16.211C-28.248,-27.55 -17.23,-38.89 -6.211,-50.23M206.379,351.558C214.671,342.642 222.929,333.764 232.783,326.564C233.939,325.719 234.353,324.397 232.962,322.574C223.13,331.422 212.098,338.935 206.379,351.558M-29.796,-190.444C-24.444,-194.399 -1.132,-222.348 1.833,-228.284C-9.933,-215.717 -20.677,-203.731 -29.796,-190.444M587.945,163.744C599.502,156.607 607.31,145.713 617.716,137.814C618.363,137.323 619.344,136.774 618.643,135.816C617.808,134.675 616.894,135.327 616.078,136.05C606.311,144.707 595.659,152.462 587.945,163.744M115.682,247.398C104.17,253.996 94.851,263.02 86.978,273.647C98.448,267.004 105.816,255.818 115.682,247.398M193.268,-245.674C189.933,-246.818 188.605,-245.256 187.026,-244.425C178.126,-239.743 173.801,-230.089 165.504,-224.702C161.226,-221.924 157.28,-218.635 153.183,-215.576C167.713,-223.62 179.561,-235.083 193.268,-245.674M449.082,269.861C445.198,271.925 441.804,273.771 438.368,275.538C436.687,276.403 434.524,277.328 433.119,275.941C429.56,272.43 427.913,275.472 425.792,277.437C435.449,278.005 445.027,278.031 454.604,277.972C455.854,277.965 457.482,278.622 458.248,277.092C458.546,276.498 458.371,275.136 457.912,274.793C456.562,273.787 455.419,275.14 454.245,275.626C452.182,276.481 449.96,277.575 448.129,275.738C446.235,273.836 448.799,272.132 449.082,269.861M-35.513,69.065C-24.834,61.623 -15.068,53.027 -4.078,46.083C-2.783,45.265 -2.221,43.653 -3.043,42.553C-4.211,40.99 -5.577,42.527 -6.473,43.268C-16.453,51.525 -26.782,59.39 -35.513,69.065M-48.027,-141.721C-46.547,-142.679 -46.052,-142.871 -45.735,-143.223C-38.359,-151.404 -34.123,-161.717 -27.374,-170.332C-26.759,-171.117 -26.779,-172.472 -27.719,-173.091C-28.966,-173.913 -29.325,-172.54 -29.932,-171.821C-37.289,-163.119 -42.316,-153.023 -48.027,-141.721M391.071,343.038C375.774,355.146 359.213,365.848 347.431,381.872C362.192,369.166 375.895,355.282 391.071,343.038M155.317,-239.539C143.21,-233.74 134.567,-224.316 127.796,-212.947C138.115,-220.594 144.993,-231.871 155.317,-239.539M130.241,246.984C118.01,253.574 107.987,263.072 98.145,272.798C110.372,266.186 119.881,256.104 130.241,246.984M141.197,247.545C131.203,255.226 119.727,261.153 111.938,272.537C124.816,266.98 132.444,256.566 141.197,247.545M541.193,254.788C550.729,248.332 560.109,241.699 568.488,233.798C569.343,232.991 571.352,232.355 570.014,230.706C569.008,229.466 567.798,230.753 566.927,231.37C557.405,238.112 548.704,245.775 541.193,254.788M163.944,-213.055C176.069,-223.525 188.268,-234.049 201.398,-243.435C186.415,-236.461 174.806,-225.292 163.944,-213.055M301.369,243.152C288.508,253.319 273.911,261.38 261.866,272.79C277.839,266.705 287.495,252.187 301.369,243.152M118.04,415.46C129.118,406.261 138.12,394.828 148.952,385.28C135.228,391.702 127.734,404.71 118.04,415.46M529.364,255.21C521.254,260.505 511.975,264.442 506.448,273.071C505.64,274.333 504.145,275.427 504.503,277.01C504.836,278.48 506.482,277.898 507.585,278.029C509.496,278.258 510.721,277.618 511.315,275.541C512.124,272.711 514.168,270.607 516.204,268.552C520.601,264.115 524.978,259.658 529.364,255.21M595.104,166.392C608.635,157.675 619.594,146.078 630.977,134.954C619.095,145.518 604.816,153.395 595.104,166.392M289.264,272.366C306.867,266.542 317.382,251.03 334.106,242.103C329.842,242.122 326.78,240.908 325.608,245.236C325.314,246.322 323.782,247.12 322.738,247.949C315.076,254.031 306.791,259.202 298.547,264.437C295.178,266.576 291.724,268.654 289.264,272.366M104.107,-247.335C91.695,-238.218 81.587,-226.838 72.774,-214.237C84.248,-224.255 94.729,-235.22 104.107,-247.335M494.733,238.611C487.755,240.376 461.105,262.199 459.067,267.301C473.225,260.455 482.272,247.422 494.733,238.611M-6.146,-26.803C-17.474,-17.253 -30.293,-9.208 -37.817,4.21C-25.826,-4.645 -16.339,-16.095 -6.146,-26.803M477.17,238.374C465.88,248.167 452.198,255.074 442.648,266.964C456.801,260.624 467.389,249.986 477.17,238.374M424.599,380.726C418.093,380.193 416.03,386.459 411.744,389.284C407.268,392.235 403.428,396.137 399.223,399.515C394.966,402.935 390.838,406.454 386.797,411.736C402.022,403.343 412.558,391.149 424.599,380.726M15.493,-180.339C24.823,-181.347 31.687,-186.372 38.958,-191.072C36.745,-193.017 33.08,-192.053 32.602,-195.894C32.422,-197.345 30.908,-196.234 30.27,-195.647C25.091,-190.883 19.59,-186.414 15.493,-180.339M379.429,286.129C375.201,285.197 372.169,285.802 369.734,288.302C362.537,295.692 355.389,303.131 348.222,310.551C360.244,304.674 369.086,294.978 379.429,286.129M287.253,243.678C282.828,243.967 248.604,270.428 246.855,274.488C263.4,268.19 272.663,252.508 287.253,243.678M595.93,176.308C607.976,168.577 617.651,158.102 629.052,149.756C630.81,148.469 631.053,146.615 630.489,144.169C617.406,153.756 606.269,164.659 595.93,176.308M122.439,419.799C138.627,411.973 149.534,398.171 162.814,385.224C160.391,385.387 158.639,385.01 158.194,385.607C148.202,399.01 134.319,408.323 122.439,419.799M411.86,380.21C409.511,379.707 407.709,377.502 406.148,380.244C403.162,385.492 398.538,389.121 394.083,392.938C386.628,399.325 378.696,405.218 372.594,413.558C387.225,404.28 399.222,392.512 411.86,380.21M234.406,354.659C223.394,360.652 204.355,376.638 199.245,384.127C199.794,383.927 200.291,383.831 200.698,383.584C212.428,376.471 222.24,366.802 233.445,358.985C234.868,357.993 235.25,356.641 234.406,354.659M255.684,423.268C258.962,421.708 262.101,420.027 264.777,417.435C271.822,410.611 279.323,404.305 287.501,398.876C292.301,395.688 296.911,391.701 303.444,392.96C297.225,392.454 291.274,391.177 285.776,396.401C276.046,405.644 264.064,412.378 255.684,423.268M198.547,245.862C193.049,245.148 164.161,268.301 160.876,275.534C176.053,268.119 184.356,254.115 198.547,245.862M-42.769,-68.714C-49.897,-69.088 -48.884,-64.421 -48.857,-60.314C-48.815,-54.056 -48.87,-47.797 -48.806,-41.539C-48.795,-40.502 -49.337,-39.083 -47.104,-38.449C-45.519,-40.775 -43.31,-43.054 -42.304,-45.776C-41.406,-48.207 -45.394,-46.855 -45.932,-48.902C-46.262,-50.16 -46.16,-51.221 -45.549,-52.291C-44.379,-54.34 -43.183,-56.375 -42.023,-58.429C-41.554,-59.259 -40.312,-60.593 -41.227,-61.01C-45.454,-62.934 -43.182,-66.025 -42.769,-68.714M26.894,-216.473C15.956,-208.652 0.071,-192.344 -3.262,-185.818C0.859,-182.765 3.358,-185.795 5.345,-188.561C11.987,-197.803 18.875,-206.852 26.894,-216.473M213.626,-241.321C204.859,-239.381 173.495,-215.98 171.286,-210.329C187.241,-218.357 198.653,-232.258 213.626,-241.321M119.895,-248.154C106.001,-233.477 90.986,-219.871 77.863,-204.457C96.34,-214.754 104.819,-234.606 119.895,-248.154M345.652,325.192C349.448,322.142 353.279,319.134 357.034,316.034C367.54,307.36 376.389,296.653 388.723,290.223C390.444,289.326 390.872,287.85 389.68,286.512C388.329,284.996 386.91,286.156 385.742,287.184C371.957,299.316 357.158,310.355 345.652,325.192M352.585,366.726C352.897,366.604 353.245,366.537 353.515,366.353C366.82,357.271 377.04,344.549 390.179,335.255C391.799,334.109 391.541,332.202 390.824,330.534C376.33,341.149 363.597,353.096 352.585,366.726M352.379,419.363C362.929,411.987 373.481,404.787 382.549,395.589C388.56,389.491 394.565,383.294 401.496,378.151C402.26,377.583 403.641,377.579 403.639,376.326C403.638,375.841 402.965,375.134 402.438,374.916C400.957,374.304 400.429,375.663 399.655,376.496C390.676,386.159 380.277,394.214 370.184,402.627C363.919,407.849 356.493,411.855 352.379,419.363M-10.089,33.392C-11.771,34.439 -13.48,35.445 -15.131,36.539C-24.756,42.912 -32.432,51.732 -41.813,58.281C-47.751,62.427 -46.944,67.174 -46.512,73.363C-45.099,71.954 -43.138,71.051 -44.208,69.857C-47.966,65.661 -43.7,64.482 -41.66,62.991C-30.002,54.471 -20.114,44.039 -10.089,33.392M-40.03,39.486C-42.087,39.661 -44.65,41.735 -45.852,38.991C-46.97,36.438 -44.418,35.123 -42.961,33.634C-39.552,30.153 -36.023,26.79 -32.542,23.379C-36.87,25.073 -40.145,28.165 -44.682,28.858C-46.364,29.115 -46.839,30.293 -46.839,31.776C-46.837,38.692 -46.836,45.608 -46.794,52.524C-46.785,54.041 -46.36,55.671 -44.501,54.124C-35.462,46.602 -26.453,39.03 -19.304,29.573C-24.95,34.387 -30.322,39.49 -35.837,44.433C-37.616,46.028 -39.777,49.053 -42.173,47.146C-45.109,44.808 -41.47,42.885 -40.4,40.859C-40.249,40.573 -40.223,40.222 -40.03,39.486M-43.358,-125.319C-38.32,-129.097 -5.409,-170.409 -3.193,-175.682C-17.521,-159.677 -32.312,-144.045 -43.358,-125.319M-33.151,96.806C-24.546,90.722 -16.232,84.157 -7.234,78.725C-1.32,75.155 -1.237,70.449 -1.928,64.975C-2.277,62.212 -3.193,60.886 -6.05,63.375C-9.861,66.696 -14.111,69.508 -18.022,72.722C-23.148,76.934 -29.077,80.183 -33.342,85.466C-25.627,80.706 -17.566,76.535 -10.673,70.516C-8.72,68.809 -5.94,65.064 -3.592,67.956C-0.895,71.279 -5.471,73.004 -7.615,74.515C-16.88,81.047 -24.865,89.056 -33.151,96.806M593.248,202.935C602.852,196.47 612.081,189.422 620.617,181.487C622.239,179.979 624.403,177.354 626.563,179.665C628.956,182.226 625.761,183.619 624.135,185.157C619.04,189.978 613.97,194.825 608.89,199.662C613.61,197.33 617.596,194.225 621.662,191.229C622.935,190.292 624.615,189.747 625.782,191.212C627.02,192.766 625.817,194.038 624.633,195.086C623.242,196.316 621.814,197.503 620.402,198.709C622.999,196.315 628.486,196.465 628.76,192.709C629.402,183.902 628.965,175.016 628.965,166.047C626.695,166.822 624.928,168.573 623.169,170.953C625.18,171.23 627.319,170.163 627.901,172.464C628.334,174.18 626.737,175.141 625.686,176.182C624.73,177.129 623.664,177.972 622.608,178.811C612.712,186.676 602.474,194.121 593.248,202.935M199.024,393.648C203.247,395.264 206.182,393.193 209.085,390.896C214.765,386.401 220.439,381.895 226.202,377.509C227.73,376.345 229.437,374.733 231.589,376.604C232.495,377.391 232.639,379.409 234.568,378.55C236.405,377.731 235.894,376.002 235.909,374.556C235.928,372.703 235.889,370.835 235.672,368.997C235.518,367.695 235.416,365.779 234.602,365.296C233.145,364.43 231.901,366.079 230.791,367.007C220.19,375.859 209.622,384.751 199.024,393.648M568.069,270.193C580.259,263.26 590.943,256.543 600.051,247.609C606.929,240.862 614.184,234.531 622.046,228.999C626.649,225.761 626.737,221.565 626.715,215.642C624.349,218.247 621.668,219.831 621.468,221.683C620.913,226.816 617.277,229.189 613.919,231.868C608.388,236.28 602.742,240.553 597.054,244.762C587.05,252.163 576.389,258.784 568.069,270.193M386.921,365.534C391.266,366.639 391.55,367.7 388.558,371.612C380.593,382.027 370.327,390.113 360.811,398.959C352.697,406.503 343.414,412.768 336.358,421.532C342.17,417.88 348.395,414.554 353.156,409.771C366.409,396.457 380.132,383.741 395.099,372.378C396.142,371.586 397.819,370.844 397.259,369.286C395.189,363.529 393.581,357.625 392.137,350.875C380.951,362.32 369.26,371.521 357.684,380.871C366.358,374.744 375.628,369.46 383.277,361.955C385.125,360.142 387.175,356.1 390.089,359.113C392.464,361.568 388.095,363.029 386.921,365.534M287.664,285.705L287.664,285.754C274.648,285.754 261.633,285.774 248.617,285.746C240.951,285.729 240.96,285.693 241.42,293.449C241.49,294.629 241.44,295.817 241.445,297.001C241.566,321.852 242.196,346.689 243.368,371.513C244.013,385.188 243.59,384.124 258.355,385.704C270.235,386.975 281.901,383.955 293.731,384.584C304.379,385.151 314.962,383.009 325.632,383.531C327.264,383.61 328.929,382.914 330.586,382.619C334.2,381.978 335.703,379.874 335.497,376.197C335.061,368.436 334.619,360.667 334.49,352.896C334.151,332.446 334.355,311.995 335.418,291.568C335.647,287.181 334.368,285.546 329.802,285.621C315.759,285.852 301.71,285.705 287.664,285.705M377.419,334.158C366.572,340.831 356.649,348.588 348.583,358.53C358.722,351.024 369.054,343.744 377.399,334.134C379.654,333.49 380.934,331.615 382.497,330.097C391.271,324.319 392.326,321.754 389.242,312.861C375.797,325.75 359.546,335.106 346.625,349.939C355.2,345.91 360.872,339.848 367.057,334.436C372.137,329.992 377.307,325.646 382.54,321.384C383.885,320.289 385.647,318.434 387.423,320.125C389.472,322.077 387.317,323.783 386.227,325.343C385.077,326.989 383.737,328.503 382.48,330.075C380.258,330.773 378.925,332.572 377.419,334.158M423.122,253.942C413.974,259.805 404.872,265.729 396.689,272.898C406.735,268.252 415.961,262.497 423.086,253.904C424.647,253.365 425.959,252.521 426.74,251.028C426.412,250.691 426.083,250.354 425.754,250.017C424.877,251.325 423.999,252.634 423.122,253.942M-4.468,-162.423C-13.43,-151.573 -23.416,-141.538 -30.738,-129.384C-21.762,-140.222 -11.745,-150.23 -4.452,-162.407C-3.323,-163.485 -1.93,-164.348 -1.361,-166.158C-3.185,-165.377 -3.821,-163.896 -4.468,-162.423M-30.871,14.262C-21.986,7.036 -12.269,0.747 -4.942,-8.25C-9.675,-6.782 -12.627,-3.039 -16.067,-0.019C-21.213,4.499 -26.786,8.632 -30.846,14.291C-32.433,14.799 -33.668,15.731 -34.47,17.185C-34.158,17.504 -33.846,17.824 -33.535,18.143C-32.647,16.85 -31.759,15.556 -30.871,14.262M451.559,249.882C441.842,256.178 432.381,262.802 424.167,271.018C433.531,264.273 443.884,258.787 451.523,249.842C453.062,249.271 454.418,248.479 455.168,246.949C454.855,246.629 454.544,246.309 454.232,245.989C453.341,247.287 452.45,248.584 451.559,249.882M372.342,318.932C364.176,324.299 356.75,330.509 349.607,338.877C359.063,333.139 365.54,325.851 372.308,318.894C374.931,318.01 376.395,315.898 377.473,313.396C375.763,315.241 374.052,317.086 372.342,318.932M410.938,251.914C402.629,257.166 395.735,264.172 388.108,270.269C397.255,266.052 403.792,258.609 410.901,251.873C416.173,248.123 421.445,244.373 426.716,240.623C426.418,240.226 426.12,239.829 425.822,239.433C420.287,242.828 415.589,247.339 410.938,251.914M167.191,251.916C159.891,256.809 153.291,262.492 147.517,269.111C154.773,264.167 161.156,258.238 167.151,251.872C169.93,250.82 171.503,248.43 173.806,246.85C173.497,246.517 173.187,246.183 172.877,245.85C170.982,247.872 169.086,249.894 167.191,251.916M-1.426,-157.353C5.056,-161.456 9.051,-167.772 13.24,-173.915C7.814,-168.871 2.877,-163.394 -1.398,-157.328C-2.83,-155.861 -4.691,-154.766 -5.735,-152.349C-3.575,-153.799 -2.162,-155.284 -1.426,-157.353M246.41,397.124C239.864,400.013 235.028,404.99 230.472,410.309C236.144,406.352 241.794,402.369 246.372,397.082C249.567,394.822 252.733,392.457 257.134,394.48C251.887,391.392 251.74,391.434 246.41,397.124M-19.715,-112.683C-16.127,-117.019 -10.343,-119.632 -9.077,-125.79C-12.721,-121.497 -16.92,-117.634 -19.671,-112.643C-21.218,-111.314 -22.765,-109.985 -24.312,-108.656C-21.85,-109.164 -20.387,-110.588 -19.715,-112.683M135.811,285.706C123.318,285.706 110.825,285.639 98.333,285.73C90.737,285.786 83.161,285.535 75.549,286.524C65.916,287.776 56.424,284.962 46.822,284.394C34.175,283.646 21.703,281.374 9.534,277.704C0.728,275.048 -7.329,271.133 -14.455,265.08C-26.86,254.544 -37.779,242.902 -43.737,227.495C-46.9,219.316 -49.282,210.835 -51.968,202.474C-52.273,201.526 -52.408,200.473 -52.378,199.476C-51.297,162.809 -53.613,126.182 -53.767,89.525C-53.83,74.498 -54.159,59.438 -54.557,44.399C-55.51,8.397 -55.788,-27.622 -56.778,-63.616C-57.424,-87.135 -57.892,-110.653 -57.392,-134.145C-56.88,-158.232 -52.203,-181.612 -38.428,-202.057C-22.224,-226.106 -1.362,-243.226 28.146,-249.618C56.173,-255.69 84.267,-257.111 112.731,-257.223C138.973,-257.326 165.14,-255.855 191.315,-254.801C220.517,-253.624 249.676,-251.354 278.913,-250.706C282.93,-250.617 286.911,-249.44 290.934,-249.006C300.658,-247.956 310.457,-249.493 320.209,-248.094C324.386,-247.495 328.785,-247.447 329.777,-242.481C330.843,-237.147 326.53,-234.809 322.575,-233.463C312.507,-230.039 302.282,-227.063 292.066,-224.09C260.305,-214.846 228.513,-205.707 196.752,-196.463C193.726,-195.582 190.713,-195.792 187.688,-195.899C156.574,-197.001 125.414,-196.354 94.379,-195.088C70.265,-194.104 46.037,-189.197 26.508,-173.088C9.225,-158.831 -1.442,-140.427 -1.1,-117.38C-0.707,-90.863 1.446,-64.399 2.125,-37.873C2.565,-20.654 3.423,-3.434 4.095,13.785C5.201,42.149 6.252,70.511 7.162,98.882C7.758,117.459 8.561,136.032 9.186,154.611C9.724,170.592 10.176,186.627 13.737,202.38C17.541,219.207 33.477,233.686 50.552,236.599C61.211,238.417 71.993,238.236 82.686,239.85C89.905,240.94 97.816,239.69 105.409,239.333C134.129,237.985 162.878,237.91 191.61,237.158C222.548,236.348 253.484,235.602 284.43,235.154C315.21,234.709 345.994,234.189 376.759,233.196C405.841,232.257 434.929,231.81 464.007,230.998C473.685,230.727 483.469,231.138 493.246,229.036C497.707,228.077 503.341,230.135 508.516,230.514C518.508,231.247 528.298,229.824 538.132,228.678C542.476,228.172 546.804,227.735 551.054,226.404C568.472,220.949 574.088,206.026 572.989,191.748C571.545,172.977 572.465,154.216 572.119,135.456C571.995,128.689 572.029,121.916 572.182,115.15C572.314,109.304 574.374,106.98 580.08,106.806C584.448,106.674 588.857,107.133 593.211,107.643C595.74,107.939 597.257,109.991 598.434,112.096C599.753,114.455 600.605,117.142 602.23,119.246C604.333,121.967 606.42,125.334 610.893,121.853C614.676,118.91 617.193,121.618 618.892,124.9C620.97,128.911 623.075,130.167 627.504,127.311C634.973,122.495 638.3,124.463 638.455,133.746C638.634,144.556 638.267,155.379 637.976,166.192C637.625,179.202 637.363,192.222 636.581,205.209C635.87,217.024 634.45,228.763 629.192,239.677C619.463,259.871 602.56,271.674 582.316,279.152C559.411,287.612 535.62,289.311 511.429,286.902C505.215,286.283 499.013,285.605 492.72,285.636C463.271,285.781 433.82,285.799 404.371,285.605C399.605,285.573 397.92,286.802 397.924,291.788C397.937,310.884 398.28,329.971 400.226,348.961C401.023,356.741 402.063,364.84 409.776,369.85C412.486,371.611 415.086,372.518 418.253,372.487C434.493,372.326 450.743,372.546 466.972,372.063C480.299,371.666 489.388,382.199 491.259,391.147C493.308,400.95 492.792,411 493.129,420.943C493.296,425.872 490.174,428.447 484.34,428.759C478.272,429.083 472.195,429.553 466.144,429.745C444.345,430.436 422.521,430.354 400.719,430.968C375.865,431.669 350.998,431.472 326.156,432.1C292.849,432.942 259.519,432.987 226.239,434.213C198.85,435.221 171.454,434.392 144.076,435.727C133.338,436.251 122.514,435.102 111.733,434.617C108.816,434.486 107.661,432.161 107.341,429.768C105.855,418.658 105.516,407.5 108.571,396.609C111.925,384.657 120.275,379.122 132.717,378.347C150.942,377.212 169.152,376.198 187.418,376.489C191.077,376.548 192.937,374.041 194.038,371.141C195.109,368.319 196.112,365.281 196.205,362.308C196.647,348.11 196.835,333.896 195.805,319.712C195.118,310.246 195.207,300.773 195.394,291.309C195.475,287.224 193.838,285.87 190.042,285.987C171.969,286.545 153.892,286.682 135.811,285.706" style="fill:rgb(16,46,108);fill-rule:nonzero;"/>
                </g>
                <g transform="matrix(1.42925,0,0,1.20321,802.22,214.665)">
                    <path d="M0,-120.519C-0.262,-120.162 -0.6,-119.76 -0.572,-119.732C-0.267,-119.433 0.096,-119.193 0.443,-118.938C0.608,-119.169 0.962,-119.526 0.905,-119.61C0.677,-119.953 0.323,-120.213 0,-120.519M108.461,-87.413C108.02,-87.575 107.644,-87.795 107.259,-87.811C107.114,-87.817 106.949,-87.35 106.793,-87.099C107.149,-86.9 107.492,-86.649 107.874,-86.544C107.962,-86.519 108.188,-86.998 108.461,-87.413M-213.34,-48.958C-213.405,-48.8 -213.471,-48.641 -213.535,-48.482C-213.055,-48.419 -212.557,-48.249 -212.099,-48.323C-211.669,-48.393 -210.874,-47.892 -210.816,-48.958L-213.34,-48.958ZM3.483,-132.961C2.039,-134.033 1.119,-133.93 0.294,-132.8C1.236,-132.154 2.127,-132.262 3.483,-132.961M-118.771,8.083C-120.515,7.787 -121.793,7.546 -124.078,8.654C-121.764,8.697 -120.481,9.176 -118.771,8.083M-140.114,-128.098C-139.141,-127.148 -138.202,-127.215 -137.114,-127.911C-138.107,-128.768 -139.02,-129.143 -140.114,-128.098M-97.328,-136.762C-95.007,-137.772 -93.811,-138.293 -92.614,-138.814C-94.168,-139.133 -95.67,-139.421 -97.328,-136.762M-21.387,-143.935C-22.568,-143.71 -23.91,-143.727 -24.448,-142.206C-22.754,-141.645 -21.966,-142.624 -21.387,-143.935M13.525,-129.31C12.834,-129.324 12.211,-129.089 12.119,-128.377C12.086,-128.127 12.664,-127.556 12.963,-127.557C13.519,-127.557 14.404,-127.725 14.561,-128.082C14.869,-128.782 14.15,-129.116 13.525,-129.31M151.018,-65.682C152.594,-65.716 153.619,-65.53 154.18,-66.662C154.269,-66.842 153.991,-67.447 153.868,-67.451C152.86,-67.486 151.911,-67.296 151.018,-65.682M-67.119,-145.883C-67.531,-147.022 -68.288,-147.299 -69.193,-147.253C-69.763,-147.224 -70.215,-146.885 -70.012,-146.281C-69.713,-145.394 -68.979,-144.913 -68.054,-145.07C-67.685,-145.132 -67.391,-145.633 -67.119,-145.883M3.299,15.668C5.097,16.388 6.063,15.456 7.303,14.324C5.556,14.007 4.107,13.558 3.299,15.668M-139.524,-29.819C-137.449,-29.048 -136.154,-28.694 -134.552,-29.73C-136.217,-30.711 -137.476,-30.691 -139.524,-29.819M26.688,7.958C24.836,8.208 22.704,6.94 21.05,8.738C20.911,8.888 20.988,9.524 21.149,9.619C23.359,10.92 24.805,8.638 26.688,7.958M-53.822,-153.116C-51.964,-154.137 -50.105,-155.158 -47.077,-156.822C-51.967,-156.153 -51.967,-156.153 -53.822,-153.116M-109.939,-129.8L-116.853,-129.8C-112.817,-127.568 -112.817,-127.568 -109.939,-129.8M-84.799,23.966C-83.293,25.198 -82.119,26.235 -80.522,25.214C-79.901,24.818 -79.911,23.966 -80.415,23.438C-81.794,21.993 -83.109,22.716 -84.799,23.966M12.841,-103.598C11.398,-101.884 12.227,-100.93 12.736,-100.22C13.61,-99.004 13.872,-95.926 15.809,-97.17C18.398,-98.834 14.355,-99.061 14.284,-100.546C14.242,-101.435 13.491,-102.29 12.841,-103.598M-172.099,-51.455C-175.028,-52.976 -177.95,-52.947 -180.865,-51.455L-172.099,-51.455ZM-9.694,-139.228C-13.017,-139.63 -15.353,-139.511 -17.858,-137.316C-14.66,-136.403 -12.402,-136.759 -9.694,-139.228M-37.27,-145.383C-34.488,-145.609 -31.672,-145.815 -29.035,-148.594C-32.965,-149.006 -34.875,-146.537 -37.27,-145.383M-93.806,16.098C-96.99,15.238 -100.119,14.85 -104.579,16.155C-100.046,17.35 -96.895,16.644 -93.806,16.098M19.805,-80.779C21.603,-78.732 22.943,-77.017 25.463,-77.84C26.269,-78.104 26.707,-79.308 26.16,-79.977C24.51,-81.999 22.421,-81.325 19.805,-80.779M45.555,-70.55C50.644,-67.178 52.758,-70.53 55.097,-72.995C52.312,-72.281 49.527,-71.568 45.555,-70.55M103.346,-85.07C98.977,-84.591 94.932,-83.131 91.405,-80.383C95.578,-81.383 99.681,-82.552 103.346,-85.07M-155.793,-87.115C-150.095,-85.422 -145.638,-84.067 -140.867,-84.774C-145.265,-86.321 -149.624,-88.045 -155.793,-87.115M48.341,-104.291C52.409,-105.375 56.97,-104.945 60.237,-108.492C55.886,-108.277 51.919,-106.879 48.341,-104.291M19.333,-14.884C16.873,-16.677 14.402,-17.763 11.649,-17.537C10.668,-17.456 9.36,-17.487 9.244,-16.247C9.11,-14.818 10.475,-14.924 11.414,-14.904C14.053,-14.848 16.693,-14.884 19.333,-14.884M23.47,-114.378C23.648,-113.911 23.826,-113.443 24.004,-112.976C28.378,-114.96 33.597,-114.732 37.421,-118.155C37.266,-118.562 37.111,-118.969 36.955,-119.376C32.46,-117.71 27.965,-116.044 23.47,-114.378M-140.3,-94.693C-135.674,-93.717 -135.292,-97.208 -134.291,-99.847C-133.814,-101.104 -134.964,-101.581 -136.053,-101.636C-137.259,-101.696 -138.624,-101.697 -138.209,-99.866C-137.717,-97.698 -137.884,-95.883 -140.3,-94.693M-179.282,-110.157C-182.785,-114.58 -185.885,-114.398 -191.02,-110.157L-179.282,-110.157ZM74.346,-94.79C77.828,-93.343 79.764,-95.859 82.15,-95.863C83.286,-95.865 84.618,-96.018 84.969,-97.389C85.076,-97.81 84.513,-98.6 84.05,-98.93C82.894,-99.753 81.477,-100.015 80.336,-99.084C78.598,-97.665 77.269,-95.763 74.346,-94.79M49.603,-0.054C46.283,-0.054 43.325,-0.154 40.379,-0.014C38.836,0.059 37.876,1.3 38.066,2.734C38.356,4.927 40.093,3.984 41.187,3.62C43.963,2.699 46.949,2.204 49.603,-0.054M157.146,-34.477C151.952,-35.567 147.797,-33.346 142.595,-33.246C147.742,-30.077 151.064,-30.419 157.146,-34.477M13.704,-121.025C17.384,-118.72 20.086,-121.552 23.272,-121.422C24.415,-121.375 25.986,-122.06 25.687,-123.426C25.353,-124.957 23.656,-125.223 22.323,-124.715C19.405,-123.604 16.572,-122.269 13.704,-121.025M50.54,-112.631C44.971,-114.156 35.336,-111 31.239,-106.552C37.92,-108.656 43.667,-110.467 50.54,-112.631M9.34,0.511C1.584,-1.265 1.216,-1.828 3.625,-9.168C-0.491,-5.644 -3.692,-2.903 -7.681,0.511L9.34,0.511ZM-135.878,-120.692C-132.681,-119.171 -129.554,-118.478 -126.701,-117.046C-123.976,-115.679 -122.188,-116.995 -120.549,-118.864C-120.034,-119.451 -119.398,-120.354 -119.513,-120.985C-119.749,-122.276 -121.074,-122.058 -122.02,-121.979C-126.643,-121.595 -131.26,-121.129 -135.878,-120.692M-299.969,-76.261C-294.394,-75.394 -289.06,-77.354 -283.571,-76.775C-281.994,-76.609 -279.84,-76.538 -280.236,-79.241C-280.584,-81.611 -281.992,-82.215 -284.256,-81.44C-289.474,-79.654 -294.729,-77.98 -299.969,-76.261M-150.025,-116.617C-158.79,-122.863 -161.104,-123.003 -169.014,-117.616C-162.504,-116.874 -156.507,-115.78 -150.025,-116.617M-123.119,-1.207C-131.988,-2.452 -140.75,-4.355 -150.823,-2.793C-140.997,2.518 -132.021,0.828 -123.119,-1.207M99.237,-90.944C99.046,-91.645 98.854,-92.345 98.662,-93.046C86.378,-91.574 75.153,-86.236 63.753,-81.542C75.581,-84.676 87.409,-87.81 99.237,-90.944M-17.141,8.129C-24.35,11.018 -31.391,14.024 -38.941,15.524C-39.645,15.663 -40.034,16.349 -39.713,17.08C-39.242,18.155 -38.228,18.426 -37.186,18.329C-32.183,17.861 -27.082,18.356 -22.185,16.835C-21.493,16.621 -19.882,16.664 -20.513,15.755C-23.795,11.02 -18.082,11.044 -17.141,8.129M73.424,-102.157C73.171,-103.052 72.918,-103.948 72.665,-104.844C59.922,-102.293 48.567,-95.812 36.865,-90.299C49.471,-93.026 60.785,-99.545 73.424,-102.157M126.291,-47.026C141.961,-48.609 156.029,-55.659 171.387,-60.641C171.037,-61.275 170.292,-61.367 169.745,-61.747C165.615,-64.616 163.344,-60.748 160.417,-59.24C149.581,-53.659 137.616,-51.333 126.291,-47.026M-217.991,-88.293C-233.971,-87.139 -250.271,-95.712 -265.979,-86.257C-250.027,-88.272 -233.995,-87.854 -217.991,-88.293M-145.747,-16.978C-153.458,-17.203 -160.818,-20.221 -168.673,-19.493C-176.068,-18.808 -183.567,-20.848 -190.993,-18.726C-176.018,-15.125 -160.831,-17.465 -145.747,-16.978M40.733,-32.226C34.62,-34.819 28.581,-37.614 22.366,-39.937C18.123,-41.524 19.222,-37.149 18.161,-35.376C16.894,-33.255 18.356,-32.142 20.336,-32.109C27.018,-31.996 33.627,-30.208 40.733,-32.226M-33.932,28.471C-45.102,29.598 -56.309,30.244 -68.312,30.172C-55.484,40.997 -44.864,32.702 -33.932,28.471M-187.382,-39.318C-206.884,-43.364 -227.464,-43.389 -248.93,-42.768C-244.43,-40.235 -197.26,-38.042 -187.382,-39.318M127.217,-79.174C123.184,-82.285 119.99,-83.973 115.6,-81.959C110.722,-79.722 105.523,-78.179 100.675,-75.888C95.073,-73.241 88.704,-72.112 83.981,-67.564C98.367,-70.569 112.469,-74.452 127.217,-79.174M192.908,-50.759C189.659,-54.036 185.255,-54.826 181.304,-56.547C180.243,-57.009 179.35,-56.524 178.755,-55.516C177.044,-52.616 173.994,-51.863 171.122,-50.989C164.019,-48.829 156.852,-46.884 149.744,-44.74C147.01,-43.916 144.256,-42.979 141.467,-40.28C143.573,-40.28 144.802,-40.031 145.888,-40.319C155.951,-42.991 166.395,-44.206 176.02,-48.588C181.283,-50.984 186.855,-52.419 192.908,-50.759M92.152,-56.435C92.646,-56.385 93.163,-56.214 93.63,-56.304C110.055,-59.489 125.521,-65.859 141.442,-70.72C142.26,-70.97 143.057,-71.429 142.825,-72.504C142.411,-74.417 134.349,-76.777 133.099,-75.128C130.326,-71.473 126.149,-71.31 122.355,-70.123C111.75,-66.804 101.73,-62.142 92.152,-56.435M-225.068,-33.212C-217.461,-29.128 -209.974,-25.317 -200.87,-25.83C-190.598,-26.409 -180.268,-25.962 -169.963,-25.962L-160.629,-25.962C-181.971,-30.047 -203.345,-32.867 -225.068,-33.212M-187.791,-61.581C-178.286,-60.282 -168.78,-58.981 -159.274,-57.684C-157.031,-57.378 -154.408,-56.981 -154.546,-54.181C-154.702,-51.022 -157.572,-51.081 -159.966,-51.034C-162.216,-50.99 -164.467,-51.024 -166.718,-51.024C-160.268,-50.588 -154.231,-47.987 -147.75,-48.025C-141.371,-48.061 -141.218,-47.819 -141.615,-54.029C-142.104,-61.676 -142.429,-62.026 -149.848,-62.826C-156.889,-63.586 -163.927,-64.386 -170.975,-65.076C-173.314,-65.304 -176.165,-66.091 -177.9,-64.612C-180.943,-62.018 -184.377,-62.168 -187.791,-61.581M88.93,-12.277C79.031,-16.286 70.591,-19.697 62.158,-23.129C60.901,-23.64 59.625,-24.462 58.561,-22.913C55.585,-18.581 51.34,-19.624 47.09,-19.904C38.754,-20.453 30.567,-22.613 22.14,-22.176C34.843,-18.933 47.622,-16.304 60.823,-16.597C64.048,-16.668 67.249,-16.541 70.257,-15.134C71.584,-14.513 72.55,-13.639 72.509,-12.085C72.469,-10.553 71.475,-9.43 70.175,-9.062C68.42,-8.565 66.534,-8.374 64.7,-8.344C59.279,-8.256 53.856,-8.313 48.435,-8.313C50.845,-6.65 53.326,-5.92 53.742,-2.801C53.928,-1.41 54.76,-0.65 56.239,-1.152C66.714,-4.704 77.183,-8.276 88.93,-12.277M-241.871,-81.401C-240.572,-81.089 -239.286,-80.587 -237.971,-80.495C-221.147,-79.316 -204.359,-77.746 -187.655,-75.435C-173.635,-73.496 -159.469,-72.482 -145.669,-69.092C-143.365,-68.526 -141.988,-69.198 -141.731,-71.576C-141.509,-73.629 -141.329,-75.873 -144.2,-76.258C-152.542,-77.375 -160.883,-78.519 -169.246,-79.452C-178.616,-80.497 -188.043,-81.004 -197.425,-81.844C-212.285,-83.175 -227.089,-82.13 -241.871,-81.401M-224.248,-50.077C-237.807,-51.403 -251.405,-54.279 -265.255,-54.116C-268.059,-54.084 -270.494,-55.372 -273.129,-55.921C-274.338,-56.173 -275.457,-56.66 -275.402,-58.172C-275.352,-59.551 -274.416,-60.411 -273.203,-60.613C-271.216,-60.945 -269.185,-61.108 -267.169,-61.144C-262.941,-61.22 -258.712,-61.166 -254.483,-61.166L-241.233,-61.166C-265.715,-66.604 -289.242,-68.28 -313.646,-69.649C-311.047,-67.085 -308.346,-66.576 -305.935,-65.581C-294.843,-61.005 -283.721,-56.503 -272.617,-51.955C-270.421,-51.056 -268.251,-50.082 -265.82,-50.081C-251.962,-50.073 -238.105,-50.077 -224.248,-50.077M140.845,-62.246C132.055,-60.387 123.686,-57.33 115.597,-53.482C124.628,-54.647 132.971,-57.752 140.803,-62.296C141.78,-62.547 143.096,-61.915 143.683,-63.376C142.206,-64.167 141.568,-63.102 140.845,-62.246M-58.779,10.743C-35.613,9.044 -14.464,0.633 0.501,-19.905C5.711,-27.056 9.188,-35.181 11.943,-43.546C13.213,-47.398 15.174,-48.417 19.126,-47.671C30.55,-45.513 40.886,-40.338 51.606,-36.279C65.191,-31.135 78.864,-26.161 92.001,-19.892C94.901,-18.508 97.841,-17.239 100.415,-15.243C102.153,-13.896 104.383,-12.869 104.081,-10.23C103.764,-7.47 101.432,-6.395 99.196,-5.599C91.1,-2.718 82.977,0.093 74.831,2.83C39.013,14.867 3.192,26.896 -32.652,38.858C-39.052,40.994 -45.579,42.748 -52.015,44.778C-54.386,45.525 -56.569,45.608 -58.885,44.514C-78.316,35.335 -98.572,28.158 -118.439,20.037C-135.172,13.198 -151.853,6.232 -168.61,-0.544C-191.881,-9.954 -215.196,-19.252 -238.502,-28.572C-266.44,-39.743 -294.667,-50.195 -322.222,-62.31C-325.608,-63.799 -328.822,-65.717 -332.003,-67.624C-335.503,-69.721 -335.49,-71.87 -331.88,-73.959C-324.648,-78.143 -316.439,-79.805 -308.628,-82.413C-271.175,-94.92 -233.647,-107.206 -196.094,-119.413C-164.339,-129.736 -132.512,-139.834 -100.722,-150.049C-86.267,-154.694 -71.741,-159.14 -57.42,-164.169C-51.846,-166.127 -46.879,-165.743 -41.715,-163.54C-25.068,-156.437 -8.363,-149.469 8.226,-142.233C35.044,-130.534 61.802,-118.694 88.56,-106.857C125.054,-90.714 161.522,-74.512 198.008,-58.351C201.718,-56.707 205.453,-55.115 209.222,-53.612C211.322,-52.775 213.047,-51.517 214.586,-49.893C218.819,-45.424 218.12,-41.788 212.125,-40.365C205.371,-38.763 198.878,-36.397 192.221,-34.536C179.72,-31.042 167.107,-27.85 154.84,-23.656C148.241,-21.4 143.093,-24.492 137.838,-26.455C113.46,-35.562 89.311,-45.282 65.032,-54.658C52.896,-59.345 40.658,-63.766 28.467,-68.307C24.845,-69.657 21.222,-71.003 17.601,-72.355C15.017,-73.319 13.575,-75.193 12.838,-77.845C7.376,-97.519 -3.494,-113.354 -20.797,-124.459C-36.802,-134.732 -54.292,-138.053 -73.111,-135.635C-88.697,-133.633 -101.849,-126.49 -112.972,-116.081C-123.527,-106.203 -130.507,-93.66 -132.924,-79.236C-136.345,-58.816 -133.343,-39.242 -120.889,-22.377C-112.936,-11.607 -103.66,-1.786 -89.951,2.5C-83.948,4.376 -78.727,8.26 -72.221,9.486C-68.157,10.252 -64.195,10.157 -58.779,10.743" style="fill:rgb(16,46,108);fill-rule:nonzero;"/>
                </g>
                <g transform="matrix(1.42925,0,0,1.20321,578.281,303.251)">
                    <path d="M0,26.613C-0.699,26.228 -1.043,25.89 -1.394,25.883C-1.813,25.875 -2.237,26.15 -2.659,26.302C-2.344,26.569 -2.056,27.002 -1.706,27.06C-1.306,27.125 -0.852,26.857 0,26.613M33.698,18.567C32.902,18.214 32.512,17.895 32.142,17.916C31.721,17.94 31.317,18.268 30.905,18.464C31.263,18.691 31.607,19.07 31.982,19.104C32.392,19.141 32.83,18.858 33.698,18.567M63.322,80.587C63.775,80.762 64.269,81.139 64.539,81.017C65.123,80.756 67.047,81.671 65.962,79.83C65.681,79.355 64.107,79.376 63.322,80.587M-46.409,-63.445C-47.273,-63.55 -47.562,-63.021 -47.582,-62.304C-47.606,-61.438 -47.393,-60.574 -46.415,-60.411C-45.449,-60.25 -44.821,-60.872 -44.824,-61.819C-44.827,-62.763 -45.637,-63.138 -46.409,-63.445M47.85,71.349C49.721,70.792 51.593,70.236 53.465,69.679C50.957,68.292 49.514,70.028 47.85,71.349M-44.554,-3.616C-46.848,-3.885 -48.292,-4.252 -49.114,-2.485C-49.281,-2.127 -49.161,-1.248 -48.946,-1.16C-47.163,-0.426 -46.429,-1.976 -44.554,-3.616M199.449,50.487C202.795,50.793 204.715,51.181 206.061,48.754C203.693,47.655 202.254,48.969 199.449,50.487M220.993,69.256C219.164,70.977 217.858,72.206 215.991,73.962C219.271,73.756 221.201,73.231 220.993,69.256M207.53,57.313C204.803,57.69 203.004,57.758 201.975,59.946C204.06,60.098 205.84,60.095 207.53,57.313M203.928,67.543C207.191,68.625 209.182,71.127 211.713,67.756C209.368,66.835 207.254,67.17 203.928,67.543M70.391,-7.17C68.897,-8.965 67.557,-9.151 66.119,-8.328C65.824,-8.16 65.557,-7.256 65.696,-7.12C67.1,-5.749 68.571,-6.265 70.391,-7.17M13.433,-17.468L21.11,-17.468C18.507,-18.484 15.907,-19.222 13.433,-17.468M87.159,-0.331C84.94,-1.928 83.414,-3.261 81.294,-2.015C81.072,-1.885 81,-0.907 81.197,-0.75C82.776,0.503 84.568,0.138 87.159,-0.331M-31.127,-21.223C-33.485,-22.013 -35.793,-22.062 -38.045,-21.106C-35.719,-20.218 -33.407,-20.222 -31.127,-21.223M17.264,-27.344C20.012,-26.206 22.385,-26.369 25.495,-27.795C22.328,-29.97 19.935,-31.04 17.264,-27.344M-30.322,-54.364C-31.175,-55.906 -32.681,-56.302 -34.125,-56.456C-35.701,-56.624 -38.302,-57.284 -38.521,-55.436C-38.817,-52.944 -36.115,-53.92 -34.672,-53.819C-33.269,-53.721 -31.704,-53.285 -30.322,-54.364M50.88,13.814C56.958,14.784 62.859,14.811 68.306,10.411C62.111,10.812 56.784,13.852 50.88,13.814M179.253,-21.191C173.129,-19.79 167.572,-17.188 162.618,-13.304C168.544,-15.126 174.078,-17.777 179.253,-21.191M154.831,-3.679C153.023,-5.557 150.299,-6.188 149.691,-9.097C149.452,-10.239 148.33,-10.601 147.266,-10.031C146.559,-9.653 145.706,-9.102 145.451,-8.427C145.029,-7.31 146.035,-6.513 146.867,-6.043C149.3,-4.67 151.822,-3.456 154.831,-3.679M185.502,-13.952C179.175,-15.174 174.985,-10.501 169.861,-8.406C175.777,-8.318 180.783,-10.74 185.502,-13.952M104.579,87.473C110.989,88.496 123.973,84.792 126.91,81.376C118.976,83.543 111.777,85.508 104.579,87.473M-28.559,-32.649C-34.299,-34.78 -41.207,-32.831 -44.417,-28.612C-38.411,-27.898 -33.811,-31.575 -28.559,-32.649M175.655,32.177C170.967,31.121 166.582,32.454 162.193,33.692C161.172,33.98 159.368,33.437 159.512,35.167C159.644,36.755 161.243,37.268 162.644,36.951C167.153,35.93 171.585,34.638 175.655,32.177M214.729,9.11C213.917,11.532 214.067,13.275 217.503,12.991C221.155,12.69 220.715,10.293 220.39,7.93C220.163,6.28 220.84,3.524 217.986,4.027C215.771,4.417 212.614,5.259 214.729,9.11M204.384,-36.5C209.447,-36.5 213.775,-36.477 218.102,-36.511C220.159,-36.526 221.204,-37.622 221.083,-39.697C220.969,-41.654 219.711,-42.635 218.034,-41.882C213.804,-39.982 208.955,-39.667 204.384,-36.5M42.34,-19.872C38.553,-22.979 35.061,-24.731 31.34,-25.225C28.646,-25.583 30.516,-21.645 28.518,-20.635C27.906,-20.326 26.813,-20.347 26.81,-18.872C31.62,-19.457 36.455,-18.377 42.34,-19.872M-7.321,27.67C-18.5,30.461 -30.284,30.802 -40.899,35.875C-29.527,33.866 -17.943,32.716 -7.321,27.67M64.766,34.273C70.389,32.179 75.358,30.328 81.371,28.089C78.385,27.328 75.747,28.082 74.729,26.243C72.685,22.551 69.366,22.402 65.105,21.892C70.194,26.278 66.024,29.899 64.766,34.273M175.395,1.692C187.001,-3.825 200.141,-5.199 211.567,-11.384C198.949,-8.682 186.6,-5.22 175.395,1.692M-35.729,-11.459C-20.882,-9.554 -8.154,-13.839 4.742,-16.918C-8.278,-14.967 -21.637,-15.725 -35.729,-11.459M12.039,64.63C6.482,61.863 -14.787,66.58 -18.195,71.166C-7.682,70.776 1.811,67.762 12.039,64.63M-27.462,69.417C-28.51,68.068 -30.128,68.621 -31.495,68.472C-34.354,68.16 -36.766,66.668 -36.585,63.87C-36.214,58.134 -39.162,58.902 -42.786,59.937C-44.216,60.345 -45.772,60.314 -47.272,60.475C-48.41,60.597 -49.877,60.36 -50.156,61.863C-50.465,63.522 -49.071,64.274 -47.809,64.697C-41.918,66.672 -35.998,68.56 -30.073,70.43C-29.141,70.724 -28.048,71.026 -27.462,69.417M110.019,77.492C109.847,76.898 109.675,76.304 109.503,75.71C97.782,79.029 86.062,82.347 74.341,85.666C74.501,86.219 74.66,86.771 74.819,87.323C86.717,84.616 99.272,84.181 110.019,77.492M158.263,20.735C155.091,21.361 151.805,22.064 148.496,22.638C146.96,22.904 145.176,22.952 145.154,24.941C145.134,26.717 146.815,27.462 148.243,27.886C153.067,29.315 157.471,27.331 161.908,25.895C162.936,25.563 164.599,25.61 164.556,24.054C164.516,22.577 163.2,21.723 161.91,21.285C160.819,20.915 159.6,20.92 158.263,20.735M1.708,-5.503C-11.219,-4.031 -24.642,-4.839 -38.021,1.572C-23.383,3.21 -11.218,-3.196 1.708,-5.503M120.361,41.949C108.335,43.395 98.954,48.864 88.078,53.354C91.411,53.542 112.786,49.594 114.565,48.533C116.887,47.149 117.994,44.685 120.361,41.949M87.208,43.734C97.399,41.235 106.915,38.03 115.947,33.446C117.428,32.695 118.765,31.712 117.965,29.986C117.169,28.269 115.648,29.314 114.442,29.756C106.702,32.588 98.975,35.453 91.234,38.281C88.903,39.133 86.835,40.145 87.208,43.734M221.193,37.115C220.993,35.631 221.471,33.695 219.796,33.072C218.33,32.526 217.6,34.411 216.737,35.294C212.714,39.41 212.426,47.718 216.405,52.791C218.256,55.151 218.844,57.094 217.104,59.557C216.347,60.628 215.904,61.698 217.343,62.54C218.2,63.042 219.204,63.825 220.042,63.717C221.682,63.504 221.157,61.885 221.164,60.83C221.218,52.926 221.193,45.02 221.193,37.115M220.424,22.433C220.315,20.973 219.683,19.984 218.35,19.797C211.904,18.896 205.322,19.697 199.613,22.094C195.242,23.93 191.344,27.028 186.423,27.85C185.623,27.984 184.65,28.432 185.009,29.494C185.13,29.852 186.192,30.218 186.681,30.078C196.558,27.258 206.701,26.173 216.881,25.261C218.574,25.11 220.175,24.399 220.424,22.433M-34.684,19.914C-38.226,19.336 -41.113,19.836 -43.298,17.875C-46.047,15.407 -44.4,12.765 -43.718,9.995C-43.178,7.804 -45.387,7.293 -46.995,7.039C-49.149,6.7 -49.414,8.403 -49.47,9.985C-49.689,16.208 -49.913,22.431 -50.01,28.656C-50.028,29.841 -50.667,31.655 -48.723,31.992C-47.306,32.237 -45.96,31.371 -45.397,30.11C-43.36,25.544 -39.471,22.923 -34.684,19.914M-10.369,-44.9C-12.153,-46.677 -14.287,-48.124 -16.551,-47.887C-25.694,-46.928 -35.07,-47.588 -43.894,-44.232C-45.074,-43.784 -47.064,-43.997 -46.736,-42.135C-46.447,-40.495 -44.576,-40.948 -43.299,-40.792C-33.959,-39.656 -25.003,-42.805 -15.804,-43.336C-14.128,-43.433 -12.065,-43.172 -10.369,-44.9M93.521,-0.402C96.065,3.17 99.511,2.861 103.149,1.455C108.167,-0.485 113.302,-1.997 118.529,-3.298C125.674,-5.075 132.06,-8.489 137.512,-13.834C122.835,-9.353 108.158,-4.871 93.521,-0.402M167.691,12.104C172.214,13.559 176.235,13.856 173.486,18.742C173.053,19.511 171.293,19.616 172.141,20.989C172.91,22.233 174.068,21.808 175.284,21.436C181.554,19.521 187.9,17.848 194.125,15.8C196.399,15.052 198.907,14.26 201.025,12.13C199.159,11.481 198.323,12.146 197.378,12.456C192.744,13.975 188.28,16.008 183.409,16.822C181.341,17.167 179.567,17.023 178.69,15.022C177.676,12.709 179.111,11.114 180.963,10.029C182.706,9.009 184.675,8.552 186.657,8.053C195.311,5.876 203.975,3.662 211.527,-1.735C197.367,2.735 183.206,7.206 167.691,12.104M-36.986,13.842C-26.172,14.961 7.27,7.821 13.313,2.869C-3.778,7.117 -21.145,3.749 -36.986,13.842M44.749,63.873C44.533,63.276 44.318,62.679 44.102,62.082C30.624,66.924 15.65,67.91 3.573,78.299C9.904,80.682 15.153,81.806 19.939,76.692C21.477,75.047 23.879,74.153 25.978,73.1C32.21,69.975 38.488,66.942 44.749,63.873M-26.889,61.567C-12.42,62.582 -1.383,53.171 11.352,48.971C24.115,44.762 37.69,42.833 49.608,36.079C48.386,35.968 47.234,36.1 46.129,36.403C28.101,41.351 10.051,46.223 -7.931,51.335C-14.895,53.316 -21.362,56.504 -26.889,61.567M153.29,82.413C156.611,82.205 160.192,83.155 163.615,80.114C159.238,78.902 156.44,81.385 153.317,82.442C152.492,82.967 151.017,82.163 150.613,83.711C152.125,84.399 152.755,83.501 153.29,82.413M120.297,98.657C97.566,100.074 74.985,97.544 52.481,95.312C36.939,93.771 21.458,90.982 6.005,88.266C-10.017,85.451 -25.349,80.694 -40.81,76.118C-45.192,74.821 -49.284,72.786 -53.348,70.657C-57.573,68.444 -59.188,65.467 -59.24,60.549C-59.557,30.941 -57.149,1.358 -58.105,-28.223C-58.515,-40.934 -57.392,-53.385 -56.097,-65.914C-55.508,-71.607 -53.076,-73.461 -47.727,-71.704C-35.161,-67.576 -23.244,-61.795 -11.659,-55.593C5.827,-46.231 24.202,-38.917 42.112,-30.545C57.717,-23.251 73.841,-17.087 89.051,-8.95C90.957,-7.929 92.582,-8.306 94.36,-9.02C119.286,-19.025 144.922,-27.003 170.36,-35.54C185.719,-40.694 201.128,-45.698 216.539,-50.695C223.716,-53.021 229.401,-48.95 229.468,-41.263C229.61,-25.187 229.619,-9.108 229.51,6.968C229.484,10.792 230.078,13.557 233.967,15.593C238.282,17.853 238.414,21.476 234.07,24.327C229.936,27.041 229.472,30.414 229.517,34.68C229.654,47.54 229.461,60.404 229.588,73.264C229.63,77.585 228.246,79.798 224.065,82.135C204.756,92.926 183.685,95.064 162.282,97.284C148.238,98.741 134.281,98.278 120.297,98.657" style="fill:rgb(16,46,108);fill-rule:nonzero;"/>
                </g>
                <g transform="matrix(1.42925,0,0,1.20321,767.394,94.6053)">
                    <path d="M-34.822,97.623C-69.56,99.175 -96.399,67.912 -96.239,35.104C-96.065,-0.746 -69.203,-26.953 -37.484,-27.435C2.017,-28.034 26.007,3.909 25.943,36.247C25.876,69.994 -1.317,99.091 -34.822,97.623ZM0,71.141C-0.2,70.661 -0.32,70.372 -0.441,70.083C-0.831,70.262 -1.253,70.398 -1.584,70.652C-1.653,70.705 -1.385,71.442 -1.271,71.442C-0.862,71.443 -0.453,71.264 0,71.141ZM-89.674,35.272C-91.039,35.168 -91.466,36.015 -91.386,37.158C-91.27,38.831 -90.177,39.501 -88.619,39.375C-87.56,39.289 -86.522,38.863 -86.686,37.554C-86.895,35.894 -88.358,35.64 -89.674,35.272ZM-39.929,34.065C-37.184,33.791 -35.06,33.032 -33.726,30.878C-33.32,30.223 -33.954,29.449 -34.659,29.403C-37.224,29.237 -38.373,31.328 -39.838,32.883C-39.924,32.974 -39.87,33.197 -39.929,34.065ZM-87.041,24.824C-87.552,24.419 -87.913,23.912 -88.236,23.936C-88.572,23.96 -89.11,24.49 -89.118,24.81C-89.126,25.119 -88.59,25.671 -88.26,25.697C-87.932,25.722 -87.564,25.225 -87.041,24.824ZM-13.228,87.898C-13.593,86.637 -14.352,85.721 -15.664,85.799C-17.684,85.918 -17.712,87.667 -17.93,89.1C-18.081,90.091 -17.55,90.766 -16.483,90.43C-15.11,89.999 -13.501,89.756 -13.228,87.898ZM16.205,13.742C15.573,13.518 15.09,13.172 14.816,13.295C14.475,13.447 14.307,13.986 14.065,14.358C14.448,14.543 14.871,14.922 15.205,14.856C15.528,14.792 15.76,14.268 16.205,13.742ZM0.123,80.245C0.844,80.035 1.258,79.547 1.177,78.808C1.095,78.06 0.586,77.596 -0.151,77.885C-0.505,78.024 -0.849,78.565 -0.918,78.971C-1.037,79.672 -0.719,80.227 0.123,80.245ZM-34.775,37.651C-31.655,35.96 -28.592,35.836 -26.999,32.917C-26.886,32.71 -27.368,31.844 -27.614,31.826C-30.713,31.591 -31.867,34.583 -34.084,35.847C-34.288,35.963 -34.31,36.398 -34.775,37.651ZM12.961,58.955C11.166,60.043 10.895,62.395 9.685,64.029C9.099,64.82 9.834,66.261 11.033,66.132C13.43,65.874 13.994,63.679 14.731,61.84C15.279,60.473 14.542,59.612 12.961,58.955ZM-27.517,5.848C-27.426,4.977 -27.864,4.494 -28.552,4.385C-29.755,4.193 -30.915,4.41 -31.417,5.682C-31.72,6.449 -31.099,6.894 -30.402,6.95C-29.263,7.04 -28.07,7.116 -27.517,5.848ZM-87.717,30.764C-87.679,29.664 -88.567,29.531 -89.314,29.306C-90.142,29.057 -91.022,29.012 -91.223,30.104C-91.433,31.242 -90.891,32.006 -89.665,31.987C-88.827,31.974 -88.118,31.584 -87.717,30.764ZM19.833,31.342C20.04,30.895 20.303,30.5 20.381,30.071C20.413,29.896 19.933,29.438 19.875,29.468C19.501,29.664 19.18,29.96 18.842,30.223C19.032,30.438 19.222,30.652 19.833,31.342ZM-6.739,-8.261C-6.837,-9.255 -7.455,-9.743 -8.388,-9.776C-9.128,-9.801 -9.779,-9.39 -9.484,-8.608C-9.284,-8.075 -8.665,-7.565 -8.112,-7.333C-7.401,-7.034 -6.844,-7.419 -6.739,-8.261ZM-80.328,5.263C-80.609,5.028 -80.925,4.546 -81.297,4.498C-82.031,4.402 -82.666,4.852 -82.727,5.599C-82.752,5.909 -82.223,6.504 -81.884,6.554C-81.16,6.661 -80.63,6.189 -80.328,5.263ZM-85.982,49.305C-86.506,48.332 -87.498,48.031 -88.466,47.929C-89.39,47.831 -89.557,48.589 -89.308,49.301C-88.994,50.2 -88.209,50.501 -87.318,50.446C-86.639,50.404 -86.014,50.202 -85.982,49.305ZM-53.512,24.385C-48.982,23.294 -48.449,22.867 -46.872,19.056C-49.697,20.232 -52.147,21.313 -53.512,24.385ZM12.528,44.944C11.732,47.973 9.152,50.578 10.285,54.787C12.571,51.325 13.685,48.394 12.528,44.944ZM-20.792,82.861C-18.706,82.049 -16.122,82.627 -13.685,79.883C-17.111,79.87 -19.051,81.089 -20.792,82.861ZM-19.574,9.822C-19.643,8.431 -20.532,7.741 -21.809,7.537C-22.692,7.396 -23.654,7.641 -23.65,8.706C-23.645,10.053 -22.627,10.824 -21.422,11.133C-20.476,11.375 -19.858,10.781 -19.574,9.822ZM-57.119,84.606C-57.234,83.656 -57.847,83.489 -58.544,83.731C-59.509,84.067 -60.308,84.689 -60.36,85.804C-60.393,86.517 -59.905,87.179 -59.191,87.054C-57.893,86.827 -57.592,85.581 -57.119,84.606ZM-33.721,65.59C-33.63,64.809 -34.004,64.317 -34.757,64.331C-35.838,64.351 -36.604,64.971 -36.861,66.013C-37.044,66.752 -36.59,67.284 -35.838,67.293C-34.717,67.305 -34.107,66.555 -33.721,65.59ZM-79.567,68.506C-78.32,67.853 -77.176,68.129 -76.733,66.421C-78.069,66.246 -78.901,66.631 -79.567,68.506ZM-28.928,52.688C-29.933,52.937 -30.709,53.274 -30.731,54.223C-30.738,54.532 -30.182,55.093 -29.843,55.125C-28.91,55.214 -28.318,54.605 -28.276,53.698C-28.261,53.362 -28.712,53.004 -28.928,52.688ZM-75.48,-3.519C-77.058,-3.295 -78.16,-2.296 -78.559,-0.799C-78.932,0.6 -77.717,0.806 -76.713,0.784C-75.143,0.75 -73.659,0.296 -73.522,-1.563C-73.441,-2.663 -74.348,-3.267 -75.48,-3.519ZM-39.573,3.288C-37.295,4.658 -35.334,3.657 -33.411,2.66C-32.228,2.046 -31.626,0.968 -32.174,-0.294C-32.925,-2.023 -34.205,-1.233 -35.023,-0.438C-36.409,0.911 -38.983,0.81 -39.573,3.288ZM-43.503,8.356C-48.719,7.302 -53.99,10.655 -55.684,16.031C-51.367,13.542 -48.094,9.962 -43.503,8.356ZM-36.611,-10.806C-33.224,-9.768 -28.894,-10.006 -27.831,-5.425C-27.027,-1.959 -24.872,-0.151 -21.768,0.666C-17.846,1.697 -15.85,4.78 -14.525,7.965C-12.808,12.088 -16.603,14.304 -18.924,16.801C-21.025,19.061 -22.924,17.485 -24.624,15.996C-26.739,14.143 -29.271,13.143 -31.945,12.725C-35.411,12.183 -38.772,13.392 -39.969,16.604C-41.082,19.592 -37.688,20.664 -35.644,21.96C-34.231,22.856 -32.647,23.564 -31.048,24.068C-25.158,25.923 -20.08,28.95 -15.273,32.926C-9.748,37.494 -7.578,43.003 -8.261,49.786C-9.065,57.766 -14.29,62.103 -21.531,63.95C-25.596,64.986 -28.171,66.213 -28.133,71.076C-28.107,74.518 -31.119,75.937 -34.232,75.865C-37.624,75.787 -42.391,76.854 -43.461,72.656C-44.459,68.74 -46.878,67.582 -49.771,66.329C-54.233,64.396 -58.014,61.538 -60.76,57.595C-63.794,53.24 -62.019,49.383 -59.036,45.61C-56.022,41.798 -53.591,44.212 -50.741,45.711C-47.292,47.525 -43.61,48.935 -39.581,48.537C-37.551,48.336 -34.273,49.648 -33.887,47.084C-33.559,44.911 -36.876,44.275 -38.911,43.816C-46.248,42.162 -52.019,37.642 -58.01,33.575C-61.568,31.159 -63.311,27.549 -63.272,23.139C-63.179,12.639 -59.043,4.52 -49.537,-0.506C-46.861,-1.921 -44.089,-3.135 -43.238,-6.598C-42.591,-9.229 -43.289,-10.365 -45.896,-9.557C-49.278,-8.509 -52.764,-7.513 -55.853,-5.843C-75.801,4.938 -88.055,30.946 -77.495,53.991C-70.146,70.031 -57.513,78.96 -39.996,80.039C-10.693,81.844 15.201,52.094 7.133,22.522C1.246,0.946 -15.068,-10.779 -36.611,-10.806ZM-28.297,39.55C-25.929,38.856 -23.061,38.798 -22.089,35.096C-25.114,35.918 -26.845,37.531 -28.297,39.55ZM-49.561,51.772C-52.548,51.938 -54.182,49.809 -55.756,52.161C-56.237,52.88 -56.19,54.025 -55.347,54.387C-53.162,55.326 -52.259,53.26 -49.561,51.772ZM13.964,37.397C14.524,36.005 17.019,36.23 16.539,34.2C16.341,33.357 15.369,32.844 14.522,33.27C12.845,34.113 12.951,35.583 13.964,37.397ZM-44.134,23.682C-47.228,24.712 -49.106,25.502 -49.959,28.542C-46.909,27.883 -45.212,26.931 -44.134,23.682ZM-38.219,-20.887C-38.73,-21.288 -39.098,-21.796 -39.408,-21.762C-39.753,-21.725 -40.272,-21.208 -40.291,-20.876C-40.308,-20.58 -39.757,-20.018 -39.435,-20.002C-39.1,-19.984 -38.74,-20.481 -38.219,-20.887ZM20.571,42.34C20.402,41.417 19.847,40.897 18.911,40.971C18.169,41.029 17.726,41.531 17.888,42.285C18.074,43.145 18.672,43.741 19.578,43.719C20.374,43.699 20.589,43.054 20.571,42.34ZM-22.212,41.966C-19.864,41.385 -18.095,41.233 -16.681,39.284C-19.518,38.28 -21.01,39.006 -22.212,41.966ZM-48.248,58.048C-48.239,57.281 -48.661,57.003 -49.149,57.169C-49.543,57.302 -50.015,57.698 -50.119,58.071C-50.266,58.603 -49.798,58.997 -49.264,58.826C-48.854,58.694 -48.536,58.28 -48.248,58.048ZM-44.322,30.664C-41.935,30.43 -40.931,29.123 -39.827,26.923C-42.069,27.744 -43.687,28.307 -44.322,30.664ZM-47.364,91.841C-46.919,91.364 -46.444,91.079 -46.372,90.716C-46.302,90.357 -46.562,89.638 -46.814,89.567C-47.543,89.363 -48.049,89.887 -48.086,90.581C-48.105,90.93 -47.69,91.302 -47.364,91.841ZM7.13,72.396C6.96,71.677 6.467,71.253 5.777,71.366C5.43,71.423 4.842,72.071 4.896,72.172C5.156,72.668 5.521,73.299 5.99,73.451C6.675,73.673 7.112,73.145 7.13,72.396ZM121.825,251.686C121.723,226.65 124.813,207.632 135.856,191.084C141.387,182.795 141.757,174.076 141.628,165.024C141.28,140.701 142.23,116.437 144.43,92.223C144.727,88.96 143.505,87.153 140.741,85.834C111.752,71.996 82.701,58.329 51.567,49.781C46.524,48.397 41.487,46.859 36.948,44.111C34.045,42.353 32.24,39.878 33.661,36.516C35.038,33.262 38.261,32.994 41.074,33.975C52.872,38.09 64.56,42.518 76.325,46.733C100.242,55.3 122.917,66.689 145.93,77.306C151.799,80.013 154.947,84.556 155.205,91.208C156.102,114.364 153.415,137.441 153.805,160.584C153.942,168.674 154.378,176.783 153.034,184.835C152.9,185.637 152.891,186.696 153.303,187.318C160.136,197.637 160.665,210.06 164.02,221.435C167.637,233.7 172.386,246.06 171.519,259.46C170.93,268.556 171.51,277.721 171.288,286.849C171.095,294.772 166.432,297.5 159.574,293.809C157.845,292.878 156.546,292.968 154.852,293.651C150.144,295.549 146.152,294.424 143.386,290.12C141.465,287.13 140.015,285.965 137.841,289.969C136.435,292.559 134.077,294.633 130.843,293.989C127.793,293.381 126.885,290.662 126.233,287.908C122.983,274.203 122.075,260.238 121.825,251.686ZM145.021,256.985C145.347,257.338 145.674,257.69 146.001,258.043C149.723,255.045 153.473,252.081 157.154,249.034C158.541,247.885 158.978,246.251 158.868,244.474C158.794,243.284 158.769,241.963 157.49,241.446C156.126,240.895 155.277,241.938 154.606,242.914C151.388,247.589 148.212,252.292 145.021,256.985ZM144.756,272.602L145.671,273.994C149.233,271.227 152.816,268.954 157.426,268.207C160.015,267.788 159.523,263.614 158.434,261.58C157.212,259.294 155.347,261.607 154.388,262.521C151.028,265.725 147.944,269.218 144.756,272.602ZM137.368,248.344C135.743,249.354 134.54,249.601 134.57,251.042C134.577,251.372 135.193,252.003 135.444,251.963C136.88,251.735 136.878,250.466 137.368,248.344Z" style="fill:rgb(251,185,48);"/>
                </g>
            </g>
        </g>
        <g id="Слой-2" serif:id="Слой 2">
        </g>
        <g id="Слой-3" serif:id="Слой 3">
        </g>
        <g id="Слой-4" serif:id="Слой 4">
        </g>
        <g id="Слой-5" serif:id="Слой 5">
        </g>
        <g id="Режим-изоляции4" serif:id="Режим изоляции">
        </g>
    </g>
</svg>
