<?xml version="1.0" encoding="UTF-8" standalone="no"?>
<!DOCTYPE svg PUBLIC "-//W3C//DTD SVG 1.1//EN" "http://www.w3.org/Graphics/SVG/1.1/DTD/svg11.dtd">
<svg width="100%" height="100%" viewBox="0 0 1259 1308" version="1.1" xmlns="http://www.w3.org/2000/svg" xmlns:xlink="http://www.w3.org/1999/xlink" xml:space="preserve" xmlns:serif="http://www.serif.com/" style="fill-rule:evenodd;clip-rule:evenodd;stroke-linejoin:round;stroke-miterlimit:2;">
    <g transform="matrix(1,0,0,1,-11877.1,0)">
        <g id="Слой-6" serif:id="Слой 6">
        </g>
        <g id="Режим-изоляции" serif:id="Режим изоляции">
        </g>
        <g id="Режим-изоляции1" serif:id="Режим изоляции">
        </g>
        <g id="Режим-изоляции2" serif:id="Режим изоляции">
        </g>
        <g id="Режим-изоляции3" serif:id="Режим изоляции">
        </g>
        <g id="Page-6" serif:id="Page 6" transform="matrix(1.1263,0,0,1.56076,11877.1,0)">
            <rect x="0" y="0" width="1117.09" height="837.818" style="fill:none;"/>
            <clipPath id="_clip1">
                <rect x="0" y="0" width="1117.09" height="837.818"/>
            </clipPath>
            <g clip-path="url(#_clip1)">
                <g transform="matrix(1.77572,0,0,1.28142,587.182,703.07)">
                    <path d="M0,-430.833C3.888,-432.48 6.913,-434.551 8.212,-438.781C0.647,-441.222 -0.429,-437.076 0,-430.833M-262.402,-361.908C-256.798,-365.076 -252.092,-366.798 -254.194,-373.436C-257.816,-370.775 -261.799,-368.819 -262.402,-361.908M242.795,-380.439C236.785,-378.826 231.56,-376.396 229.686,-370.105C234.055,-373.55 238.425,-376.994 242.795,-380.439M-199.179,-439.18C-206.763,-439.862 -207.561,-434.457 -210.87,-427.888C-205.072,-431.953 -200.83,-433.893 -199.179,-439.18M-174.644,-429.52C-170.846,-431.999 -166.875,-434.013 -165.979,-438.833C-175.625,-441.737 -172.885,-433.356 -174.644,-429.52M-127.183,-438.71C-136.159,-441.654 -135.225,-435.86 -134.873,-430.15C-131.407,-432.45 -128.254,-434.594 -127.183,-438.71M246.681,-195.166C239.415,-191.151 234.335,-188.511 229.297,-180.277C236.938,-185.127 242.942,-186.566 246.681,-195.166M-21.754,-427.802C-16.587,-431.369 -12.308,-433.607 -10.818,-438.741C-18.131,-438.457 -18.131,-438.457 -21.754,-427.802M270.868,-492.677C263.78,-490.53 260.489,-486.869 258.258,-481.931C262.052,-485.058 268.657,-484.379 270.868,-492.677M-49.869,-85.807C-45.626,-89.053 -41.383,-92.3 -36.262,-96.218C-45.448,-98.316 -46.478,-90.289 -49.869,-85.807M-131.305,-86.112C-127.079,-88.73 -123.143,-93.037 -120.499,-98.731C-124.243,-94.36 -127.986,-89.988 -131.305,-86.112M237.004,-436.174C231.697,-429.555 226.944,-426.813 224.405,-420.145C232.033,-422.526 234.774,-426.785 237.004,-436.174M176.842,-424.578C182.126,-427.45 187.293,-430.631 190.831,-437.557C183.26,-435.104 180.183,-429.735 176.842,-424.578M242.572,-357.982C238.197,-355.922 235.336,-353.064 233.609,-349.043C237.055,-351.302 246.005,-347.92 242.572,-357.982M244.157,-231.807C238.046,-229.382 234.709,-226.281 233.275,-221.339C237.665,-223.198 243.182,-223.709 244.157,-231.807M232.477,-94.924C240.268,-98.027 245.731,-100.784 250.639,-109.662C242.776,-104.595 237.256,-101.911 232.477,-94.924M-156.663,-428.943C-152.654,-431.582 -148.023,-433.462 -146.494,-438.432C-146.478,-438.485 -148.407,-439.452 -149.432,-439.459C-156.361,-439.509 -155.004,-433.115 -156.663,-428.943M32.49,-428.194C36.566,-431.405 40.642,-434.616 45.515,-438.454C35.403,-441.439 33.879,-434.846 32.49,-428.194M-195.415,-87.762C-187.381,-87.811 -183.999,-93.063 -181.664,-99.479C-186.247,-95.574 -190.831,-91.668 -195.415,-87.762M-236.424,-100.279C-236.96,-100.713 -237.497,-101.149 -238.033,-101.584C-242.7,-96.618 -247.366,-91.653 -252.032,-86.688C-251.766,-86.479 -251.499,-86.269 -251.233,-86.06C-246.296,-90.8 -241.36,-95.539 -236.424,-100.279M-253.743,-409.817C-260.03,-406.324 -262.969,-401.415 -265.914,-392.144C-260.029,-399.331 -252.989,-401.333 -253.743,-409.817M-270.794,-194.927C-276.237,-192.068 -285.131,-190.964 -280.566,-180.673C-276.969,-185.919 -273.882,-190.423 -270.794,-194.927M194.894,-424.217C201.352,-426.707 207.239,-429.963 212.055,-436.987C202.27,-436.635 199.746,-428.864 194.894,-424.217M-274.934,-130.713C-266.109,-134.332 -260.306,-137.422 -257.03,-145.042C-264.894,-142.762 -269.813,-138.512 -274.934,-130.713M245.23,-174.516C240.333,-172.585 237.666,-169.578 236.032,-165.441C244.176,-162.568 248.117,-164.311 245.23,-174.516M-100.546,-427.515C-96.028,-431.639 -92.589,-434.779 -88.779,-438.257C-99.391,-442.265 -101.521,-437.285 -100.546,-427.515M225.613,-255.869C242.831,-264.913 242.831,-264.913 241.974,-269.779C236.398,-265.039 231.005,-260.454 225.613,-255.869M-253.528,-357.276C-259.65,-352.58 -264.589,-348.635 -268.16,-339.48C-260.178,-344.9 -253.991,-347.788 -253.528,-357.276M-154.885,-85.656C-148.472,-88.484 -142.784,-92.172 -137.092,-99.651C-147.479,-97.746 -150.409,-90.783 -154.885,-85.656M230.877,-127.869C245.376,-133.97 245.376,-133.97 244.701,-140.237C240.305,-136.303 235.591,-132.086 230.877,-127.869M-247.165,-424.939C-241.526,-428.506 -236.477,-432.64 -232.544,-439.33C-243.596,-439.477 -243.551,-430.451 -247.165,-424.939M-270.076,-446.4C-275.344,-438.14 -278.955,-433.029 -279.758,-423.178C-273.536,-430.601 -269.078,-435.257 -270.076,-446.4M50.417,-424.476C58.406,-428.041 63.583,-431.058 67.821,-436.645C57.962,-438.937 54.672,-433.275 50.417,-424.476M-97.662,-97.433C-108.359,-96.522 -112.662,-87.804 -118.027,-80.28C-111.238,-85.998 -104.45,-91.716 -97.662,-97.433M-267.573,-373.037C-263.328,-378.871 -253.215,-380.165 -253.826,-391.053C-260.082,-385.506 -266.377,-381.385 -267.573,-373.037M227.367,-307.349C243.157,-316.341 243.157,-316.341 242.355,-321.952C237.389,-317.114 232.378,-312.232 227.367,-307.349M269.177,-459.46C269.822,-465.724 276.06,-472.058 269.933,-476.481C267.621,-478.151 262.605,-473.577 258.73,-468.912C267.445,-470.252 269.67,-466.368 269.177,-459.46M-254.669,-102.473C-262.356,-96.831 -268.402,-89.784 -275.847,-79.65C-263.159,-85.298 -259.99,-94.806 -254.669,-102.473M223.718,-513.002C224.841,-511.966 225.963,-510.93 227.086,-509.894C233.127,-513.081 238.417,-517.281 243.183,-522.17C244.479,-523.499 246.804,-524.74 245.132,-526.996C243.412,-529.317 241.674,-527.669 240.104,-526.383C234.647,-521.916 229.181,-517.462 223.718,-513.002M204.487,-511.078C215.815,-513.98 222.311,-523.294 230.248,-530.696C219.319,-527.265 212.854,-517.909 204.487,-511.078M-268.704,-522.097C-278.133,-513.753 -281.848,-505.881 -285.161,-494.257C-275.815,-502.438 -273.368,-510.766 -268.704,-522.097M245.823,-88.221C253.003,-92.851 261.848,-95.028 267.708,-104.223C256.075,-103.273 251.732,-94.428 245.823,-88.221M-16.786,-70.534C-0.294,-77.481 2.769,-79.972 7.374,-89.758C-0.233,-83.2 -8.951,-79.916 -16.786,-70.534M-281.054,-140.41C-273.249,-145.875 -265.966,-151.844 -261.359,-160.397C-269.521,-155.277 -277.281,-149.769 -281.054,-140.41M225.744,-286.719C233.387,-290.298 239.381,-295.51 243.377,-302.722C235.292,-299.717 229.59,-294.187 225.744,-286.719M247.504,-493.633C258.289,-493.244 261.515,-502.052 268.825,-502.975C270.596,-503.198 270.608,-506.318 269.193,-508.056C267.638,-509.966 265.469,-509.604 263.911,-508.279C258.892,-504.012 254.061,-499.522 247.504,-493.633M-293.097,-485.659C-300.23,-478.504 -303.501,-469.664 -305.006,-460.028C-298.077,-467.175 -294.612,-475.978 -293.097,-485.659M263.812,-68.878C276.903,-67.609 279.928,-70.364 281.104,-84.317C275.253,-79.093 269.756,-74.184 263.812,-68.878M224.624,-234.844C231.344,-239.44 243.319,-239.756 243.886,-254.227C236.206,-246.499 230.415,-240.672 224.624,-234.844M-302.204,-439.74C-292.256,-450.438 -290.282,-461.444 -285.819,-471.288C-293.594,-463.305 -297.975,-453.634 -302.204,-439.74M241.96,-504.452C249.873,-507.96 254.369,-512.258 259.329,-515.98C261.914,-517.919 262.746,-518.974 260.125,-520.945C258.254,-522.351 256.503,-526.038 253.703,-521.471C250.508,-516.258 246.777,-511.374 241.96,-504.452M251.861,-429.053C269.603,-442.893 269.603,-442.893 269.05,-448.586C262.321,-443.562 254.501,-440.455 251.861,-429.053M-195.025,-99.772C-208.984,-98.327 -212.861,-89.203 -217.624,-81.099C-210.264,-85.604 -203.012,-90.223 -195.025,-99.772M-289.299,-435.076C-277.461,-447.388 -276.9,-448.87 -280.082,-458.354C-284.941,-451.624 -289.483,-445.298 -289.299,-435.076M242.308,-342.964C235.08,-335.171 229.471,-329.124 226.564,-325.991C226.304,-332.521 247.199,-324.15 242.308,-342.964M138.376,-512.144C147.624,-516.257 155.063,-522.632 164.262,-532.27C149.765,-529.257 145.444,-518.983 138.376,-512.144M-165.382,-513.492C-156.098,-517.513 -149.639,-524.736 -144.402,-533.343C-154.031,-529.713 -160.085,-522.032 -165.382,-513.492M120.989,-436.253C110.114,-436.826 102.66,-430.814 101.281,-420.435C109.119,-424.258 115.112,-429.857 120.989,-436.253M209.596,-532.003C196.46,-527.611 189.682,-519.277 180.081,-508.987C193.957,-513.81 201.456,-521.178 209.596,-532.003M97.643,-436.158C84.953,-440.022 81.046,-433.092 76.965,-422.43C85.85,-425.931 91.917,-429.603 97.643,-436.158M140.009,-530.762C127.306,-529.679 123.231,-518.048 115.532,-510.737C124.448,-516.428 134.286,-520.905 140.009,-530.762M-121.771,-532.517C-132.346,-533.174 -140.093,-525.942 -143.095,-513.225C-134.419,-517.806 -127.911,-524.626 -121.771,-532.517M66.991,-511.152C77.216,-515.462 86.659,-520.792 94.545,-532.261C79.213,-530.504 75.447,-517.769 66.991,-511.152M-266.582,-418.922C-259.169,-425.275 -252.667,-430.173 -249.764,-439.109C-261.079,-438.62 -265.983,-433.029 -266.582,-418.922M-51.172,-532.806C-62.069,-532.757 -71.767,-524.162 -74.861,-512.473C-65.506,-516.869 -58.671,-523.907 -51.172,-532.806M-124.557,-513.361C-114.63,-517.577 -106.266,-523.662 -99.132,-533.841C-113.838,-532.724 -117.787,-521.356 -124.557,-513.361M18.882,-513.544C28.605,-518.49 38.488,-523.145 47.226,-532.549C30.003,-535.336 28.348,-518.614 18.882,-513.544M-53.993,-513.335C-43.088,-516.232 -36.987,-524.537 -28.395,-534.165C-43.088,-531.869 -47.965,-521.794 -53.993,-513.335M-244.82,-74.664C-235.108,-80.269 -226.176,-86.272 -219.255,-94.705C-218.111,-96.099 -215.587,-97.266 -217.254,-99.48C-218.589,-101.254 -220.87,-101.366 -222.463,-99.609C-230.002,-91.293 -239.884,-85.072 -244.82,-74.664M127.135,-419.877C136.675,-424.904 146.168,-426.632 150.611,-436.272C137.397,-439.779 130.231,-434.708 127.135,-419.877M-254.609,-511.952C-245.944,-518.23 -237.429,-524.75 -232.221,-535.727C-247.917,-534.752 -250.149,-522.303 -254.609,-511.952M158.914,-508.754C168.93,-514.969 179.096,-520.932 187.832,-531.002C169.87,-532.549 166.563,-517.778 158.914,-508.754M-162.497,-532.925C-174.97,-533.563 -183.261,-525.573 -188.109,-509.879C-177.824,-515.079 -170.514,-523.13 -162.497,-532.925M-72.468,-532.631C-87.648,-534.146 -98.001,-525.958 -101.904,-511.07C-91.739,-516.594 -83.057,-524.105 -72.468,-532.631M-298.428,-501.821C-286.681,-508.605 -282.565,-520.715 -274.485,-533.067C-292.208,-527.75 -294.272,-514.003 -298.428,-501.821M-239.743,-506.549C-228.104,-512.333 -222.018,-519.619 -215.926,-526.816C-214.341,-528.687 -211.042,-530.944 -213.995,-533.794C-216.44,-536.154 -219.341,-534.659 -221.499,-532.66C-228.599,-526.081 -233.828,-518.148 -239.743,-506.549M9.023,-71.909C23.585,-76.667 36.536,-83.872 45.956,-96.439C29.834,-94.049 20.293,-81.665 9.023,-71.909M38.264,-508.713C51.595,-513.177 62.133,-521.822 74.571,-532.356C53.188,-535.216 48.889,-517.228 38.264,-508.713M-9.331,-505.203C4.561,-510.901 13.458,-521.169 22.654,-531.977C11.599,-533.885 -3.749,-520.924 -9.331,-505.203M0.059,-532.756C-15.491,-534.087 -30.422,-523.214 -35.06,-508.288C-22.476,-514.717 -11.761,-522.494 0.059,-532.756M-183.709,-532.84C-197.812,-534.88 -213.956,-521.722 -216.243,-507.293C-204.465,-514.256 -193.984,-521.865 -183.709,-532.84M85.574,-505.035C101.282,-507.662 108.624,-520.439 120.189,-532.276C99.8,-531.144 94.512,-515.876 85.574,-505.035M-2.834,-96.545C-27.056,-99.838 -35.405,-82.352 -46.642,-69.286C-30.358,-74.119 -16.823,-83.37 -2.834,-96.545M-15.608,-492.639L-15.608,-492.784C-94.038,-492.784 -172.468,-492.782 -250.898,-492.786C-262.498,-492.787 -273.746,-477.654 -268.514,-467.355C-264.161,-458.788 -260.023,-450.224 -245.86,-451.191C-218.257,-453.075 -190.429,-449.972 -162.75,-449.797C-35.074,-448.989 92.614,-449.588 220.274,-446.813C231.645,-446.566 235.174,-452.509 236.424,-461.696C237.016,-466.041 236.71,-470.534 236.551,-474.951C236.056,-488.702 232.046,-492.627 218.48,-492.63C140.451,-492.648 62.422,-492.639 -15.608,-492.639M200.862,-251.644C200.862,-290.648 200.411,-329.659 201.003,-368.654C201.493,-400.916 202.039,-400.981 169.747,-400.919C105.098,-400.796 40.526,-403.513 -24.081,-405.296C-92.697,-407.19 -161.379,-406.998 -229.949,-410.734C-239.244,-411.24 -241.421,-407.947 -241.452,-399.237C-241.599,-357.946 -243.429,-316.722 -242.249,-275.349C-240.819,-225.226 -242.866,-175 -243.585,-124.821C-243.682,-118.096 -243.443,-113.73 -234.397,-113.668C-191.122,-113.372 -147.855,-112.224 -104.581,-111.637C-48.311,-110.875 7.96,-112.112 64.245,-109.96C106.82,-108.332 149.489,-109.191 192.117,-108.93C196.815,-108.901 200.798,-108.83 200.124,-115.823C195.758,-161.09 199.829,-206.368 200.862,-251.644M-17.884,-543.504C62.107,-543.504 142.099,-543.727 222.088,-543.26C233.838,-543.191 245.838,-542.416 257.143,-536.861C270.589,-530.254 279.447,-520.211 280.278,-505.688C281.757,-479.854 284.441,-453.866 277.885,-428.148C275.123,-417.308 270.132,-408.879 259.093,-405.304C253.107,-403.365 251.083,-399.479 251.625,-393.518C255.675,-348.983 252.18,-304.307 253.966,-259.749C255.784,-214.368 256.378,-168.995 256.017,-123.598C255.974,-118.201 257,-116.43 263.129,-115.966C291.264,-113.835 302.277,-90.597 286.673,-67.317C280.168,-57.612 268.804,-54.694 259.37,-54.657C178.564,-54.341 97.753,-55.365 16.943,-55.598C12.053,-55.612 3.776,-60.032 2.548,-50.028C1.553,-41.916 -33.587,-44.137 -33.668,-50.947C-33.776,-59.919 -41.644,-55.582 -45.664,-55.6C-125.706,-55.955 -205.75,-55.848 -285.793,-56.099C-293.022,-56.121 -299.825,-53.81 -307.774,-57.354C-322.741,-64.028 -331.908,-75.408 -330.537,-91.008C-329.016,-108.312 -318.888,-119.82 -301.926,-121.049C-293.578,-121.655 -294.459,-126.151 -294.407,-131.389C-294.032,-169.536 -294.34,-207.707 -293.067,-245.825C-291.349,-297.271 -292.423,-348.712 -291.875,-400.152C-291.826,-404.756 -290.756,-409.276 -297.278,-411.678C-319.628,-419.909 -323.95,-438.5 -320.526,-458.819C-317.64,-475.951 -319.55,-493.161 -316.599,-510.289C-314.103,-524.782 -305.994,-534.445 -294.257,-539.291C-281.828,-544.424 -268.399,-548.271 -254.312,-548.46C-175.479,-549.52 -96.698,-546.219 -17.884,-543.504" style="fill:rgb(16,46,108);fill-rule:nonzero;"/>
                </g>
                <g transform="matrix(1.77572,0,0,1.28142,587.182,703.07)">
                    <path d="M-3.63,-27.905C-4.116,-39.002 -12.669,-36.604 -16.582,-40.191C-14.394,-34.91 -9.46,-32.786 -3.63,-27.905ZM5.791,5.418C6.881,4.093 8.859,2.249 8.62,1.892C6.157,-1.775 3.665,-5.784 -0.734,-7.17C-2.251,-7.647 -4.784,-5.399 -4.039,-3.242C-2.52,1.161 1.972,2.602 5.791,5.418ZM-69.358,14.407C-66.114,21.427 -60.296,23.574 -55.73,27.146C-54.146,28.385 -52.375,29.79 -50.937,27.382C-49.937,25.706 -49.979,22.557 -51.947,22.407C-58.472,21.909 -61.604,14.64 -69.358,14.407ZM-51.715,-12.494C-51.29,-4.892 -46.14,-2.05 -42.4,1.694C-40.925,3.172 -38.776,3.409 -37.168,1.591C-35.555,-0.233 -36.321,-1.92 -37.747,-3.58C-41.193,-7.593 -45.753,-9.808 -51.715,-12.494ZM-63.903,-1.372C-64.763,2.737 -61.872,5.548 -59.861,7.911C-57.159,11.086 -53.106,13.113 -49.633,15.633C-48.768,14.381 -47.346,13.216 -47.135,11.862C-46.273,6.337 -51.252,4.909 -54.498,2.575C-57.176,0.651 -59.825,-2.049 -63.903,-1.372ZM-75.134,44.998C-69.103,56.843 -59.676,60.679 -50.377,64.586C-48.982,65.172 -46.799,64.76 -46.602,62.924C-46.458,61.584 -47.438,59.071 -48.366,58.834C-57.594,56.472 -64.096,48.691 -75.134,44.998ZM-75.175,29.202C-68.597,40.044 -57.633,43.354 -46.641,46.614C-51.455,32.741 -64.45,32.921 -75.175,29.202ZM-12.047,-4.403C-17.763,-14.172 -26.731,-18.713 -36.663,-21.51C-41.206,-22.79 -41.022,-19.939 -39.457,-16.713C-35.771,-9.11 -22.119,-2.66 -12.047,-4.403ZM16.674,17.234C14.391,16.406 12.895,16.951 12.481,18.728C11.816,21.581 11.974,24.485 15.207,25.81C22.243,28.691 28.803,32.267 34.555,37.335C36.081,38.68 38.444,38.744 40.003,37.107C41.778,35.244 39.87,33.489 39.308,31.711C35.708,20.329 23.887,21.923 16.674,17.234ZM-43.513,26.557C-43.33,40.46 -33.625,50.503 -20.431,50.444C-7.569,50.386 2.993,40.221 2.802,28.083C2.614,16.084 -7.716,3.911 -18.118,4.239C-33.726,4.731 -44.524,15.045 -43.513,26.557ZM19.039,-14.446C23.315,-9.872 26.841,-4.442 32.991,-1.958C30.496,-8.311 26.744,-13.384 20.085,-15.661C15.055,-19.329 7.756,-27.682 4.123,-22.202C-1.129,-14.278 -3.473,-19.631 -6.733,-21.554C-11.081,-24.119 -14.189,-29.3 -20.772,-27.73C-12.632,-14.617 -9.495,-11.499 -3.518,-13.369C4.065,-15.743 11.491,-14.879 19.039,-14.446ZM2.548,-50.028C1.553,-41.916 1.515,-35.836 12.708,-32.274C47.095,-21.33 64.587,24.952 47.252,59.988C23.837,107.314 -37.428,118.687 -73.81,80.66C-108.553,44.347 -91.492,-18.557 -42.351,-32.758C-29.648,-36.429 -33.587,-44.137 -33.668,-50.947C-33.776,-59.919 3.776,-60.032 2.548,-50.028Z" style="fill:rgb(242,113,45);fill-rule:nonzero;"/>
                </g>
                <g transform="matrix(1.77572,0,0,1.28142,565.179,331.371)">
                    <path d="M0,90.538C0.683,84.479 -1.217,79.978 -3.145,75.459C-3.913,80.477 -9.861,86.163 0,90.538M45.991,-11.9C44.432,-11.119 41.841,-10.07 42.799,-8.14C44.107,-5.503 46.323,-2.624 48.877,-1.495C51.353,-0.401 51.28,-3.629 51.222,-5.377C51.114,-8.657 50.375,-11.654 45.991,-11.9M67.869,63.077C69.027,50.061 68.834,49.236 63.523,41.955C62.246,48.848 62.933,55.265 67.869,63.077M-35.335,13.546L-35.335,37.648C-35.323,30.509 -25.795,23.626 -35.335,13.546M39.533,61.617C38.967,71.819 41.138,79.608 43.722,87.332C44.877,79.02 44.86,70.892 39.533,61.617M-23.147,27.693C-24,34.094 -24.612,39.364 -22.403,45.723C-16.656,39.325 -13.557,34.146 -23.147,27.693M-127.732,90.736C-127.068,81.288 -125.967,73.661 -132.986,67.527C-130.092,74.434 -135.344,82.519 -127.732,90.736M29.24,80.597C28.433,80.636 27.627,80.675 26.821,80.715C26.821,85.491 26.634,90.277 26.899,95.039C27.032,97.421 25.927,101.567 30.682,100.514C33.862,99.81 35.062,96.833 34.16,93.833C32.806,89.335 30.907,85.001 29.24,80.597M-118.855,55.894C-122.005,72.403 -121.126,80.21 -115.733,86.559C-113.661,76.363 -116.778,67.075 -118.855,55.894M51.305,51.353C51.609,59.12 48.647,67.007 53.255,74.224C54.165,75.649 56.591,74.182 57.174,72.849C60.641,64.931 56.294,58.4 53.018,51.725C52.911,51.507 52.273,51.549 51.305,51.353M-60.104,7.522C-71.563,16.884 -62.795,27.479 -62.835,37.647C-61.924,27.606 -61.014,17.564 -60.104,7.522M83.367,20.635C83.019,30.291 80.017,41.076 93.199,49.151C91.736,37.469 87.268,29.237 83.367,20.635M-49.55,34.27C-43.423,27.496 -45.806,19.589 -43.386,12.998C-42.292,10.018 -44.642,7.783 -47.986,7.397C-51.902,6.945 -53.034,9.478 -52.683,12.553C-51.892,19.478 -50.718,26.358 -49.55,34.27M103.763,32.02C102.62,32.377 101.476,32.734 100.332,33.091C107.26,43.16 98.125,58.242 114.966,68.106C110.687,54.322 107.225,43.171 103.763,32.02M74.023,23.419C77.693,10.76 71.247,1.337 73.345,-8.344C74.029,-11.498 75.155,-14.936 69.729,-14.492C64.905,-14.098 65.282,-10.824 66.09,-7.57C68.437,1.876 70.908,11.292 74.023,23.419M106.097,16.146C107.519,5.446 107.213,-3.094 104.691,-11.58C103.874,-14.329 103.731,-17.437 99.768,-16.466C96.468,-15.658 97.48,-13.135 97.998,-10.779C99.839,-2.419 100.478,6.269 106.097,16.146M92.368,21.368C93.134,21.146 93.899,20.924 94.664,20.702C93.354,10.171 92.198,-0.383 90.615,-10.872C90.265,-13.19 90.012,-17.234 85.808,-15.974C82.44,-14.964 82.621,-12.274 83.573,-9.17C86.678,0.956 89.461,11.181 92.368,21.368M117.448,24.833C116.834,38.273 117.959,51.46 122.005,66.122C131.19,49.532 120.196,37.783 117.448,24.833M-78.537,54.011C-73.201,43.331 -72.461,32.245 -76.333,21.008C-83.497,28.016 -84.489,42.867 -78.537,54.011M-93.073,68.19C-88.744,57.56 -88.295,48.55 -88.701,39.449C-88.797,37.293 -88.301,34.04 -91.664,34.14C-93.111,34.184 -95.679,36.409 -95.712,37.695C-95.957,47.236 -98.304,57.084 -93.073,68.19M-102.727,42.881C-113.623,51.899 -113.152,66.753 -104,80.23C-97.263,68.545 -105.3,56.977 -102.727,42.881M87.965,-23.961C100.886,-23.961 111.338,-23.747 121.776,-24.033C129.271,-24.238 132.668,-21.285 133.05,-13.571C134.18,9.278 131.736,32.161 134.17,55.03C134.72,60.196 132.343,66.14 129.943,71.057C124.316,82.583 116.914,83.526 108.085,74.585C88.231,54.48 88.219,54.468 68.399,75.58C60.166,84.35 52.05,93.229 43.789,101.973C30.139,116.421 12.641,116.761 -1.347,102.81C-14.13,90.061 -26.754,77.154 -39.536,64.405C-47.217,56.744 -54.245,55.508 -63.215,63.994C-76.886,76.925 -91.854,88.489 -106.337,100.553C-119.749,111.725 -133.492,110.674 -144.193,97.79C-153.292,86.834 -150.234,71.972 -137.372,61.322C-115.472,43.19 -93.996,24.547 -72.08,6.434C-59.247,-4.172 -46.974,-4.116 -33.45,6.259C-20.888,15.895 -12.519,29.421 -2.204,41.139C20.829,67.304 12.964,65.254 35.697,43.536C40.046,39.381 43.427,33.993 48.262,30.614C58.056,23.768 55.537,18.326 47.966,11.979C44.328,8.927 41.398,4.946 38.493,1.123C30.139,-9.871 32.651,-16.866 46.2,-21.381C60.73,-26.223 75.737,-22.485 87.965,-23.961" style="fill:rgb(242,113,45);fill-rule:nonzero;"/>
                </g>
            </g>
        </g>
        <g id="Слой-2" serif:id="Слой 2">
        </g>
        <g id="Слой-3" serif:id="Слой 3">
        </g>
        <g id="Слой-4" serif:id="Слой 4">
        </g>
        <g id="Слой-5" serif:id="Слой 5">
        </g>
        <g id="Режим-изоляции4" serif:id="Режим изоляции">
        </g>
    </g>
</svg>
